<svg width="50" height="45" viewBox="0 0 50 45" fill="none" xmlns="http://www.w3.org/2000/svg">
<path d="M1.78578 38.3929V8.92857H42.8572V17.8571H44.6429V1.78571C44.6429 0.964286 43.1876 0 41.9643 0H2.67863C1.96823 0 1.28693 0.282206 0.784597 0.784535C0.282267 1.28687 6.10352e-05 1.96817 6.10352e-05 2.67857V38.3929C6.10352e-05 39.1033 0.282267 39.7846 0.784597 40.2869C1.28693 40.7892 1.96823 41.0714 2.67863 41.0714H16.0715V39.2857H2.67863C2.44183 39.2857 2.21473 39.1916 2.04729 39.0242C1.87984 38.8568 1.78578 38.6297 1.78578 38.3929ZM2.67863 1.78571H41.9643C42.2907 1.80715 42.6025 1.92875 42.8572 2.13393V7.14286H1.78578V2.67857C1.78578 2.44177 1.87984 2.21467 2.04729 2.04723C2.21473 1.87978 2.44183 1.78571 2.67863 1.78571ZM6.25006 5.35714H3.57149V3.57143H6.25006V5.35714ZM10.7143 5.35714H8.03578V3.57143H10.7143V5.35714ZM15.1786 5.35714H12.5001V3.57143H15.1786V5.35714ZM41.0715 5.35714H29.4643V3.57143H41.0715V5.35714ZM41.0715 16.9643V11.6071C41.0715 11.3703 40.9774 11.1432 40.81 10.9758C40.6425 10.8084 40.4154 10.7143 40.1786 10.7143H4.46435C4.22755 10.7143 4.00044 10.8084 3.833 10.9758C3.66556 11.1432 3.57149 11.3703 3.57149 11.6071V16.9643C3.57149 17.2011 3.66556 17.4282 3.833 17.5956C4.00044 17.7631 4.22755 17.8571 4.46435 17.8571H40.1786C40.4154 17.8571 40.6425 17.7631 40.81 17.5956C40.9774 17.4282 41.0715 17.2011 41.0715 16.9643ZM39.2858 16.0714H5.3572V12.5H39.2858V16.0714ZM48.2143 42.8571V27.6786C48.2143 27.4418 48.1203 27.2147 47.9528 27.0472C47.7854 26.8798 47.5583 26.7857 47.3215 26.7857H43.7501C43.5133 26.7857 43.2862 26.8798 43.1187 27.0472C42.9513 27.2147 42.8572 27.4418 42.8572 27.6786V42.8571H41.0715V32.1429C41.0715 31.9061 40.9774 31.679 40.81 31.5115C40.6425 31.3441 40.4154 31.25 40.1786 31.25H36.6072C36.3704 31.25 36.1433 31.3441 35.9759 31.5115C35.8084 31.679 35.7143 31.9061 35.7143 32.1429V42.8571H33.9286V27.6786C33.9286 27.4418 33.8346 27.2147 33.6671 27.0472C33.4997 26.8798 33.2726 26.7857 33.0358 26.7857H29.4643C29.2275 26.7857 29.0004 26.8798 28.833 27.0472C28.6656 27.2147 28.5715 27.4418 28.5715 27.6786V42.8571H26.7858V32.1429C26.7858 31.9061 26.6917 31.679 26.5243 31.5115C26.3568 31.3441 26.1297 31.25 25.8929 31.25H22.3215C22.0847 31.25 21.8576 31.3441 21.6901 31.5115C21.5227 31.679 21.4286 31.9061 21.4286 32.1429V42.8571H19.6429V19.6429H17.8572V43.75C17.8572 43.9868 17.9513 44.2139 18.1187 44.3813C18.2862 44.5488 18.5133 44.6429 18.7501 44.6429H50.0001V42.8571H48.2143ZM23.2143 42.8571V33.0357H25.0001V42.8571H23.2143ZM30.3572 42.8571V28.5714H32.1429V42.8571H30.3572ZM37.5001 42.8571V33.0357H39.2858V42.8571H37.5001ZM44.6429 42.8571V28.5714H46.4286V42.8571H44.6429ZM42.8572 22.3214C42.8623 22.5508 42.8953 22.7786 42.9554 23L39.9822 24.6339C39.5223 24.293 38.9654 24.1084 38.3929 24.1071C37.7721 24.1126 37.1724 24.3335 36.6965 24.7321L33.9286 22.8036C33.9427 22.6432 33.9427 22.4818 33.9286 22.3214C33.9286 21.611 33.6464 20.9297 33.1441 20.4274C32.6418 19.9251 31.9605 19.6429 31.2501 19.6429C30.5397 19.6429 29.8584 19.9251 29.356 20.4274C28.8537 20.9297 28.5715 21.611 28.5715 22.3214C28.5742 22.5164 28.5951 22.7107 28.634 22.9018L25.759 24.6875C25.291 24.3107 24.708 24.1059 24.1072 24.1071C23.5774 24.1071 23.0596 24.2642 22.6191 24.5586C22.1786 24.8529 21.8353 25.2712 21.6325 25.7607C21.4298 26.2501 21.3767 26.7887 21.4801 27.3083C21.5835 27.8279 21.8386 28.3051 22.2132 28.6797C22.5878 29.0544 23.065 29.3095 23.5846 29.4128C24.1042 29.5162 24.6428 29.4631 25.1322 29.2604C25.6217 29.0577 26.04 28.7143 26.3344 28.2738C26.6287 27.8334 26.7858 27.3155 26.7858 26.7857C26.7846 26.5901 26.7606 26.3954 26.7143 26.2054L29.5893 24.4196C30.0618 24.7945 30.6469 24.999 31.2501 25C31.8843 24.9981 32.4965 24.7665 32.9733 24.3482L35.7679 26.25C35.7324 26.4264 35.7145 26.6058 35.7143 26.7857C35.7108 27.1677 35.789 27.546 35.9437 27.8952C36.0984 28.2445 36.3261 28.5566 36.6113 28.8106C36.8966 29.0647 37.2328 29.2548 37.5976 29.3682C37.9623 29.4816 38.3471 29.5157 38.7262 29.4681C39.1052 29.4206 39.4696 29.2926 39.7951 29.0926C40.1205 28.8926 40.3994 28.6253 40.6131 28.3087C40.8268 27.9921 40.9703 27.6334 41.0339 27.2568C41.0976 26.8802 41.0799 26.4943 40.9822 26.125L43.9643 24.4821C44.4518 24.8352 45.0439 25.0139 45.6452 24.9893C46.2466 24.9647 46.8221 24.7383 47.2791 24.3466C47.736 23.9548 48.0477 23.4207 48.1639 22.8301C48.2801 22.2396 48.1941 21.6271 47.9196 21.0915C47.6451 20.5558 47.1983 20.1282 46.6511 19.8776C46.1039 19.627 45.4882 19.568 44.9034 19.7101C44.3185 19.8522 43.7986 20.1871 43.4274 20.6609C43.0561 21.1346 42.8553 21.7196 42.8572 22.3214ZM24.1072 27.6786C23.9306 27.6786 23.758 27.6262 23.6112 27.5281C23.4643 27.43 23.3499 27.2905 23.2823 27.1274C23.2147 26.9642 23.1971 26.7847 23.2315 26.6115C23.266 26.4383 23.351 26.2792 23.4759 26.1544C23.6007 26.0295 23.7598 25.9445 23.933 25.91C24.1062 25.8756 24.2857 25.8932 24.4489 25.9608C24.612 26.0284 24.7515 26.1428 24.8496 26.2897C24.9477 26.4365 25.0001 26.6091 25.0001 26.7857C25.0001 27.0225 24.906 27.2496 24.7386 27.4171C24.5711 27.5845 24.344 27.6786 24.1072 27.6786ZM31.2501 23.2143C31.0735 23.2143 30.9008 23.1619 30.754 23.0638C30.6072 22.9657 30.4927 22.8263 30.4252 22.6631C30.3576 22.5 30.3399 22.3204 30.3744 22.1472C30.4088 21.974 30.4938 21.815 30.6187 21.6901C30.7436 21.5652 30.9027 21.4802 31.0759 21.4457C31.2491 21.4113 31.4286 21.429 31.5917 21.4965C31.7549 21.5641 31.8943 21.6786 31.9924 21.8254C32.0906 21.9722 32.1429 22.1448 32.1429 22.3214C32.1429 22.5582 32.0489 22.7853 31.8814 22.9528C31.714 23.1202 31.4869 23.2143 31.2501 23.2143ZM38.3929 27.6786C38.2163 27.6786 38.0437 27.6262 37.8969 27.5281C37.75 27.43 37.6356 27.2905 37.568 27.1274C37.5005 26.9642 37.4828 26.7847 37.5172 26.6115C37.5517 26.4383 37.6367 26.2792 37.7616 26.1544C37.8864 26.0295 38.0455 25.9445 38.2187 25.91C38.3919 25.8756 38.5714 25.8932 38.7346 25.9608C38.8977 26.0284 39.0372 26.1428 39.1353 26.2897C39.2334 26.4365 39.2858 26.6091 39.2858 26.7857C39.2858 27.0225 39.1917 27.2496 39.0243 27.4171C38.8568 27.5845 38.6297 27.6786 38.3929 27.6786ZM45.5358 21.4286C45.7124 21.4286 45.885 21.4809 46.0318 21.579C46.1786 21.6772 46.2931 21.8166 46.3607 21.9797C46.4282 22.1429 46.4459 22.3224 46.4115 22.4956C46.377 22.6688 46.292 22.8279 46.1671 22.9528C46.0423 23.0776 45.8832 23.1627 45.71 23.1971C45.5368 23.2316 45.3572 23.2139 45.1941 23.1463C45.0309 23.0787 44.8915 22.9643 44.7934 22.8175C44.6953 22.6706 44.6429 22.498 44.6429 22.3214C44.6429 22.0846 44.737 21.8575 44.9044 21.6901C45.0719 21.5226 45.299 21.4286 45.5358 21.4286ZM15.1786 19.6429H4.46435C4.22755 19.6429 4.00044 19.7369 3.833 19.9044C3.66556 20.0718 3.57149 20.2989 3.57149 20.5357V25.8929C3.57149 26.1297 3.66556 26.3568 3.833 26.5242C4.00044 26.6916 4.22755 26.7857 4.46435 26.7857H15.1786C15.4154 26.7857 15.6425 26.6916 15.81 26.5242C15.9774 26.3568 16.0715 26.1297 16.0715 25.8929V20.5357C16.0715 20.2989 15.9774 20.0718 15.81 19.9044C15.6425 19.7369 15.4154 19.6429 15.1786 19.6429ZM14.2858 25H5.3572V21.4286H14.2858V25ZM11.6072 30.3571H3.57149V28.5714H11.6072V30.3571ZM13.3929 28.5714H16.0715V30.3571H13.3929V28.5714ZM11.6072 33.9286H3.57149V32.1429H11.6072V33.9286ZM13.3929 32.1429H16.0715V33.9286H13.3929V32.1429ZM3.57149 35.7143H11.6072V37.5H3.57149V35.7143ZM13.3929 35.7143H16.0715V37.5H13.3929V35.7143Z" fill="url(#paint0_linear_78_890)"/>
<defs>
<linearGradient id="paint0_linear_78_890" x1="-0.413162" y1="24.5536" x2="48.9737" y2="24.7831" gradientUnits="userSpaceOnUse">
<stop stop-color="#FFBE57"/>
<stop offset="1" stop-color="#F99441"/>
</linearGradient>
</defs>
</svg>
