<svg width="503" height="330" viewBox="0 0 503 330" fill="none" xmlns="http://www.w3.org/2000/svg">
<g clip-path="url(#clip0_78_441)">
<path d="M438.081 235.316C436.563 227.292 421.64 225.941 421.64 225.941C421.64 225.941 430.324 211.413 424.169 204.825C418.015 198.236 403.682 213.693 403.682 213.693C403.682 213.693 398.96 203.895 392.047 213.693C392.047 213.693 380.412 204.825 370.379 209.386C363.212 212.68 364.224 221.295 365.489 225.941H168.032C167.863 225.603 167.695 225.265 167.358 224.927C160.697 216.903 141.39 221.042 141.39 221.042C141.39 221.042 149.484 201.024 136.162 195.027C122.841 188.945 107.412 200.77 107.412 200.77C98.1382 187.763 91.9835 200.77 91.9835 200.77C91.9835 200.77 73.1821 180.246 65.0039 188.945C56.8257 197.645 68.3764 216.987 68.3764 216.987C68.3764 216.987 48.6476 218.761 46.5398 229.404C44.5163 240.046 80.7701 251.111 80.7701 251.111L412.366 251.702C412.197 251.786 439.598 243.425 438.081 235.316Z" fill="#71BF9D"/>
<path d="M98.8969 247.986C92.9108 231.093 83.8896 215.214 72.3389 201.531" stroke="#E57E55" stroke-width="0.9971" stroke-miterlimit="10" stroke-linecap="round" stroke-linejoin="round"/>
<path d="M98.897 248.577C99.3185 235.232 100.752 221.886 103.028 208.71" stroke="#E57E55" stroke-width="0.9971" stroke-miterlimit="10" stroke-linecap="round" stroke-linejoin="round"/>
<path d="M95.3559 239.286C86.7562 234.978 77.5663 232.022 68.0391 230.417" stroke="#E57E55" stroke-width="0.9971" stroke-miterlimit="10" stroke-linecap="round" stroke-linejoin="round"/>
<path d="M86.5876 221.211C88.3581 217.156 89.5385 212.933 90.1287 208.541" stroke="#E57E55" stroke-width="0.9971" stroke-miterlimit="10" stroke-linecap="round" stroke-linejoin="round"/>
<path d="M397.274 249.421C402.08 235.907 409.33 223.238 418.52 212.257" stroke="#E57E55" stroke-width="0.7983" stroke-miterlimit="10" stroke-linecap="round" stroke-linejoin="round"/>
<path d="M397.274 249.928C396.937 239.201 395.756 228.559 393.986 218.001" stroke="#E57E55" stroke-width="0.7983" stroke-miterlimit="10" stroke-linecap="round" stroke-linejoin="round"/>
<path d="M400.141 242.495C407.054 239.117 414.389 236.667 421.977 235.4" stroke="#E57E55" stroke-width="0.7983" stroke-miterlimit="10" stroke-linecap="round" stroke-linejoin="round"/>
<path d="M407.138 228.052C405.789 224.842 404.778 221.379 404.356 217.916" stroke="#E57E55" stroke-width="0.7983" stroke-miterlimit="10" stroke-linecap="round" stroke-linejoin="round"/>
<path d="M82.0347 193.675C82.2034 193.675 82.2877 193.76 82.4563 193.844C82.5406 193.929 82.7092 194.013 82.7935 194.182C82.8778 194.351 82.7935 194.604 82.6249 194.689C82.5406 194.689 82.4563 194.773 82.372 194.689C82.2034 194.689 82.119 194.604 81.9504 194.52C81.8661 194.435 81.6975 194.351 81.6132 194.182C81.5289 194.013 81.6132 193.76 81.7818 193.675C81.8661 193.675 81.9504 193.675 82.0347 193.675Z" fill="white"/>
<path d="M83.3837 194.773C83.5523 194.773 83.6366 194.942 83.8053 195.027C83.8896 195.111 84.0582 195.196 84.0582 195.365C84.1425 195.533 84.0582 195.787 83.8896 195.871C83.8053 195.871 83.721 195.871 83.6366 195.871C83.468 195.871 83.3837 195.702 83.2151 195.618C83.1308 195.533 82.9622 195.449 82.9622 195.28C82.8778 195.111 82.9622 194.858 83.1308 194.773C83.2151 194.773 83.2994 194.689 83.3837 194.773Z" fill="white"/>
<path d="M84.7327 195.871C84.9013 195.871 84.9856 196.04 85.1542 196.125C85.2385 196.209 85.4072 196.378 85.4072 196.463C85.4915 196.632 85.4072 196.885 85.2385 196.969C85.1542 196.969 85.0699 196.969 84.9856 196.969C84.817 196.885 84.7327 196.8 84.5641 196.716C84.4797 196.632 84.3111 196.463 84.3111 196.378C84.2268 196.209 84.3111 195.956 84.4797 195.871C84.564 195.871 84.6484 195.871 84.7327 195.871Z" fill="white"/>
<path d="M87.0091 197.983C87.1777 198.067 87.262 198.152 87.4307 198.236C87.515 198.321 87.5993 198.49 87.6836 198.659C87.7679 198.828 87.6836 199.081 87.4307 199.165C87.3464 199.165 87.262 199.165 87.1777 199.165C87.0091 199.081 86.9248 198.997 86.7562 198.912C86.6719 198.828 86.5876 198.659 86.5033 198.574C86.4189 198.405 86.5033 198.152 86.7562 198.067C86.8405 197.899 86.9248 197.899 87.0091 197.983Z" fill="white"/>
<path d="M88.5267 199.503C88.611 199.503 88.6953 199.588 88.7796 199.672C88.8639 199.757 88.8639 199.841 88.9483 199.926C88.9483 200.179 88.7796 200.348 88.5267 200.348H88.4424C88.3581 200.348 88.2738 200.263 88.1894 200.179C88.1051 200.095 88.1051 200.01 88.0208 199.926C88.0208 199.672 88.1894 199.503 88.3581 199.419C88.5267 199.503 88.5267 199.503 88.5267 199.503Z" fill="white"/>
<path d="M89.8757 200.77C89.96 200.77 90.0443 200.855 90.1286 200.939C90.2129 201.024 90.2129 201.108 90.2129 201.193C90.2129 201.446 90.0443 201.615 89.7913 201.615H89.707C89.6227 201.615 89.5384 201.53 89.4541 201.446C89.3698 201.362 89.3698 201.277 89.3698 201.193C89.3698 201.024 89.5384 200.855 89.8757 200.77C89.7913 200.77 89.7913 200.77 89.8757 200.77Z" fill="white"/>
<path d="M66.943 189.114C68.0391 188.354 69.4723 188.101 70.737 188.101C72.086 188.101 73.3507 188.523 74.531 188.945C75.7114 189.452 76.8917 190.043 77.9878 190.719C79.0838 191.395 80.0955 192.155 81.1073 192.915C81.2759 193 81.2759 193.253 81.1916 193.338C81.1073 193.506 80.8543 193.506 80.77 193.422C79.7583 192.662 78.6623 191.986 77.6505 191.31C76.5545 190.635 75.4584 190.043 74.3624 189.621C73.182 189.114 72.0017 188.776 70.8213 188.776C69.641 188.776 68.3763 188.945 67.3646 189.537C67.1959 189.621 67.0273 189.537 66.943 189.368C66.7744 189.452 66.7744 189.283 66.943 189.114Z" fill="white"/>
<path d="M66.6058 190.128C66.6058 190.297 66.4372 190.297 66.4372 190.466C66.3529 190.55 66.2685 190.635 66.0999 190.635C65.9313 190.719 65.6784 190.55 65.5941 190.381C65.5941 190.297 65.5941 190.212 65.5941 190.212C65.5941 190.043 65.6784 189.959 65.7627 189.874C65.847 189.79 66.0156 189.706 66.0999 189.706C66.3529 189.706 66.5215 189.79 66.5215 190.043C66.6058 190.043 66.6058 190.043 66.6058 190.128Z" fill="white"/>
<path d="M65.6783 191.141C65.6783 191.31 65.594 191.395 65.594 191.479C65.5097 191.564 65.4254 191.648 65.3411 191.733C65.1725 191.817 64.9195 191.817 64.8352 191.648C64.8352 191.564 64.7509 191.564 64.7509 191.479C64.7509 191.31 64.8352 191.226 64.8352 191.057C64.9195 190.973 65.0038 190.804 65.1725 190.804C65.3411 190.719 65.594 190.804 65.6783 190.973C65.594 191.057 65.6783 191.141 65.6783 191.141Z" fill="white"/>
<path d="M65.0039 192.408C64.9196 192.662 64.9196 192.915 64.8352 193.169L64.6666 193.929C64.5823 194.436 64.4137 194.942 64.3294 195.365C64.2451 195.534 64.0765 195.618 63.9078 195.618C63.7392 195.618 63.6549 195.449 63.6549 195.28C63.6549 194.773 63.7392 194.182 63.8235 193.675L64.0765 192.915C64.1608 192.662 64.3294 192.408 64.4137 192.155C64.498 191.986 64.7509 191.986 64.8352 192.071C64.9196 192.071 65.0039 192.24 65.0039 192.408Z" fill="white"/>
<path d="M64.0765 196.632C64.1608 196.716 64.1608 196.801 64.1608 196.885C64.1608 196.969 64.1608 197.054 64.0765 197.138C63.9078 197.307 63.5706 197.307 63.402 197.138C63.3177 197.054 63.3177 196.969 63.3177 196.885C63.3177 196.801 63.3177 196.716 63.402 196.632C63.6549 196.378 63.9078 196.378 64.0765 196.632Z" fill="white"/>
<path d="M64.1607 198.152C64.245 198.236 64.245 198.321 64.245 198.405C64.245 198.49 64.245 198.574 64.1607 198.659C63.9921 198.828 63.7392 198.828 63.4862 198.659C63.4019 198.574 63.4019 198.49 63.4019 198.405C63.4019 198.321 63.4019 198.236 63.4862 198.152C63.6549 197.983 63.9078 197.983 64.1607 198.152Z" fill="white"/>
<path d="M423.663 214.622C423.663 214.791 423.663 214.96 423.663 215.129C423.579 215.298 423.579 215.467 423.495 215.551C423.326 215.72 423.157 215.72 422.989 215.636C422.904 215.551 422.904 215.467 422.904 215.467C422.904 215.298 422.904 215.129 422.904 214.96C422.989 214.791 422.989 214.622 423.073 214.538C423.242 214.369 423.41 214.369 423.579 214.453C423.579 214.453 423.663 214.538 423.663 214.622Z" fill="white"/>
<path d="M423.242 216.481C423.242 216.65 423.242 216.818 423.242 216.987C423.158 217.156 423.158 217.325 422.989 217.41C422.82 217.579 422.652 217.579 422.483 217.41C422.399 217.325 422.399 217.241 422.399 217.241C422.399 217.072 422.399 216.903 422.483 216.734C422.567 216.565 422.567 216.396 422.736 216.312C422.905 216.143 423.073 216.143 423.242 216.227C423.158 216.312 423.242 216.396 423.242 216.481Z" fill="white"/>
<path d="M422.736 218.254C422.736 218.423 422.736 218.592 422.652 218.761C422.567 218.93 422.567 219.099 422.399 219.183C422.23 219.352 422.061 219.352 421.893 219.183C421.809 219.099 421.809 219.015 421.809 218.93C421.809 218.761 421.809 218.592 421.893 218.423C421.977 218.254 421.977 218.085 422.146 218.001C422.314 217.832 422.483 217.832 422.652 218.001C422.652 218.085 422.736 218.17 422.736 218.254Z" fill="white"/>
<path d="M421.64 221.379C421.64 221.548 421.64 221.717 421.556 221.886C421.471 222.055 421.387 222.224 421.303 222.309C421.134 222.478 420.881 222.478 420.797 222.309C420.712 222.224 420.712 222.14 420.712 222.055C420.712 221.886 420.712 221.717 420.797 221.548C420.881 221.379 420.881 221.211 421.05 221.126C421.218 220.957 421.471 220.957 421.556 221.126C421.64 221.211 421.64 221.295 421.64 221.379Z" fill="white"/>
<path d="M420.881 223.575C420.881 223.66 420.881 223.829 420.881 223.913C420.797 223.998 420.797 224.082 420.712 224.167C420.544 224.251 420.207 224.251 420.122 223.998V223.913C420.122 223.829 420.122 223.66 420.122 223.575C420.207 223.491 420.207 223.407 420.291 223.322C420.46 223.238 420.713 223.238 420.881 223.575C420.797 223.491 420.797 223.575 420.881 223.575Z" fill="white"/>
<path d="M420.038 225.434C420.038 225.518 420.038 225.687 420.038 225.772C419.954 225.856 419.954 225.941 419.869 226.025C419.616 226.109 419.363 226.025 419.279 225.856V225.772C419.279 225.687 419.279 225.603 419.279 225.434C419.363 225.349 419.363 225.265 419.448 225.18C419.701 225.011 419.954 225.096 420.038 225.434C420.038 225.349 420.038 225.349 420.038 225.434Z" fill="white"/>
<path d="M414.305 206.936C415.485 206.26 416.75 205.585 418.099 205.247C419.448 204.909 421.05 204.74 422.314 205.585C422.989 206.007 423.495 206.683 423.748 207.359C424.001 208.034 424.085 208.794 424.169 209.47C424.254 210.906 424.085 212.257 423.832 213.609C423.832 213.778 423.579 213.947 423.41 213.862C423.242 213.862 423.157 213.693 423.157 213.44C423.326 212.088 423.495 210.737 423.41 209.47C423.326 208.203 422.905 206.852 421.893 206.26C420.881 205.669 419.532 205.669 418.267 206.007C417.003 206.345 415.822 206.936 414.642 207.527C414.473 207.612 414.305 207.527 414.221 207.443C414.052 207.19 414.136 207.021 414.305 206.936Z" fill="white"/>
<path d="M413.799 207.865C413.715 208.034 413.63 208.119 413.546 208.119C413.462 208.203 413.293 208.288 413.124 208.288C412.872 208.288 412.703 208.119 412.703 207.95C412.703 207.865 412.703 207.781 412.787 207.781C412.872 207.612 412.956 207.527 413.124 207.443C413.209 207.359 413.377 207.274 413.546 207.274C413.799 207.274 413.968 207.443 413.968 207.612C413.799 207.781 413.799 207.865 413.799 207.865Z" fill="white"/>
<path d="M412.45 208.794C412.366 208.963 412.281 209.048 412.197 209.132C412.113 209.217 411.944 209.301 411.776 209.301C411.523 209.301 411.354 209.217 411.354 208.963C411.354 208.879 411.354 208.794 411.354 208.794C411.438 208.625 411.523 208.541 411.607 208.457C411.691 208.372 411.86 208.288 412.028 208.288C412.281 208.288 412.45 208.457 412.45 208.625C412.534 208.625 412.534 208.71 412.45 208.794Z" fill="white"/>
<path d="M411.27 209.639C410.848 210.061 410.427 210.399 410.005 210.737C409.583 211.075 409.162 211.413 408.656 211.751C408.487 211.835 408.319 211.835 408.15 211.666C408.066 211.582 408.066 211.413 408.15 211.244C408.487 210.822 408.909 210.484 409.415 210.061C409.836 209.724 410.258 209.386 410.764 209.132C410.932 209.048 411.101 209.132 411.185 209.217C411.354 209.386 411.354 209.555 411.27 209.639Z" fill="white"/>
<path d="M407.644 212.68C407.644 212.764 407.56 212.849 407.56 212.933C407.476 213.018 407.391 213.018 407.307 213.018C407.054 213.018 406.885 212.849 406.885 212.511C406.885 212.426 406.97 212.342 406.97 212.257C407.054 212.173 407.138 212.173 407.223 212.173C407.391 212.173 407.644 212.426 407.644 212.68Z" fill="white"/>
<path d="M406.38 213.862C406.38 213.947 406.295 214.031 406.295 214.116C406.211 214.2 406.127 214.2 406.042 214.2C405.789 214.2 405.536 214.031 405.621 213.778C405.621 213.693 405.705 213.609 405.705 213.524C405.789 213.44 405.874 213.44 405.958 213.44C406.211 213.356 406.464 213.524 406.38 213.862Z" fill="white"/>
<path d="M246.441 163.015C195.939 162.255 60.8726 204.064 44.432 163.015C30.8579 129.145 81.6132 131.763 84.564 103.721C87.5149 75.6795 74.2781 63.7701 95.3559 50.7627C116.434 37.7553 150.748 55.8305 173.428 37.7553C196.108 19.7645 207.911 6.58812 259.004 0.422263C310.012 -5.82806 347.783 51.7762 369.704 57.5198C391.541 63.2633 422.82 48.7356 438.165 66.304C453.509 83.957 403.934 122.979 414.558 139.281C425.181 155.582 451.233 164.366 441.116 187.256C431.083 210.146 295.595 163.86 246.441 163.015Z" fill="#FFD25A"/>
<path d="M44.9378 147.389C44.9378 147.136 45.0221 146.967 45.1064 146.714C45.1907 146.545 45.275 146.291 45.4437 146.122C45.6123 145.953 45.8652 145.953 45.9495 146.122C46.0339 146.207 46.0339 146.291 46.0339 146.376C46.0339 146.629 45.9495 146.798 45.8652 146.967C45.7809 147.136 45.6966 147.389 45.6123 147.558C45.4437 147.727 45.1907 147.812 45.1064 147.643C44.9378 147.558 44.9378 147.474 44.9378 147.389Z" fill="white"/>
<path d="M45.8652 145.109C45.8652 144.855 45.9496 144.686 46.1182 144.517C46.2025 144.349 46.2868 144.18 46.5397 144.011C46.7084 143.842 46.9613 143.842 47.0456 144.095C47.0456 144.18 47.1299 144.264 47.0456 144.349C46.9613 144.602 46.9613 144.771 46.7927 144.94C46.7084 145.109 46.5397 145.278 46.4554 145.447C46.2868 145.616 46.0339 145.616 45.9496 145.447C45.8652 145.278 45.8652 145.193 45.8652 145.109Z" fill="white"/>
<path d="M47.0456 142.997C47.1299 142.744 47.2142 142.575 47.2985 142.406C47.4671 142.237 47.5515 142.068 47.7201 141.899C47.973 141.73 48.1416 141.815 48.2259 141.984C48.2259 142.068 48.2259 142.152 48.2259 142.237C48.1416 142.49 48.0573 142.659 47.973 142.828C47.8887 142.997 47.7201 143.166 47.5515 143.335C47.3828 143.504 47.1299 143.419 47.0456 143.25C47.0456 143.166 47.0456 143.082 47.0456 142.997Z" fill="white"/>
<path d="M49.7435 139.619C49.8278 139.45 49.9965 139.281 50.1651 139.112C50.3337 138.943 50.5023 138.858 50.671 138.69C50.9239 138.605 51.1768 138.69 51.1768 138.858C51.1768 138.943 51.1768 139.027 51.0925 139.112C51.0082 139.281 50.8396 139.45 50.7553 139.619C50.5866 139.788 50.418 139.872 50.2494 140.041C49.9965 140.125 49.8278 140.125 49.7435 139.872C49.6592 139.788 49.6592 139.703 49.7435 139.619Z" fill="white"/>
<path d="M51.9357 137.507C52.02 137.338 52.1043 137.254 52.1886 137.169C52.2729 137.085 52.4415 137 52.5259 137C52.7788 137 53.0317 137.169 52.9474 137.423V137.507C52.8631 137.676 52.7788 137.76 52.6945 137.845C52.6102 137.929 52.5259 138.014 52.3572 138.014C52.1043 138.098 51.8514 137.845 51.9357 137.591C51.9357 137.507 51.9357 137.507 51.9357 137.507Z" fill="white"/>
<path d="M54.0434 135.902C54.1277 135.733 54.2121 135.649 54.2964 135.649C54.3807 135.564 54.5493 135.48 54.6336 135.48C54.9709 135.48 55.0552 135.733 55.0552 135.987V136.071C54.9709 136.24 54.8865 136.24 54.8022 136.325C54.7179 136.409 54.5493 136.409 54.465 136.493C54.2121 136.493 53.9591 136.325 54.0434 136.071C54.0434 135.987 54.0434 135.902 54.0434 135.902Z" fill="white"/>
<path d="M50.418 168.759C49.8279 168.083 49.322 167.323 48.7318 166.647C48.226 165.887 47.7201 165.127 47.2985 164.366C46.877 163.522 46.4554 162.762 46.1182 161.917L45.1065 159.383C44.5163 157.694 44.179 155.92 44.0104 154.062C43.9261 152.288 44.0947 150.43 44.5163 148.656C44.6006 148.403 44.7692 148.234 44.9378 148.318C45.1065 148.403 45.1908 148.572 45.1065 148.825C44.6849 150.514 44.6006 152.288 44.6849 153.977C44.7692 155.667 45.1908 157.44 45.7809 159.045L46.7084 161.495C47.0456 162.255 47.4672 163.099 47.8887 163.86C48.3103 164.62 48.8161 165.38 49.2377 166.14C49.7436 166.816 50.2494 167.576 50.8396 168.252C51.0082 168.421 51.0082 168.674 50.8396 168.759C50.8396 169.012 50.5867 168.927 50.418 168.759Z" fill="white"/>
<path d="M51.6827 169.35C51.8513 169.434 51.9356 169.519 52.1043 169.688C52.1886 169.772 52.3572 169.941 52.4415 170.11C52.5258 170.363 52.4415 170.617 52.1886 170.617C52.1043 170.617 52.02 170.617 51.9356 170.617C51.767 170.532 51.5984 170.448 51.4298 170.279C51.3455 170.11 51.1768 170.026 51.0925 169.857C51.0082 169.603 51.0925 169.35 51.3455 169.35C51.5141 169.265 51.5984 169.265 51.6827 169.35Z" fill="white"/>
<path d="M53.116 170.701C53.2847 170.786 53.4533 170.87 53.5376 170.955C53.7062 171.039 53.7905 171.208 53.8748 171.377C53.9592 171.63 53.9592 171.884 53.7062 171.884C53.6219 171.884 53.5376 171.884 53.4533 171.884C53.2847 171.799 53.116 171.715 52.9474 171.63C52.7788 171.546 52.6945 171.377 52.6102 171.208C52.5259 170.955 52.6102 170.701 52.7788 170.701C52.9474 170.617 53.0317 170.701 53.116 170.701Z" fill="white"/>
<path d="M54.718 171.968C55.3081 172.306 55.9826 172.644 56.5728 173.066C57.163 173.404 57.8375 173.742 58.4276 174.08C58.5963 174.164 58.7649 174.418 58.5963 174.587C58.5119 174.671 58.3433 174.756 58.1747 174.671C57.5002 174.418 56.8257 174.08 56.1512 173.742C55.5611 173.404 54.8866 172.982 54.3807 172.475C54.2121 172.306 54.1278 172.053 54.2964 171.968C54.2964 171.799 54.5493 171.799 54.718 171.968Z" fill="white"/>
<path d="M60.0295 174.671C60.1139 174.671 60.2825 174.671 60.3668 174.671C60.4511 174.671 60.5354 174.755 60.6197 174.84C60.7883 175.093 60.704 175.347 60.4511 175.431C60.2825 175.431 60.1982 175.431 60.1139 175.431C60.0295 175.347 59.9452 175.347 59.8609 175.262C59.6923 175.093 59.7766 174.84 60.0295 174.671Z" fill="white"/>
<path d="M62.1372 175.262C62.2216 175.178 62.3902 175.262 62.4745 175.262C62.5588 175.262 62.6431 175.347 62.7274 175.431C62.896 175.6 62.896 175.938 62.6431 176.107C62.5588 176.191 62.3902 176.191 62.3059 176.107C62.2216 176.107 62.0529 176.022 61.9686 175.938C61.8 175.685 61.8 175.347 62.1372 175.262Z" fill="white"/>
<path d="M248.212 26.6906C224.52 30.5759 206.141 41.3028 192.988 59.0402C180.763 75.2572 183.377 96.0353 193.831 112.168C203.443 127.54 221.823 132.946 239.359 136.831C288.428 148.403 333.113 163.015 379.484 177.627C399.635 183.793 423.326 193 440.778 179.148C442.465 177.796 443.223 175.685 442.802 173.742C440.02 160.143 422.567 151.95 414.305 139.365C403.682 123.064 453.257 84.0415 437.912 66.3885C422.567 48.7356 391.288 63.2634 369.451 57.6043C366.838 56.9286 364.055 55.4927 361.02 53.55C322.153 44.8503 291.295 20.0179 248.212 26.6906Z" fill="#FFBE57"/>
<path d="M422.146 189.79C401.489 189.79 366.079 181.85 331.764 174.164C298.04 166.647 266.17 159.468 246.526 159.13C246.02 159.13 245.514 159.13 245.008 159.13C228.82 159.13 205.045 163.015 179.836 167.154C150.748 171.884 117.783 177.289 92.2363 177.289C67.0273 177.289 52.7787 172.222 48.5632 161.748C42.0712 145.615 51.5984 139.872 64.8352 131.932C75.4584 125.513 87.4306 118.334 88.9482 104.144C90.0442 94.0926 89.0325 85.9841 88.2737 79.4803C86.8404 67.3176 86.1659 61.2362 97.8852 53.9723C102.944 50.8471 109.183 49.4957 118.879 49.4957C122.588 49.4957 126.298 49.6646 130.261 49.8335C134.308 50.0025 138.439 50.2559 142.57 50.2559C152.687 50.2559 165.587 49.1578 176.294 40.627C178.402 38.9377 180.341 37.3329 182.281 35.8126C200.998 20.6935 214.487 9.71325 259.51 4.2231C261.87 3.96971 264.231 3.80078 266.676 3.80078C295.257 3.80078 319.539 24.5789 339.099 41.2182C350.818 51.185 360.008 59.0401 368.439 61.2362C372.486 62.3342 377.124 62.841 382.688 62.841C387.831 62.841 393.143 62.4187 398.201 61.9963C403.26 61.574 408.15 61.1517 412.703 61.1517C423.495 61.1517 429.987 63.4322 434.624 68.7534C440.947 76.0173 431.251 90.883 422.652 103.975C413.293 118.249 404.44 131.763 410.679 141.392C414.305 146.967 419.363 151.528 424.338 156.005C434.708 165.296 442.886 172.728 436.984 186.074C435.888 188.439 430.661 189.79 422.146 189.79Z" stroke="white" stroke-width="0.9735" stroke-miterlimit="10"/>
<path d="M389.77 231.6H126.045C124.275 231.6 122.757 230.164 122.757 228.306V85.3928C122.757 83.6191 124.19 82.0988 126.045 82.0988H389.77C391.541 82.0988 393.058 83.5346 393.058 85.3928V228.39C392.974 230.164 391.541 231.6 389.77 231.6Z" fill="#131E3C"/>
<path d="M385.049 225.941H121.324C119.553 225.941 118.036 224.505 118.036 222.646V79.7338C118.036 77.96 119.469 76.4397 121.324 76.4397H385.049C386.819 76.4397 388.337 77.8756 388.337 79.7338V222.731C388.253 224.505 386.819 225.941 385.049 225.941Z" fill="#9D68AA"/>
<path d="M381.761 220.282H115.169C114.157 220.282 113.398 219.437 113.398 218.508V72.6389C113.398 71.6253 114.242 70.8651 115.169 70.8651H381.761C382.772 70.8651 383.531 71.7097 383.531 72.6389V218.508C383.531 219.521 382.772 220.282 381.761 220.282Z" fill="white" stroke="#131E3C" stroke-width="0.9736" stroke-miterlimit="10"/>
<path fill-rule="evenodd" clip-rule="evenodd" d="M128.406 83.6191H145.69V82.6055H128.406V83.6191ZM124.359 84.1259H126.382V82.0988H124.359V84.1259ZM128.406 89.2782H145.69V88.2646H128.406V89.2782ZM124.359 89.785H126.382V87.7578H124.359V89.785ZM128.406 94.8528H145.69V93.8392H128.406V94.8528ZM124.359 95.3596H126.382V93.3324H124.359V95.3596Z" fill="#131E3C"/>
<path fill-rule="evenodd" clip-rule="evenodd" d="M188.351 178.894H137.09C130.092 178.894 124.359 173.151 124.359 166.14V117.151C124.359 110.141 130.092 104.397 137.09 104.397H188.351C195.349 104.397 201.082 110.141 201.082 117.151V166.14C201.082 173.151 195.433 178.894 188.351 178.894Z" fill="white" stroke="#131E3C" stroke-width="1.0244" stroke-miterlimit="10"/>
<path fill-rule="evenodd" clip-rule="evenodd" d="M274.517 178.894H223.256C216.258 178.894 210.525 173.151 210.525 166.14V117.151C210.525 110.141 216.258 104.397 223.256 104.397H274.517C281.515 104.397 287.248 110.141 287.248 117.151V166.14C287.332 173.151 281.599 178.894 274.517 178.894Z" fill="white" stroke="#131E3C" stroke-width="1.0244" stroke-miterlimit="10"/>
<path fill-rule="evenodd" clip-rule="evenodd" d="M360.767 178.894H309.506C302.508 178.894 296.775 173.151 296.775 166.14V117.151C296.775 110.141 302.508 104.397 309.506 104.397H360.767C367.765 104.397 373.498 110.141 373.498 117.151V166.14C373.498 173.151 367.765 178.894 360.767 178.894Z" fill="white" stroke="#131E3C" stroke-width="1.0244" stroke-miterlimit="10"/>
<path d="M354.697 89.7005L353.432 81.0852C353.432 80.8318 353.179 80.6629 352.926 80.6629H350.65V79.5648H352.926C353.685 79.5648 354.36 80.1561 354.444 80.9162L354.613 81.8453L369.198 81.9298L367.681 88.6869L354.697 89.7005ZM354.781 83.0278L355.624 88.6024L366.838 87.8423L367.849 83.1123L354.781 83.0278Z" fill="#131E3C"/>
<path d="M367.934 91.7276L355.371 91.6432C355.118 91.6432 354.865 91.5587 354.697 91.3053C354.528 91.1364 354.444 90.7985 354.528 90.5451L354.781 89.0248L355.793 89.1937L355.54 90.5451L367.934 90.6296V91.7276Z" fill="#131E3C"/>
<path d="M357.058 95.2751C357.849 95.2751 358.491 94.6322 358.491 93.8392C358.491 93.0462 357.849 92.4033 357.058 92.4033C356.266 92.4033 355.624 93.0462 355.624 93.8392C355.624 94.6322 356.266 95.2751 357.058 95.2751Z" stroke="#131E3C" stroke-width="1.265" stroke-miterlimit="10"/>
<path d="M364.645 95.3595C365.437 95.3595 366.079 94.7167 366.079 93.9237C366.079 93.1307 365.437 92.4878 364.645 92.4878C363.854 92.4878 363.212 93.1307 363.212 93.9237C363.212 94.7167 363.854 95.3595 364.645 95.3595Z" stroke="#131E3C" stroke-width="1.265" stroke-miterlimit="10"/>
<path d="M210.188 184.047H287.332" stroke="#131E3C" stroke-width="1.0244" stroke-miterlimit="10" stroke-linecap="round" stroke-linejoin="round"/>
<path opacity="0.7" d="M250.657 153.555C266.209 153.555 278.817 152.685 278.817 151.612C278.817 150.54 266.209 149.67 250.657 149.67C235.105 149.67 222.497 150.54 222.497 151.612C222.497 152.685 235.105 153.555 250.657 153.555Z" fill="#A1ABAD"/>
<path d="M228.23 131.764C228.23 131.764 228.82 130.328 233.71 132.186C236.408 133.199 239.865 135.649 246.61 132.693C246.61 132.693 248.633 139.534 240.034 138.943C231.434 138.352 228.23 131.764 228.23 131.764Z" fill="#DD4026"/>
<path d="M276.288 142.744L278.311 143.251C279.407 143.842 279.407 146.883 278.48 147.812C278.48 147.812 270.386 152.542 246.779 152.964C233.205 152.711 224.099 150.346 223.677 149.416C223.256 148.487 223.256 146.46 223.34 144.94L225.87 141.984L276.288 142.744Z" fill="#E2E2E2"/>
<path d="M228.23 131.763C228.23 131.763 225.532 134.297 225.279 136.409C224.858 139.45 224.352 140.97 224.605 144.011C224.605 144.011 232.277 146.967 245.008 147.136C251.332 147.22 260.353 146.798 267.013 145.616C272.662 144.602 278.227 143.251 278.227 143.251C276.625 137.507 271.65 139.703 264.653 137.423C259.847 135.902 248.549 126.527 248.549 126.527C248.549 126.527 245.936 128.469 245.767 129.483C245.683 130.159 246.947 131.763 246.947 131.763C246.947 131.763 246.61 137.169 241.299 137.507C235.987 137.929 228.23 131.763 228.23 131.763Z" fill="#FD6141"/>
<path d="M246.947 131.848C246.947 131.848 249.645 131.848 250.657 132.186C252.933 132.946 259.51 138.267 264.4 138.858" stroke="#EFE9DA" stroke-width="1.1573" stroke-miterlimit="10" stroke-linecap="round"/>
<path d="M255.041 131.679L252.849 135.226C252.512 135.649 251.247 134.72 251.5 134.297L253.523 130.581C254.029 129.905 255.547 131.088 255.041 131.679Z" fill="#E2E2E2"/>
<path d="M258.245 133.537L255.969 137.338C255.716 137.929 254.198 137.338 254.535 136.662L256.812 132.439C257.233 131.848 258.666 132.946 258.245 133.537Z" fill="#E2E2E2"/>
<path d="M261.449 135.395L259.088 139.196C258.835 139.703 257.402 139.027 257.655 138.521L259.931 134.297C260.437 133.706 261.87 134.889 261.449 135.395Z" fill="#E2E2E2"/>
<path d="M248.381 133.622C248.465 132.608 250.067 132.693 250.067 133.706L249.392 140.041C249.392 140.97 248.465 140.97 248.465 140.041L248.381 133.622Z" fill="#E2E2E2"/>
<path d="M242.563 147.22C242.563 147.22 243.322 144.433 246.02 143.166C249.055 141.73 256.222 144.433 260.184 142.237C261.365 141.561 264.4 138.943 264.4 138.943" stroke="#EFE9DA" stroke-width="1.1573" stroke-miterlimit="10" stroke-linecap="round"/>
<path d="M225.954 134.72C225.954 134.72 230.169 136.662 232.193 139.112C233.12 140.21 234.301 146.376 234.301 146.376" stroke="#EFE9DA" stroke-width="1.1573" stroke-miterlimit="10" stroke-linecap="round"/>
<path opacity="0.7" d="M162.215 153.555C177.767 153.555 190.375 152.685 190.375 151.612C190.375 150.54 177.767 149.67 162.215 149.67C146.662 149.67 134.055 150.54 134.055 151.612C134.055 152.685 146.662 153.555 162.215 153.555Z" fill="#A1ABAD"/>
<path d="M139.872 131.764C139.872 131.764 140.462 130.328 145.352 132.186C148.05 133.199 151.507 135.649 158.252 132.693C158.252 132.693 160.275 139.534 151.676 138.943C143.076 138.352 139.872 131.764 139.872 131.764Z" fill="#DD4026"/>
<path d="M187.845 142.744L189.869 143.251C190.965 143.842 190.965 146.883 190.037 147.812C190.037 147.812 181.943 152.542 158.336 152.964C144.762 152.711 135.657 150.346 135.235 149.416C134.814 148.487 134.814 146.46 134.898 144.94L137.427 141.984L187.845 142.744Z" fill="#E2E2E2"/>
<path d="M139.872 131.763C139.872 131.763 137.174 134.297 136.921 136.409C136.5 139.45 135.994 140.97 136.247 144.011C136.247 144.011 143.919 146.967 156.65 147.136C162.973 147.22 171.995 146.798 178.655 145.616C184.304 144.602 189.869 143.251 189.869 143.251C188.267 137.507 183.292 139.703 176.295 137.423C171.489 135.902 160.191 126.527 160.191 126.527C160.191 126.527 157.578 128.469 157.409 129.483C157.325 130.159 158.589 131.763 158.589 131.763C158.589 131.763 158.252 137.169 152.94 137.507C147.629 137.929 139.872 131.763 139.872 131.763Z" fill="#FFD25A"/>
<path d="M158.589 131.848C158.589 131.848 161.287 131.848 162.299 132.186C164.575 132.946 171.152 138.267 176.042 138.858" stroke="#EFE9DA" stroke-width="1.1573" stroke-miterlimit="10"/>
<path d="M166.683 131.679L164.491 135.226C164.154 135.649 162.889 134.72 163.142 134.297L165.166 130.581C165.671 129.905 167.105 131.088 166.683 131.679Z" fill="#E2E2E2"/>
<path d="M169.887 133.537L167.611 137.338C167.358 137.929 165.84 137.338 166.177 136.662L168.454 132.439C168.875 131.848 170.309 132.946 169.887 133.537Z" fill="#E2E2E2"/>
<path d="M173.091 135.395L170.73 139.196C170.477 139.703 169.044 139.027 169.297 138.521L171.573 134.297C172.079 133.706 173.512 134.889 173.091 135.395Z" fill="#E2E2E2"/>
<path d="M160.023 133.622C160.107 132.608 161.709 132.693 161.709 133.706L161.034 140.041C161.034 140.97 160.107 140.97 160.107 140.041L160.023 133.622Z" fill="#E2E2E2"/>
<path d="M154.205 147.22C154.205 147.22 154.964 144.433 157.662 143.166C160.697 141.73 167.864 144.433 171.826 142.237C173.006 141.561 176.042 138.943 176.042 138.943" stroke="#EFE9DA" stroke-width="1.1573" stroke-miterlimit="10"/>
<path d="M137.596 134.72C137.596 134.72 141.811 136.662 143.835 139.112C144.762 140.21 145.943 146.376 145.943 146.376" stroke="#EFE9DA" stroke-width="1.1573" stroke-miterlimit="10"/>
<path opacity="0.7" d="M334.968 153.555C350.52 153.555 363.128 152.685 363.128 151.612C363.128 150.54 350.52 149.67 334.968 149.67C319.416 149.67 306.808 150.54 306.808 151.612C306.808 152.685 319.416 153.555 334.968 153.555Z" fill="#A1ABAD"/>
<path d="M312.541 131.764C312.541 131.764 313.132 130.328 318.022 132.186C320.72 133.199 324.176 135.649 330.921 132.693C330.921 132.693 332.945 139.534 324.345 138.943C315.745 138.352 312.541 131.764 312.541 131.764Z" fill="#3C8460"/>
<path d="M360.599 142.744L362.622 143.251C363.718 143.842 363.718 146.883 362.791 147.812C362.791 147.812 354.697 152.542 331.09 152.964C317.516 152.711 308.41 150.346 307.989 149.416C307.567 148.487 307.567 146.46 307.651 144.94L310.181 141.984L360.599 142.744Z" fill="#E2E2E2"/>
<path d="M312.541 131.763C312.541 131.763 309.843 134.297 309.59 136.409C309.169 139.45 308.663 140.97 308.916 144.011C308.916 144.011 316.588 146.967 329.319 147.136C335.643 147.22 344.664 146.798 351.324 145.616C356.973 144.602 362.538 143.251 362.538 143.251C360.936 137.507 355.962 139.703 348.964 137.423C344.158 135.902 332.86 126.527 332.86 126.527C332.86 126.527 330.247 128.469 330.078 129.483C329.994 130.159 331.258 131.763 331.258 131.763C331.258 131.763 330.921 137.169 325.61 137.507C320.382 137.929 312.541 131.763 312.541 131.763Z" fill="#71BF9D"/>
<path d="M331.258 131.848C331.258 131.848 333.956 131.848 334.968 132.186C337.244 132.946 343.821 138.267 348.711 138.858" stroke="#EFE9DA" stroke-width="1.1573" stroke-miterlimit="10"/>
<path d="M339.437 131.679L337.244 135.226C336.907 135.649 335.643 134.72 335.895 134.297L337.919 130.581C338.341 129.905 339.858 131.088 339.437 131.679Z" fill="#E2E2E2"/>
<path d="M342.64 133.537L340.364 137.338C340.111 137.929 338.593 137.338 338.931 136.662L341.207 132.439C341.544 131.848 343.062 132.946 342.64 133.537Z" fill="#E2E2E2"/>
<path d="M345.76 135.395L343.399 139.196C343.146 139.703 341.713 139.027 341.966 138.521L344.242 134.297C344.748 133.706 346.266 134.889 345.76 135.395Z" fill="#E2E2E2"/>
<path d="M332.776 133.622C332.86 132.608 334.462 132.693 334.462 133.706L333.788 140.041C333.788 140.97 332.86 140.97 332.86 140.041L332.776 133.622Z" fill="#E2E2E2"/>
<path d="M326.958 147.22C326.958 147.22 327.717 144.433 330.415 143.166C333.45 141.73 340.617 144.433 344.579 142.237C345.76 141.561 348.795 138.943 348.795 138.943" stroke="#EFE9DA" stroke-width="1.1573" stroke-miterlimit="10"/>
<path d="M310.265 134.72C310.265 134.72 314.48 136.662 316.504 139.112C317.431 140.21 318.612 146.376 318.612 146.376" stroke="#EFE9DA" stroke-width="1.1573" stroke-miterlimit="10"/>
<path d="M218.872 118.08V118.165C218.872 118.587 218.787 118.756 218.534 118.756H216.089C215.836 118.756 215.752 118.587 215.752 118.165V118.08C215.752 117.658 215.836 117.489 216.089 117.489H218.534C218.787 117.489 218.872 117.658 218.872 118.08Z" fill="#131E3C"/>
<path d="M224.52 114.702C224.52 116.476 223.593 116.813 222.75 116.813C221.907 116.813 220.979 116.476 220.979 114.702C220.979 112.928 221.907 112.59 222.75 112.59C223.593 112.59 224.52 112.928 224.52 114.702ZM222.16 114.702C222.16 115.209 222.244 115.8 222.75 115.8C223.256 115.8 223.34 115.209 223.34 114.702C223.34 114.195 223.256 113.688 222.75 113.688C222.244 113.688 222.16 114.195 222.16 114.702ZM227.893 112.844C227.893 112.844 227.893 112.928 227.809 113.013L223.509 121.121C223.424 121.374 223.256 121.459 223.003 121.459H222.497C222.328 121.459 222.244 121.374 222.244 121.29C222.244 121.206 222.244 121.206 222.328 121.121L226.628 113.013C226.713 112.759 226.881 112.675 227.134 112.675H227.64C227.809 112.675 227.893 112.759 227.893 112.844ZM229.158 119.432C229.158 121.206 228.23 121.543 227.387 121.543C226.544 121.543 225.616 121.206 225.616 119.432C225.616 117.658 226.544 117.32 227.387 117.32C228.23 117.32 229.158 117.742 229.158 119.432ZM226.797 119.432C226.797 119.939 226.881 120.53 227.387 120.53C227.893 120.53 227.977 119.939 227.977 119.432C227.977 118.925 227.893 118.418 227.387 118.418C226.881 118.418 226.797 118.925 226.797 119.432Z" fill="#131E3C"/>
<path d="M270.048 158.961V159.805C271.229 159.805 273.337 160.312 273.337 160.988C273.337 161.326 272.915 162.086 272.662 162.086C272.325 162.086 271.65 161.326 270.048 161.326V166.14C271.903 166.816 274.011 167.576 274.011 170.363C274.011 172.728 272.493 174.164 270.048 174.418V175.431C270.048 175.685 269.964 175.769 269.627 175.769C269.374 175.769 269.205 175.685 269.205 175.431V174.418C266.845 174.333 265.158 173.489 265.158 172.897C265.158 172.56 265.664 171.799 265.917 171.799C266.17 171.799 267.266 172.897 269.29 172.897V167.576C267.519 166.9 265.496 166.14 265.496 163.522C265.496 161.495 267.013 160.059 269.29 159.89V159.045C269.29 158.792 269.374 158.707 269.711 158.707C269.88 158.623 270.048 158.707 270.048 158.961ZM267.266 163.522C267.266 164.704 268.109 165.211 269.205 165.718V161.326C268.025 161.495 267.266 162.255 267.266 163.522ZM270.048 172.813C271.229 172.56 272.072 171.63 272.072 170.279C272.072 169.012 271.144 168.336 270.048 167.83V172.813Z" fill="#FD6141"/>
<path d="M260.774 175.009H227.893C226.038 175.009 224.605 173.489 224.605 171.715V171.208C224.605 169.35 226.122 167.914 227.893 167.914H260.774C262.629 167.914 264.062 169.434 264.062 171.208V171.715C264.062 173.489 262.629 175.009 260.774 175.009Z" fill="#FD6141"/>
<path opacity="0.2" d="M501.061 330H1.93915C0.08431 330 -0.758801 327.635 0.674488 326.453L75.4584 266.652C77.0603 265.385 79.0838 264.625 81.1916 264.625H421.724C423.832 264.625 425.855 265.301 427.457 266.652L502.241 326.453C503.759 327.635 502.916 330 501.061 330Z" fill="#131E3C"/>
<path d="M499.122 305.506H3.87828L80.6857 244.016C82.2033 242.749 84.2268 242.073 86.2502 242.073H416.75C418.773 242.073 420.797 242.749 422.314 244.016L499.122 305.506Z" fill="#E4BCE8"/>
<path d="M450.053 300.015H52.9474L108.846 247.648H394.154L450.053 300.015Z" fill="#9D68AA"/>
<path d="M445.163 300.015H57.8374L112.387 249.844H390.613L445.163 300.015Z" fill="white"/>
<path d="M487.065 321.976H15.9348C9.27419 321.976 3.87828 316.57 3.87828 309.898V305.505H499.122V309.898C499.122 316.57 493.726 321.976 487.065 321.976Z" fill="#9D68AA"/>
<path d="M3.87828 311.925H499.122" stroke="white" stroke-width="0.9734" stroke-miterlimit="10"/>
<path d="M170.308 316.739H102.522C100.33 316.739 98.4754 314.965 98.4754 312.685V312.094C98.4754 309.898 100.246 308.039 102.522 308.039H170.308C172.5 308.039 174.355 309.813 174.355 312.094V312.685C174.355 314.965 172.5 316.739 170.308 316.739Z" fill="#131E3C"/>
<path d="M170.73 316.739H102.101C100.162 316.739 98.5596 315.134 98.5596 313.192V312.685C98.5596 310.742 100.162 309.137 102.101 309.137H170.73C172.669 309.137 174.271 310.742 174.271 312.685V313.192C174.355 315.134 172.753 316.739 170.73 316.739Z" fill="#E4BCE8"/>
<path d="M413.377 257.277L441.537 282.193H456.629V280.166L413.377 255.25V257.277Z" fill="#9D68AA"/>
<path d="M413.377 255.25L441.537 280.166H456.629L425.349 255.25H413.377Z" fill="#FDEEFF"/>
<path d="M69.7252 272.311C76.2441 272.311 81.5288 270.005 81.5288 267.159C81.5288 264.313 76.2441 262.007 69.7252 262.007C63.2063 262.007 57.9217 264.313 57.9217 267.159C57.9217 270.005 63.2063 272.311 69.7252 272.311Z" fill="white"/>
<path d="M69.7252 269.946C74.2885 269.946 77.9877 268.509 77.9877 266.737C77.9877 264.964 74.2885 263.527 69.7252 263.527C65.162 263.527 61.4628 264.964 61.4628 266.737C61.4628 268.509 65.162 269.946 69.7252 269.946Z" fill="#131E3C"/>
<path d="M67.7861 267.159C69.3693 267.159 70.6527 266.667 70.6527 266.061C70.6527 265.454 69.3693 264.963 67.7861 264.963C66.2029 264.963 64.9195 265.454 64.9195 266.061C64.9195 266.667 66.2029 267.159 67.7861 267.159Z" fill="white"/>
<path d="M401.068 57.7732H128.237C121.998 57.7732 116.939 52.7054 116.939 46.4551V44.7658C116.939 38.5155 121.998 33.4476 128.237 33.4476H401.068C407.307 33.4476 412.366 38.5155 412.366 44.7658V46.4551C412.366 52.7054 407.307 57.7732 401.068 57.7732Z" fill="#E4BCE8"/>
<path d="M72.5919 57.7732C79.2971 57.7732 84.7327 52.3277 84.7327 45.6104C84.7327 38.8931 79.2971 33.4476 72.5919 33.4476C65.8867 33.4476 60.4511 38.8931 60.4511 45.6104C60.4511 52.3277 65.8867 57.7732 72.5919 57.7732Z" fill="#E4BCE8"/>
<path d="M100.836 57.7732C107.541 57.7732 112.977 52.3277 112.977 45.6104C112.977 38.8931 107.541 33.4476 100.836 33.4476C94.1309 33.4476 88.6953 38.8931 88.6953 45.6104C88.6953 52.3277 94.1309 57.7732 100.836 57.7732Z" fill="#E4BCE8"/>
<path d="M429.144 32.8563L433.191 41.4716L442.549 42.6541L435.636 49.0734L437.406 58.3644L429.144 53.8033L420.881 58.3644L422.652 49.0734L415.738 42.6541L425.181 41.4716L429.144 32.8563Z" fill="#E4BCE8"/>
<path d="M401.068 53.5499H128.237C121.998 53.5499 116.939 48.4821 116.939 42.2318V40.5425C116.939 34.2922 121.998 29.2244 128.237 29.2244H401.068C407.307 29.2244 412.366 34.2922 412.366 40.5425V42.2318C412.366 48.4821 407.307 53.5499 401.068 53.5499Z" fill="white" stroke="#131E3C" stroke-width="0.9736" stroke-miterlimit="10"/>
<path d="M188.267 36.995V37.4173C189.363 37.4173 190.375 37.8397 190.375 38.262C190.375 38.5998 190.037 39.2756 189.784 39.2756C189.616 39.2756 189.194 38.9377 188.267 38.8532V41.3027C189.447 41.725 190.796 42.3162 190.796 44.09C190.796 45.8637 189.616 46.7928 188.267 46.8773V47.4685C188.267 47.7219 188.182 47.8064 187.93 47.8064C187.677 47.8064 187.592 47.7219 187.592 47.4685V46.8773C185.906 46.7928 184.81 46.2016 184.81 45.7793C184.81 45.4414 185.232 44.7657 185.484 44.7657C185.737 44.7657 186.412 45.4414 187.508 45.4414V42.823C186.328 42.4007 184.979 41.8939 184.979 40.0357C184.979 38.4309 186.159 37.5863 187.508 37.5018V37.0795C187.508 36.8261 187.592 36.7416 187.845 36.7416C188.182 36.6572 188.267 36.7416 188.267 36.995ZM186.749 39.8668C186.749 40.3736 187.086 40.7114 187.677 40.9648V38.9377C187.002 39.0222 186.749 39.4445 186.749 39.8668ZM188.267 45.2725C188.773 45.1036 189.11 44.7657 189.11 44.1745C189.11 43.6677 188.773 43.3298 188.267 43.0764V45.2725Z" fill="#A1ABAD"/>
<path d="M194.843 43.1608V43.2453C194.843 43.6676 194.759 43.8365 194.506 43.8365H191.892C191.639 43.8365 191.555 43.6676 191.555 43.2453V43.1608C191.555 42.7385 191.639 42.5696 191.892 42.5696H194.506C194.759 42.654 194.843 42.823 194.843 43.1608Z" fill="#A1ABAD"/>
<path d="M199.817 39.6134C199.817 41.4716 198.806 41.8095 197.878 41.8095C196.951 41.8095 195.939 41.3872 195.939 39.6134C195.939 37.7552 196.951 37.4174 197.878 37.4174C198.806 37.4174 199.817 37.7552 199.817 39.6134ZM197.119 39.6134C197.119 40.2047 197.204 40.8804 197.878 40.8804C198.553 40.8804 198.637 40.2047 198.637 39.6134C198.637 39.0222 198.553 38.4309 197.878 38.4309C197.288 38.3465 197.119 39.0222 197.119 39.6134ZM203.527 37.5863C203.527 37.5863 203.527 37.6708 203.443 37.7552L198.637 46.455C198.553 46.7084 198.384 46.7928 198.047 46.7928H197.625C197.457 46.7928 197.372 46.7084 197.372 46.6239C197.372 46.6239 197.372 46.5395 197.457 46.455L202.262 37.7552C202.347 37.5018 202.6 37.4174 202.853 37.4174H203.274C203.358 37.4174 203.527 37.5018 203.527 37.5863ZM204.876 44.6812C204.876 46.5395 203.864 46.8773 202.937 46.8773C202.009 46.8773 200.998 46.5395 200.998 44.6812C200.998 42.823 202.009 42.4852 202.937 42.4852C203.864 42.4852 204.876 42.823 204.876 44.6812ZM202.178 44.6812C202.178 45.2725 202.262 45.9482 202.937 45.9482C203.611 45.9482 203.696 45.2725 203.696 44.6812C203.696 44.1745 203.611 43.4988 202.937 43.4988C202.347 43.4143 202.178 44.09 202.178 44.6812Z" fill="#A1ABAD"/>
<path d="M176.379 47.8064H152.603C149.568 47.8064 147.039 45.2725 147.039 42.2318C147.039 39.1911 149.568 36.6572 152.603 36.6572H176.379C179.414 36.6572 181.943 39.1911 181.943 42.2318C181.943 45.2725 179.414 47.8064 176.379 47.8064Z" fill="#A1ABAD"/>
<path d="M72.5919 53.5499C79.2971 53.5499 84.7327 48.1045 84.7327 41.3872C84.7327 34.6698 79.2971 29.2244 72.5919 29.2244C65.8867 29.2244 60.4511 34.6698 60.4511 41.3872C60.4511 48.1045 65.8867 53.5499 72.5919 53.5499Z" fill="white" stroke="#131E3C" stroke-width="0.9736" stroke-miterlimit="10"/>
<path d="M100.836 53.5499C107.541 53.5499 112.977 48.1045 112.977 41.3872C112.977 34.6698 107.541 29.2244 100.836 29.2244C94.1309 29.2244 88.6953 34.6698 88.6953 41.3872C88.6953 48.1045 94.1309 53.5499 100.836 53.5499Z" fill="white" stroke="#131E3C" stroke-width="0.9736" stroke-miterlimit="10"/>
<path d="M429.144 28.6332L433.191 37.2485L442.549 38.431L435.636 44.8502L437.406 54.1412L429.144 49.5802L420.881 54.1412L422.652 44.8502L415.738 38.431L425.181 37.2485L429.144 28.6332Z" fill="#FFCC5A" stroke="#131E3C" stroke-width="0.9736" stroke-miterlimit="10"/>
<path d="M74.1095 34.0388L66.4372 41.6406L74.1095 49.4112L75.5428 47.8909L69.3881 41.6406L75.5428 35.4747L74.1095 34.0388Z" fill="#131E3C"/>
<path d="M99.7401 49.4112L107.412 41.8095L99.7401 34.0388L98.3068 35.4747L104.461 41.8095L98.3068 47.8909L99.7401 49.4112Z" fill="#131E3C"/>
<path d="M141.896 48.3978L137.006 43.5833C137.68 42.5698 138.017 41.3028 138.017 40.1203C138.017 36.6573 135.151 33.7855 131.61 33.7855C129.923 33.7855 128.322 34.4612 127.141 35.6437C125.961 36.8262 125.286 38.431 125.286 40.1203C125.286 43.5833 128.153 46.4551 131.694 46.4551C132.959 46.4551 134.139 46.1172 135.235 45.4415L140.125 50.256L141.896 48.3978ZM136.162 40.1203C136.162 41.3028 135.657 42.4008 134.898 43.2455C134.055 44.0901 132.959 44.5124 131.778 44.5124C129.333 44.5124 127.31 42.4853 127.31 40.0358C127.31 38.8534 127.816 37.7553 128.574 36.9107C129.418 36.066 130.514 35.6437 131.694 35.6437C134.139 35.6437 136.162 37.6709 136.162 40.1203Z" fill="#131E3C"/>
<path fill-rule="evenodd" clip-rule="evenodd" d="M395.925 41.725L393.143 44.5123C392.805 44.8502 392.805 45.357 393.143 45.6948C393.48 46.0327 393.986 46.0327 394.323 45.6948L397.105 42.9075L399.887 45.6948C400.225 46.0327 400.731 46.0327 401.068 45.6948C401.405 45.357 401.405 44.8502 401.068 44.5123L398.286 41.725L401.068 38.9377C401.405 38.5999 401.405 38.0931 401.068 37.7552C400.731 37.4174 400.225 37.4174 399.887 37.7552L397.105 40.5425L394.323 37.7552C393.986 37.4174 393.48 37.4174 393.143 37.7552C392.805 38.0931 392.805 38.5999 393.143 38.9377L395.925 41.725ZM397.105 50.6782C392.215 50.6782 388.253 46.7084 388.253 41.725C388.253 36.7417 392.215 32.7719 397.105 32.7719C401.995 32.7719 405.958 36.7417 405.958 41.725C406.042 46.6239 401.995 50.6782 397.105 50.6782Z" fill="#9D68AA"/>
<path d="M90.4658 97.8934C90.4658 88.8558 83.1307 81.5074 74.1094 81.5074C65.0882 81.5074 57.7531 88.8558 57.7531 97.8934C57.7531 101.694 56.6571 104.144 74.1094 135.649C91.6461 103.975 90.3815 99.8361 90.4658 97.8934Z" fill="#FD6141"/>
<path d="M74.0252 105.58C78.0297 105.58 81.2759 102.328 81.2759 98.3158C81.2759 94.304 78.0297 91.0519 74.0252 91.0519C70.0207 91.0519 66.7744 94.304 66.7744 98.3158C66.7744 102.328 70.0207 105.58 74.0252 105.58Z" fill="white"/>
<path opacity="0.2" d="M205.635 266.483L198.974 278.055C197.625 280.42 199.48 283.207 202.347 283.207H267.772C270.386 283.207 272.241 280.842 271.397 278.561L267.266 266.99C266.76 265.554 265.327 264.541 263.641 264.541H209.007C207.574 264.541 206.309 265.301 205.635 266.483Z" fill="#131E3C"/>
<path d="M213.223 269.102C216.436 269.102 219.04 266.492 219.04 263.274C219.04 260.055 216.436 257.446 213.223 257.446C210.01 257.446 207.405 260.055 207.405 263.274C207.405 266.492 210.01 269.102 213.223 269.102Z" fill="#131E3C"/>
<path d="M213.223 266.737C215.132 266.737 216.679 265.186 216.679 263.274C216.679 261.361 215.132 259.811 213.223 259.811C211.314 259.811 209.766 261.361 209.766 263.274C209.766 265.186 211.314 266.737 213.223 266.737Z" fill="#131E3C"/>
<path d="M210.946 262.598L212.97 257.361C213.054 257.108 213.307 256.854 213.644 256.854H220.558C221.232 256.854 221.485 257.615 221.064 258.037L214.825 264.794C214.319 265.385 213.476 265.554 212.801 265.301L212.211 265.132C211.115 264.794 210.525 263.611 210.946 262.598Z" fill="#FFDCAE"/>
<path d="M213.223 264.625C213.968 264.625 214.572 264.02 214.572 263.274C214.572 262.527 213.968 261.922 213.223 261.922C212.478 261.922 211.874 262.527 211.874 263.274C211.874 264.02 212.478 264.625 213.223 264.625Z" fill="#131E3C"/>
<path d="M258.498 269.102C261.711 269.102 264.315 266.492 264.315 263.274C264.315 260.055 261.711 257.446 258.498 257.446C255.285 257.446 252.68 260.055 252.68 263.274C252.68 266.492 255.285 269.102 258.498 269.102Z" fill="#131E3C"/>
<path d="M258.498 266.737C260.407 266.737 261.955 265.186 261.955 263.274C261.955 261.361 260.407 259.811 258.498 259.811C256.589 259.811 255.041 261.361 255.041 263.274C255.041 265.186 256.589 266.737 258.498 266.737Z" fill="#131E3C"/>
<path d="M260.774 262.598L258.751 257.361C258.666 257.108 258.414 256.854 258.076 256.854H251.163C250.488 256.854 250.235 257.615 250.657 258.037L256.896 264.794C257.402 265.385 258.245 265.554 258.919 265.301L259.51 265.132C260.606 264.794 261.196 263.611 260.774 262.598Z" fill="#FFDCAE"/>
<path d="M258.498 264.625C259.243 264.625 259.847 264.02 259.847 263.274C259.847 262.527 259.243 261.922 258.498 261.922C257.753 261.922 257.149 262.527 257.149 263.274C257.149 264.02 257.753 264.625 258.498 264.625Z" fill="#131E3C"/>
<path d="M198.047 209.132C197.71 209.132 197.372 208.963 197.288 208.625C195.349 204.064 192.061 196.632 191.471 195.703C190.627 195.027 183.967 192.662 177.981 190.719C177.643 190.635 177.391 190.297 177.391 189.875C177.391 189.452 177.643 189.199 177.981 189.03L188.688 185.567C188.857 185.482 189.025 185.482 189.194 185.567C190.206 185.82 199.227 188.354 201.166 190.128C202.684 191.564 207.237 201.024 208.164 202.966C208.333 203.389 208.164 203.896 207.743 204.149C207.321 204.318 206.815 204.149 206.562 203.727C204.539 199.503 200.998 192.408 199.986 191.479C198.806 190.381 192.735 188.439 189.025 187.341L181.1 189.875C186.58 191.733 192.314 193.76 192.904 194.604C193.578 195.534 198.047 205.923 198.974 207.95C199.143 208.372 198.974 208.879 198.553 209.048C198.215 209.132 198.131 209.132 198.047 209.132Z" fill="#FD6141"/>
<path d="M195.686 204.825L205.382 198.743L280.334 202.46L282.021 207.105L195.686 204.825Z" fill="white" stroke="#FD6141" stroke-width="1.8544" stroke-miterlimit="10" stroke-linecap="round" stroke-linejoin="round"/>
<path d="M195.012 204.909L206.309 242.411C206.647 243.509 207.658 244.269 208.839 244.269L271.566 242.326C272.746 242.326 273.758 241.482 274.011 240.384L282.021 207.19L195.012 204.909Z" fill="#FD6141"/>
<path d="M211.874 220.619C215.921 229.066 224.858 230.755 233.457 230.333C251.753 229.404 267.772 222.224 278.48 207.021L211.79 205.331C210.778 205.331 210.356 211.751 210.272 212.595C210.019 215.383 210.609 218.17 211.874 220.619Z" fill="#FF8976"/>
<path d="M271.397 263.105C270.639 260.064 269.037 256.939 267.941 255.418C267.351 254.574 266.339 253.729 264.062 253.729H212.127C211.284 253.729 209.85 253.56 209.26 252.716C208.67 251.871 209.007 250.52 209.429 249.506C210.946 245.536 212.295 243.087 212.38 243.087L210.356 243.256C210.272 243.34 209.429 244.86 207.911 248.915C207.152 250.942 207.152 252.547 207.995 253.729C208.839 254.912 210.272 255.503 212.295 255.503H215.078V256.685C215.078 257.446 215.668 258.037 216.427 258.037H217.438C218.197 258.037 218.787 257.446 218.787 256.685V255.503H252.933V256.685C252.933 257.446 253.523 258.037 254.282 258.037H255.294C256.053 258.037 256.643 257.446 256.643 256.685V255.503H264.231C265.833 255.503 266.339 256.01 266.676 256.516C267.772 257.952 269.205 260.909 269.88 263.611C270.048 264.203 269.964 264.709 269.796 264.963C269.29 265.554 268.109 265.639 267.772 265.639C255.716 265.892 229.748 265.723 215.836 265.639C211.705 265.639 208.586 265.639 207.068 265.639C204.96 265.639 203.358 265.047 202.6 263.949C201.925 262.851 201.925 261.331 202.684 259.473C204.37 255.334 209.26 243.002 209.26 243.002L207.658 242.327C207.658 242.327 202.768 254.658 201.082 258.797C199.817 261.838 200.492 263.78 201.166 264.878C202.262 266.483 204.286 267.328 206.984 267.328C207.995 267.328 209.682 267.328 211.874 267.328V268.426C211.874 269.186 212.464 269.777 213.223 269.777H214.234C214.993 269.777 215.583 269.186 215.583 268.426V267.581C215.668 267.497 215.752 267.412 215.836 267.328C223.762 267.412 235.65 267.412 246.61 267.412C249.561 267.412 252.512 267.412 255.21 267.412V268.426C255.21 269.186 255.8 269.777 256.559 269.777H257.57C258.329 269.777 258.919 269.186 258.919 268.426V267.412C262.376 267.412 265.411 267.328 267.941 267.328C268.784 267.328 270.386 267.074 271.313 265.976C271.566 265.216 271.735 264.203 271.397 263.105Z" fill="#FD6141"/>
<path d="M279.491 206.429L271.735 238.526C271.482 239.37 270.723 240.046 269.796 240.046L240.54 240.975C242.816 238.526 245.092 236.076 247.284 233.542C247.453 233.373 247.537 233.12 247.369 233.036C247.284 232.951 247.032 232.951 246.863 233.204C244.418 235.738 242.057 238.188 239.696 240.722C239.612 240.806 239.528 240.891 239.528 240.975L213.644 241.735C216.089 239.117 218.45 236.499 220.811 233.88C220.979 233.711 221.064 233.458 220.979 233.373C220.895 233.289 220.642 233.373 220.474 233.542C217.944 236.161 215.415 238.779 212.97 241.482C212.886 241.566 212.801 241.735 212.717 241.904L210.356 241.989C209.429 241.989 208.586 241.397 208.333 240.553L203.19 223.491C204.539 222.055 205.803 220.535 207.152 219.099C207.237 219.015 207.237 218.846 207.152 218.761C207.068 218.677 206.899 218.677 206.731 218.761C205.466 220.028 204.202 221.38 202.937 222.647L197.372 204.318L196.529 204.571L207.49 240.806C207.827 241.989 209.007 242.833 210.272 242.833H210.356L269.796 240.975C271.06 240.975 272.241 240.046 272.493 238.779L280.25 206.683L279.491 206.429Z" fill="white"/>
<path d="M207.827 218.339C208.08 218.17 208.248 218.001 208.417 217.832C208.586 217.663 208.754 217.41 208.923 217.156C209.007 217.072 209.007 216.903 208.923 216.818C208.839 216.649 208.67 216.649 208.501 216.734C208.248 216.903 208.08 217.072 207.911 217.241C207.743 217.41 207.574 217.663 207.405 217.916C207.321 218.001 207.321 218.17 207.405 218.254C207.49 218.339 207.743 218.423 207.827 218.339Z" fill="white"/>
<path d="M209.429 216.65C209.513 216.65 209.597 216.565 209.597 216.565C209.597 216.481 209.682 216.481 209.682 216.312C209.682 216.058 209.429 215.889 209.26 215.889C209.176 215.889 209.092 215.974 209.092 215.974C209.092 216.058 209.007 216.058 209.007 216.227C209.007 216.481 209.26 216.65 209.429 216.65Z" fill="white"/>
<path d="M216.595 208.879C218.366 207.105 220.052 205.331 221.738 203.473C221.907 203.304 221.907 203.051 221.738 202.966C221.57 202.797 221.317 202.797 221.148 202.966C219.462 204.825 217.776 206.683 216.089 208.541C216.005 208.625 216.005 208.794 216.089 208.879C216.342 208.963 216.511 208.963 216.595 208.879Z" fill="white"/>
<path d="M215.752 209.892C215.836 209.892 215.921 209.808 215.921 209.808C215.921 209.723 216.005 209.723 216.005 209.555C216.005 209.301 215.752 209.132 215.583 209.132C215.499 209.132 215.415 209.217 215.415 209.217C215.415 209.301 215.331 209.301 215.331 209.47C215.331 209.723 215.499 209.892 215.752 209.892Z" fill="white"/>
<path d="M214.74 210.906C214.825 210.906 214.909 210.821 214.909 210.821C214.909 210.737 214.993 210.737 214.993 210.568C214.993 210.315 214.74 210.146 214.572 210.146C214.488 210.146 214.403 210.23 214.403 210.23C214.403 210.315 214.319 210.315 214.319 210.484C214.319 210.737 214.572 210.906 214.74 210.906Z" fill="white"/>
<path d="M213.813 211.92C213.897 211.92 213.982 211.835 213.982 211.835C213.982 211.751 214.066 211.751 214.066 211.582C214.066 211.328 213.813 211.159 213.644 211.159C213.56 211.159 213.476 211.244 213.476 211.244C213.476 211.328 213.391 211.328 213.391 211.497C213.391 211.751 213.56 211.92 213.813 211.92Z" fill="white"/>
<path d="M210.525 215.467C210.946 215.129 211.368 214.707 211.79 214.285C212.211 213.862 212.548 213.44 212.886 212.933C212.97 212.849 212.97 212.68 212.886 212.595C212.801 212.426 212.548 212.426 212.464 212.595C212.042 212.933 211.621 213.356 211.199 213.778C210.778 214.2 210.441 214.622 210.103 215.129C210.019 215.214 210.019 215.383 210.103 215.467C210.272 215.552 210.441 215.552 210.525 215.467Z" fill="white"/>
<path d="M221.57 232.698C221.654 232.866 221.907 232.866 222.16 232.698C222.497 232.36 222.834 232.022 223.172 231.684C223.509 231.346 223.846 231.008 224.099 230.586C224.183 230.417 224.268 230.248 224.183 230.164C224.099 229.995 223.846 229.995 223.593 230.164C223.256 230.502 222.919 230.839 222.581 231.177C222.244 231.515 221.907 231.853 221.654 232.275C221.57 232.36 221.485 232.529 221.57 232.698Z" fill="white"/>
<path d="M225.026 229.572C225.195 229.488 225.279 229.404 225.364 229.319C225.448 229.235 225.532 229.15 225.532 228.981C225.617 228.643 225.448 228.474 225.111 228.559C224.942 228.643 224.858 228.728 224.773 228.812C224.689 228.897 224.605 228.981 224.605 229.15C224.436 229.488 224.689 229.657 225.026 229.572Z" fill="white"/>
<path d="M238.01 215.551C241.13 212.257 244.249 208.963 247.369 205.669C247.622 205.416 247.706 205.078 247.537 204.909C247.369 204.74 247.032 204.909 246.779 205.162C243.743 208.457 240.624 211.835 237.589 215.129C237.42 215.298 237.336 215.551 237.42 215.636C237.589 215.805 237.757 215.805 238.01 215.551Z" fill="white"/>
<path d="M236.324 217.41C236.493 217.325 236.577 217.241 236.661 217.156C236.746 217.072 236.83 216.987 236.83 216.818C236.914 216.481 236.746 216.312 236.408 216.396C236.24 216.481 236.155 216.565 236.071 216.65C235.987 216.734 235.902 216.818 235.902 216.987C235.818 217.325 235.987 217.494 236.324 217.41Z" fill="white"/>
<path d="M234.638 219.268C234.806 219.183 234.891 219.099 234.975 219.014C235.059 218.93 235.144 218.846 235.144 218.677C235.228 218.339 235.059 218.17 234.722 218.254C234.553 218.339 234.469 218.423 234.385 218.508C234.301 218.592 234.216 218.677 234.216 218.846C234.048 219.183 234.301 219.352 234.638 219.268Z" fill="white"/>
<path d="M232.867 221.126C233.036 221.042 233.12 220.957 233.204 220.873C233.289 220.788 233.373 220.704 233.373 220.535C233.457 220.197 233.289 220.028 232.952 220.113C232.783 220.197 232.699 220.281 232.614 220.366C232.53 220.45 232.446 220.535 232.446 220.704C232.361 221.042 232.53 221.211 232.867 221.126Z" fill="white"/>
<path d="M226.966 227.461C227.724 226.701 228.483 225.941 229.158 225.18C229.832 224.42 230.591 223.66 231.265 222.815C231.434 222.646 231.518 222.393 231.434 222.309C231.35 222.14 231.097 222.224 230.844 222.393C230.085 223.153 229.326 223.913 228.652 224.674C227.977 225.434 227.218 226.194 226.544 227.039C226.375 227.207 226.291 227.461 226.375 227.545C226.46 227.714 226.797 227.63 226.966 227.461Z" fill="white"/>
<path d="M248.465 232.36C248.802 232.106 249.139 231.769 249.477 231.431C249.814 231.093 250.067 230.755 250.32 230.333C250.404 230.164 250.488 229.995 250.404 229.91C250.32 229.741 250.067 229.741 249.898 229.91C249.561 230.164 249.224 230.502 248.886 230.839C248.549 231.177 248.296 231.515 248.043 231.938C247.959 232.106 247.875 232.275 247.959 232.36C248.043 232.529 248.296 232.529 248.465 232.36Z" fill="white"/>
<path d="M251.247 229.319C251.416 229.235 251.5 229.15 251.584 229.066C251.669 228.981 251.753 228.897 251.753 228.728C251.837 228.39 251.584 228.221 251.331 228.306C251.163 228.306 251.079 228.475 250.994 228.559C250.91 228.643 250.826 228.728 250.826 228.897C250.741 229.319 250.91 229.488 251.247 229.319Z" fill="white"/>
<path d="M263.641 216.058C266.592 212.933 269.627 209.808 272.578 206.683C272.831 206.429 272.915 206.092 272.746 205.923C272.578 205.754 272.241 205.838 271.988 206.176C269.037 209.301 266.17 212.511 263.219 215.72C263.051 215.889 262.966 216.143 263.135 216.227C263.219 216.312 263.472 216.227 263.641 216.058Z" fill="white"/>
<path d="M262.039 217.748C262.208 217.663 262.292 217.579 262.376 217.494C262.46 217.41 262.545 217.325 262.545 217.156C262.629 216.819 262.376 216.65 262.123 216.734C261.955 216.819 261.87 216.903 261.786 216.987C261.702 217.072 261.617 217.156 261.617 217.325C261.533 217.663 261.786 217.832 262.039 217.748Z" fill="white"/>
<path d="M260.437 219.521C260.606 219.521 260.69 219.352 260.774 219.268C260.859 219.183 260.943 219.099 260.943 218.93C261.027 218.592 260.774 218.423 260.521 218.508C260.353 218.592 260.268 218.677 260.184 218.761C260.1 218.846 260.015 218.93 260.015 219.099C259.931 219.437 260.1 219.606 260.437 219.521Z" fill="white"/>
<path d="M258.751 221.295C258.919 221.295 259.004 221.126 259.088 221.042C259.172 220.957 259.257 220.873 259.257 220.704C259.341 220.366 259.088 220.197 258.835 220.281C258.667 220.366 258.582 220.45 258.498 220.535C258.414 220.619 258.329 220.704 258.329 220.873C258.245 221.211 258.498 221.379 258.751 221.295Z" fill="white"/>
<path d="M253.102 227.376C253.861 226.701 254.535 225.941 255.21 225.18C255.884 224.42 256.559 223.66 257.233 222.9C257.402 222.731 257.402 222.478 257.318 222.393C257.233 222.224 256.98 222.309 256.727 222.478C255.969 223.153 255.294 223.913 254.62 224.674C253.945 225.434 253.271 226.194 252.596 226.954C252.427 227.123 252.427 227.376 252.512 227.461C252.68 227.63 252.933 227.545 253.102 227.376Z" fill="white"/>
<path d="M217.776 265.639L220.811 254.827H253.186L254.957 265.639H217.776Z" fill="#FF8976"/>
<path d="M209.345 283.122C213.116 283.122 216.174 280.059 216.174 276.281C216.174 272.502 213.116 269.439 209.345 269.439C205.573 269.439 202.515 272.502 202.515 276.281C202.515 280.059 205.573 283.122 209.345 283.122Z" fill="#131E3C"/>
<path d="M209.344 280.42C211.626 280.42 213.476 278.567 213.476 276.281C213.476 273.995 211.626 272.142 209.344 272.142C207.063 272.142 205.213 273.995 205.213 276.281C205.213 278.567 207.063 280.42 209.344 280.42Z" fill="#131E3C"/>
<path d="M206.647 275.605L209.007 269.439C209.092 269.102 209.429 268.848 209.766 268.848H217.944C218.703 268.848 219.04 269.693 218.534 270.284L211.199 278.224C210.609 278.899 209.682 279.153 208.839 278.815L208.08 278.562C206.815 278.139 206.141 276.788 206.647 275.605Z" fill="#FFDCAE"/>
<path d="M209.344 277.886C210.229 277.886 210.946 277.167 210.946 276.281C210.946 275.395 210.229 274.676 209.344 274.676C208.46 274.676 207.743 275.395 207.743 276.281C207.743 277.167 208.46 277.886 209.344 277.886Z" fill="#131E3C"/>
<path d="M261.449 283.122C265.22 283.122 268.278 280.059 268.278 276.281C268.278 272.502 265.22 269.439 261.449 269.439C257.677 269.439 254.619 272.502 254.619 276.281C254.619 280.059 257.677 283.122 261.449 283.122Z" fill="#131E3C"/>
<path d="M261.449 280.42C263.73 280.42 265.58 278.567 265.58 276.281C265.58 273.995 263.73 272.142 261.449 272.142C259.167 272.142 257.317 273.995 257.317 276.281C257.317 278.567 259.167 280.42 261.449 280.42Z" fill="#131E3C"/>
<path d="M264.147 275.605L261.786 269.439C261.702 269.102 261.364 268.848 261.027 268.848H252.933C252.175 268.848 251.837 269.693 252.343 270.284L259.678 278.224C260.268 278.899 261.196 279.153 262.039 278.815L262.798 278.562C263.978 278.139 264.653 276.788 264.147 275.605Z" fill="#FFDCAE"/>
<path d="M261.449 277.886C262.333 277.886 263.051 277.167 263.051 276.281C263.051 275.395 262.333 274.676 261.449 274.676C260.564 274.676 259.847 275.395 259.847 276.281C259.847 277.167 260.564 277.886 261.449 277.886Z" fill="#131E3C"/>
<path d="M279.407 219.521C287.928 219.521 294.836 212.601 294.836 204.064C294.836 195.528 287.928 188.608 279.407 188.608C270.886 188.608 263.978 195.528 263.978 204.064C263.978 212.601 270.886 219.521 279.407 219.521Z" fill="#FFD25A"/>
<path d="M282.274 195.871V209.47H284.887C285.393 209.47 285.646 209.808 285.646 210.653V211.075C285.646 211.92 285.393 212.257 284.887 212.257H275.529C275.023 212.257 274.77 211.92 274.77 211.075V210.653C274.77 209.808 275.023 209.47 275.529 209.47H278.733V198.574L275.444 199.081C274.854 199.081 274.686 197.73 274.686 197.054C274.686 196.716 274.939 196.463 275.276 196.378L281.262 195.28C281.683 195.28 282.274 195.534 282.274 195.871Z" fill="#131E3C"/>
<path d="M217.523 192.408V204.656L246.273 205.331V191.141L217.523 192.408Z" fill="#FFBE57"/>
<path d="M246.273 191.141V205.331L259.931 205.838V193.675L246.273 191.141Z" fill="#F99441"/>
<path d="M216.68 190.128L246.947 188.861V192.831L216.68 194.098V190.128Z" fill="#FFD25A"/>
<path d="M246.947 192.831L260.943 195.28V191.479L246.947 188.861V192.831Z" fill="#FFBE57"/>
<path opacity="0.2" d="M151.085 278.561C174.041 278.561 192.651 277.503 192.651 276.197C192.651 274.89 174.041 273.832 151.085 273.832C128.13 273.832 109.52 274.89 109.52 276.197C109.52 277.503 128.13 278.561 151.085 278.561Z" fill="#131E3C"/>
<path d="M171.152 248.746C171.826 255.418 177.475 265.216 179.583 270.706C180.257 272.311 183.292 271.382 182.955 269.693C181.775 263.949 181.016 252.209 180.426 246.212C179.836 239.201 170.561 242.327 171.152 248.746Z" fill="#FFB072"/>
<path d="M179.751 270.622C179.751 270.622 179.077 272.48 180.173 274.93C180.004 275.014 180.089 275.859 180.51 276.028C180.932 276.197 184.051 276.197 184.641 275.69C184.81 275.436 184.641 275.099 184.641 275.099C184.641 275.099 185.4 275.352 187.592 275.014C189.784 274.592 190.965 274 191.808 273.409C192.061 273.24 191.892 272.649 191.555 272.734C191.555 272.734 191.386 271.213 190.122 271.298C187.508 271.467 185.653 270.369 184.304 269.608C183.63 269.186 182.955 268.848 182.534 268.848C181.522 268.848 180.173 269.439 179.751 270.622Z" fill="#ED0C37"/>
<path d="M180.173 274.93C182.028 275.183 184.641 274.845 184.641 274.845C184.641 274.845 189.616 274.761 191.639 272.734C193.578 270.706 195.265 272.902 195.265 272.902L187.086 279.406L181.775 278.984L179.414 276.957C179.33 277.041 179.161 274.845 180.173 274.93Z" fill="#FFAEC1"/>
<path d="M179.33 270.791C179.33 270.791 180.004 272.058 181.522 271.72C182.955 271.382 183.124 270.537 182.786 268.933C182.449 267.328 177.812 268.426 179.33 270.791Z" fill="#FFB072"/>
<path d="M149.315 200.855C149.315 200.855 158.926 218.17 162.13 225.265C165.334 232.36 169.297 249.844 169.297 249.844C169.297 249.844 177.222 251.533 181.353 247.817C181.353 247.817 180.004 229.404 177.812 221.126C175.536 212.849 167.02 192.577 167.02 192.577C163.479 185.145 145.858 193.507 149.315 200.855Z" fill="#552F5E"/>
<path d="M157.156 214.369C157.24 214.285 157.915 211.244 159.854 207.781C161.54 204.825 165.671 202.46 166.093 202.882C166.852 203.473 160.781 208.034 159.601 211.328C159.601 211.328 166.43 206.345 166.852 207.021C167.358 207.612 159.854 211.666 157.156 214.369Z" fill="#131E3C"/>
<path d="M156.144 158.201C157.746 165.549 160.191 175.262 165.587 179.992C170.983 184.722 182.786 187.425 183.292 187.425C184.641 187.763 185.99 180.837 184.979 179.992C183.967 179.232 174.693 175.431 173.006 173.826C170.055 170.955 171.32 153.724 168.032 149.923C164.828 146.207 154.374 149.67 156.144 158.201Z" fill="#DD4026"/>
<path d="M185.737 181.175C185.737 181.175 189.869 184.638 190.121 185.567C190.374 186.496 190.29 188.016 189.953 188.439C189.616 188.861 187.086 190.128 186.159 189.452C185.231 188.777 183.882 187.256 183.882 187.256L184.304 185.567C184.304 185.567 183.967 186.749 181.522 185.145C178.992 183.624 183.377 178.81 185.737 181.175Z" fill="#F29353"/>
<path d="M128.237 243.762C123.263 248.239 118.71 258.628 115.675 263.611C114.747 265.047 117.277 266.99 118.457 265.723C122.42 261.331 131.357 253.729 135.825 249.759C141.052 245.029 133.043 239.455 128.237 243.762Z" fill="#FFB072"/>
<path d="M116.265 263.105C116.265 263.105 114.41 263.527 112.893 265.807C112.724 265.723 112.134 266.23 112.134 266.652C112.218 267.159 113.904 269.693 114.663 269.946C114.916 269.946 115.085 269.608 115.085 269.608C115.085 269.608 115.253 270.453 116.771 272.058C118.288 273.663 119.469 274.338 120.396 274.761C120.649 274.93 121.071 274.423 120.818 274.254C120.818 274.254 121.998 273.24 121.239 272.227C119.637 270.115 119.553 268.003 119.469 266.399C119.469 265.639 119.385 264.878 119.132 264.54C118.71 263.611 117.445 262.851 116.265 263.105Z" fill="#ED0C37"/>
<path d="M112.893 265.808C113.736 267.497 115.338 269.524 115.338 269.524C115.338 269.524 118.12 273.663 120.902 274.254C123.684 274.845 122.757 277.379 122.757 277.379L112.808 274.085L110.279 269.355L110.7 266.23C110.7 266.23 112.387 264.878 112.893 265.808Z" fill="#FFAEC1"/>
<path d="M115.928 262.851C115.928 262.851 115.253 264.118 116.349 265.216C117.445 266.314 118.288 265.892 119.385 264.794C120.481 263.611 117.024 260.233 115.928 262.851Z" fill="#FFB072"/>
<path d="M139.198 194.351C139.198 194.351 140.547 219.69 137.68 226.363C134.813 233.036 127.478 243.847 127.478 243.847C127.478 243.847 129.502 250.182 137.006 251.026C137.006 251.026 148.303 243.087 152.772 231.008C157.24 218.93 160.95 205.669 159.095 195.787C157.999 190.297 140.631 186.243 139.198 194.351Z" fill="#131E3C"/>
<path d="M142.486 194.098C142.486 194.098 142.654 215.214 141.643 223.407C140.715 231.346 128.49 245.959 128.49 245.959" stroke="white" stroke-width="0.4986" stroke-miterlimit="10"/>
<path d="M167.526 150.515C169.465 154.4 166.008 169.181 166.008 175.6C166.008 180.837 166.852 189.621 167.61 192.915C167.779 193.76 167.442 194.689 166.683 195.196C163.648 196.97 159.685 197.899 157.156 198.152C147.629 199.081 142.992 197.392 140.884 196.547C139.703 196.125 139.029 194.942 139.198 193.675C139.703 190.466 141.052 182.526 139.872 175.262C138.354 165.802 135.909 152.88 140.294 148.825C144.762 144.855 153.109 142.322 153.109 142.322C153.109 142.322 165.081 145.7 167.526 150.515Z" fill="white"/>
<path d="M155.048 138.436C155.048 138.436 152.94 138.098 149.989 134.466C148.05 132.101 145.352 121.205 153.868 119.601C162.383 117.996 164.828 123.739 165.25 127.456C165.671 131.172 161.456 134.297 159.517 135.649C157.662 136.916 155.048 138.436 155.048 138.436Z" fill="#131E3C"/>
<path d="M153.025 134.044C153.025 134.044 152.772 137.338 151.76 139.872C150.833 142.406 149.736 143.251 148.556 144.264C147.376 145.362 153.446 151.866 158.842 153.471C158.842 153.471 162.805 148.656 160.95 146.038C159.179 143.335 157.746 143.166 158.336 139.534C158.926 136.409 159.264 134.72 159.264 134.72L153.025 134.044Z" fill="#FFB072"/>
<path fill-rule="evenodd" clip-rule="evenodd" d="M153.025 134.044C153.025 134.044 152.772 136.494 153.699 137.507C154.711 138.521 156.397 141.055 160.36 140.801C165.671 140.379 163.648 131.932 163.648 131.932C163.648 131.932 164.238 128.638 163.648 126.02C163.058 123.317 157.83 121.966 153.53 123.233C153.53 123.233 152.266 124.415 152.772 129.652C152.772 129.652 152.013 128.723 150.748 129.399C149.821 129.905 149.736 131.172 149.989 132.27C150.411 133.622 151.844 134.804 153.025 134.044Z" fill="#FFB072"/>
<path d="M152.603 133.537L152.097 132.27L152.856 131.932C152.856 131.932 152.35 129.567 151.001 130.497C149.989 131.172 151.254 134.044 152.603 133.537Z" fill="#E57E55"/>
<path d="M153.109 131.679C153.109 131.679 152.603 134.973 152.687 136.409C152.772 137.845 154.205 142.406 160.866 141.984C167.442 141.561 165.081 134.382 163.985 133.875C163.985 134.382 163.817 135.142 163.311 135.48C163.058 134.804 162.299 134.297 161.203 134.551C160.275 134.044 159.179 134.382 157.999 135.058L157.156 135.649C155.132 135.142 154.036 133.791 153.783 131.763L153.109 131.679Z" fill="#131E3C"/>
<path d="M158.842 135.818C158.842 135.818 162.299 135.818 162.383 136.071C162.467 136.325 161.962 136.747 160.613 136.747C159.264 136.747 158.842 135.818 158.842 135.818Z" fill="white"/>
<path d="M158.758 135.733C158.926 135.649 158.926 135.733 159.011 135.649H159.095H159.348H159.854H160.866C161.203 135.649 161.54 135.649 161.877 135.733C162.046 135.733 162.215 135.733 162.383 135.818C162.467 135.818 162.467 135.818 162.552 135.902C162.636 135.902 162.636 135.987 162.636 136.071C162.636 136.156 162.552 136.24 162.467 136.324C161.962 136.747 161.203 136.831 160.528 136.831C160.191 136.831 159.854 136.747 159.517 136.578C159.348 136.493 159.264 136.409 159.095 136.324C159.011 136.24 159.011 136.24 158.926 136.156L158.842 136.071V135.987C158.758 135.902 158.758 135.733 158.758 135.733ZM158.926 135.902C158.926 135.902 158.926 135.733 158.926 135.818V135.902L159.011 135.987C159.095 136.071 159.095 136.071 159.179 136.156C159.264 136.24 159.432 136.325 159.517 136.409C159.77 136.578 160.107 136.662 160.444 136.662C161.034 136.662 161.793 136.662 162.299 136.24C162.636 135.902 162.046 135.987 161.793 135.902C161.456 135.902 161.119 135.902 160.781 135.818H159.77H159.264H159.011L158.926 135.902C158.926 135.902 158.842 135.987 158.926 135.902Z" fill="#E57E55"/>
<path d="M159.348 131.51C159.348 131.848 158.926 131.848 158.505 131.763C157.999 131.763 157.662 131.679 157.662 131.341C157.662 131.088 158.083 130.834 158.589 130.919C159.011 130.919 159.348 131.172 159.348 131.51Z" fill="#131E3C"/>
<path d="M156.228 130.074C156.228 130.159 157.577 129.652 157.999 129.652C158.421 129.652 160.022 129.905 160.191 129.736C160.36 129.567 160.444 129.061 160.444 129.061C160.444 129.061 158.252 128.807 157.746 128.976C157.24 129.061 156.313 129.652 156.228 130.074Z" fill="#131E3C"/>
<path d="M163.648 131.848C163.648 132.101 163.226 132.186 162.805 132.101C162.299 132.101 161.962 132.017 161.962 131.679C161.962 131.426 162.383 131.172 162.889 131.257C163.311 131.257 163.648 131.51 163.648 131.848Z" fill="#131E3C"/>
<path d="M164.238 130.75C164.238 130.834 163.648 130.074 163.395 129.99C163.142 129.905 161.709 130.074 161.624 129.905C161.54 129.736 161.54 129.145 161.54 129.145C161.54 129.145 163.395 129.314 163.732 129.483C163.985 129.652 164.238 130.328 164.238 130.75Z" fill="#131E3C"/>
<path opacity="0.5" d="M161.203 134.382C161.203 134.382 160.107 134.382 160.107 134.044C160.107 133.706 162.383 133.453 162.552 133.622C162.72 133.875 161.709 134.213 161.203 134.382Z" fill="#E57E55"/>
<path d="M161.371 129.821C161.371 129.821 161.034 131.172 161.203 131.679C161.371 132.186 162.383 133.284 162.383 133.537C162.383 133.791 161.287 134.382 161.203 134.382C161.119 134.382 162.889 134.128 162.805 133.622C162.72 133.115 161.456 131.763 161.456 131.426C161.371 131.172 161.371 129.821 161.371 129.821Z" fill="#E57E55"/>
<path d="M153.615 132.101C153.952 131.848 154.542 129.905 153.952 127.963C153.446 126.273 154.795 125.006 155.723 124.922C156.819 124.837 160.36 125.767 161.709 125.598C164.744 125.26 167.105 124.331 167.105 123.739C167.105 123.148 164.828 123.739 164.828 123.739C164.828 123.739 168.201 122.895 167.948 120.023C167.948 120.023 165.418 120.192 163.142 119.432C160.866 118.672 155.385 117.742 152.519 119.939C150.58 121.374 149.231 125.935 151.76 128.3C152.856 129.398 152.94 132.524 153.615 132.101Z" fill="#131E3C"/>
<path opacity="0.7" fill-rule="evenodd" clip-rule="evenodd" d="M161.54 150.599C161.54 150.599 160.107 179.485 160.444 182.188C160.781 184.891 160.275 195.365 166.852 197.392C166.852 197.392 163.901 182.357 164.322 173.235C164.659 164.198 161.54 150.599 161.54 150.599Z" fill="#A1ABAD"/>
<path d="M159.432 144.011C159.432 144.011 162.299 153.048 162.13 164.873C161.962 176.698 161.456 200.855 170.224 200.264C170.224 200.264 166.514 185.398 166.767 179.992C167.02 174.587 169.887 154.738 168.875 151.359C167.273 146.46 159.432 144.011 159.432 144.011Z" fill="#FD6141"/>
<path d="M149.399 143.588C149.399 143.588 155.301 152.795 157.156 168.421C158.083 175.854 157.071 187.678 155.891 195.196C154.626 203.896 137.68 203.811 136.584 201.615C135.488 199.334 140.378 184.976 138.86 176.783C137.343 168.59 136.415 155.244 138.27 150.852C140.125 146.376 149.399 143.588 149.399 143.588Z" fill="#FD6141"/>
<path d="M140.968 159.299C140.968 159.299 143.835 173.235 143.497 180.583C143.16 187.932 140.799 202.882 140.799 202.882" stroke="white" stroke-width="0.4986" stroke-miterlimit="10" stroke-linecap="round" stroke-linejoin="round"/>
<path d="M138.945 151.95C138.607 152.795 138.354 154.062 138.186 155.582C139.788 167.745 146.617 181.344 157.071 186.243C157.409 182.273 157.662 178.134 157.577 174.418C150.58 167.407 145.184 158.285 141.052 149.332C140.041 150.092 139.282 150.937 138.945 151.95Z" fill="#DD4026"/>
<path d="M179.92 183.624C179.92 183.624 185.147 184.807 185.737 185.567C186.412 186.327 187.424 188.777 187.339 189.283C187.171 189.79 184.473 190.888 183.292 190.719C182.112 190.55 180.847 189.875 180.847 189.875C181.016 189.283 180.932 188.692 180.341 188.523C179.667 188.354 178.908 188.692 177.728 189.199C175.114 190.466 176.716 182.611 179.92 183.624Z" fill="#FFB072"/>
<path d="M138.102 158.285C139.535 166.056 149.484 177.712 153.699 181.344C157.409 184.553 175.873 189.959 176.716 190.044C178.571 190.466 181.016 183.624 179.583 182.78C178.149 181.935 161.709 174.333 159.938 172.306C158.168 170.363 151.676 152.71 147.039 148.741C142.233 144.771 136.5 149.501 138.102 158.285Z" fill="#FF8976"/>
<path fill-rule="evenodd" clip-rule="evenodd" d="M437.912 145.784C445.5 134.889 453.256 137.254 456.123 141.815C458.99 146.376 456.882 153.217 450.98 158.876C446.68 163.184 438.165 166.14 431.251 167.829C426.446 162.677 420.965 155.413 419.785 149.416C417.93 141.392 420.038 134.551 424.928 132.355C429.902 130.159 437.659 132.524 437.912 145.784Z" fill="#FD6141"/>
<g opacity="0.5">
<path opacity="0.5" fill-rule="evenodd" clip-rule="evenodd" d="M456.123 141.815C453.678 137.929 447.608 135.564 441.2 141.815C446.68 137.507 454.521 137.422 455.196 145.278C455.954 153.555 449.294 159.214 441.622 157.778C431.589 155.92 434.034 147.474 429.312 143.335C425.602 140.21 421.134 144.94 420.965 148.825C420.881 150.599 421.05 152.373 421.387 154.062C423.663 158.876 427.626 163.944 431.251 167.829C438.165 166.225 446.68 163.184 450.98 158.876C456.882 153.302 458.99 146.46 456.123 141.815Z" fill="#DD4026"/>
</g>
<path opacity="0.2" d="M345.507 277.717C368.463 277.717 387.072 276.658 387.072 275.352C387.072 274.046 368.463 272.987 345.507 272.987C322.551 272.987 303.941 274.046 303.941 275.352C303.941 276.658 322.551 277.717 345.507 277.717Z" fill="#131E3C"/>
<path d="M353.179 265.976C353.179 265.976 354.865 267.497 355.203 267.919C355.456 268.341 356.636 271.466 356.636 271.466C356.383 271.889 355.624 272.564 354.865 272.649L353.432 270.875C353.432 270.875 352.758 274 351.999 275.014C351.156 276.281 346.097 277.717 345.338 277.294C345.338 277.294 344.411 275.436 346.013 274.423C348.879 272.564 348.964 268.679 348.964 268.679C348.542 266.483 351.071 264.709 353.179 265.976Z" fill="#FD6141"/>
<path d="M344.748 277.041C344.832 276.957 351.156 276.112 351.915 274.254C352.505 272.818 352.926 270.368 353.264 270.031C353.601 269.777 355.203 267.834 355.203 267.834L357.732 272.227L348.205 280.251L344.748 277.041Z" fill="#DD4026"/>
<path d="M347.783 272.902L348.626 273.071C348.626 273.071 349.217 272.227 349.217 271.466L348.374 271.213C348.205 271.129 348.036 271.213 348.036 271.382L347.615 272.564C347.53 272.649 347.615 272.818 347.783 272.902Z" fill="#F7B614"/>
<path d="M342.05 178.726C342.05 178.388 334.041 214.116 334.293 223.66C334.462 229.657 345.591 257.108 348.964 268.764C349.638 270.96 353.095 268.342 352.758 266.061C351.493 254.912 351.577 249.084 346.603 224.927C345.844 221.126 359.334 187.425 358.238 179.486C357.31 171.631 346.266 167.323 342.05 178.726Z" fill="#FFB072"/>
<path opacity="0.5" d="M358.322 179.485C357.226 171.546 346.266 167.238 342.05 178.725C342.05 178.472 334.799 210.737 334.378 222.14C338.003 219.437 342.725 220.873 346.856 222.984C348.458 214.707 359.334 186.665 358.322 179.485Z" fill="#FFBE57"/>
<path d="M364.646 268.341C364.646 268.341 365.742 270.368 365.826 270.875C365.911 271.382 365.826 274.676 365.826 274.676C365.405 275.014 364.477 275.352 363.803 275.183L363.128 272.987C363.128 272.987 362.117 275.098 361.021 275.859C359.756 276.703 355.288 277.717 354.529 277.379C354.529 277.379 353.517 275.352 355.119 274.507C359.25 272.396 359.672 269.439 359.672 269.439C360.178 267.074 363.128 266.399 364.646 268.341Z" fill="#FD6141"/>
<path d="M354.107 277.126C354.191 277.126 359.334 276.619 360.514 275.605C361.779 274.592 362.791 272.311 363.212 272.142C363.634 271.973 365.826 270.791 365.826 270.791L366.585 275.774L354.865 279.913L354.107 277.126Z" fill="#DD4026"/>
<path d="M357.395 273.156L358.153 273.663C358.153 273.663 358.997 273.071 359.25 272.396L358.575 271.804C358.491 271.72 358.238 271.72 358.153 271.804L357.395 272.733C357.226 272.818 357.226 273.071 357.395 273.156Z" fill="#F7B614"/>
<path d="M349.976 181.006C349.891 184.131 350.397 217.241 353.264 226.278C355.034 231.937 358.828 259.05 360.093 268.257C360.515 271.635 364.224 271.635 364.477 268.426C365.489 256.432 369.367 239.708 364.983 225.096C363.887 221.464 368.946 183.624 365.826 176.445C362.538 169.265 350.144 169.519 349.976 181.006Z" fill="#FFB072"/>
<path opacity="0.5" d="M364.73 222.646C364.814 213.271 368.524 182.864 365.742 176.445C362.622 169.265 350.228 169.519 349.975 181.006C349.891 183.878 350.313 212.173 352.589 223.66C356.13 221.633 360.683 221.464 364.73 222.646Z" fill="#FFBE57"/>
<path d="M342.387 174.84L342.05 178.134C342.05 178.134 336.233 192.915 333.703 216.903C339.942 215.214 351.577 220.957 368.945 218.508C368.945 218.508 375.775 187.847 363.887 174.164C351.999 160.397 343.062 167.576 342.387 174.84Z" fill="#FD6141"/>
<path d="M342.472 177.965C342.472 177.965 342.05 182.526 349.975 183.371C357.901 184.215 365.826 178.472 365.573 176.783C365.32 175.093 342.472 177.965 342.472 177.965Z" fill="#DD4026"/>
<path d="M362.032 175.685C362.032 175.685 371.138 190.804 365.489 217.832" stroke="white" stroke-width="0.4986" stroke-miterlimit="10" stroke-linecap="round"/>
<path d="M310.096 166.14C310.012 166.14 306.724 165.971 306.134 166.056C305.628 166.225 304.279 166.816 303.857 167.069C302.93 167.492 303.857 168.167 304.532 168.083C305.543 167.998 305.881 167.829 306.302 167.914C306.555 167.914 306.724 167.998 306.892 168.083C306.555 168.421 305.038 169.434 303.857 169.857C303.183 170.11 302.593 170.279 301.665 170.617C301.244 170.786 301.328 171.292 301.834 171.377C302.171 171.461 303.351 171.461 304.363 171.039C304.785 170.87 305.206 170.701 305.543 170.532C305.543 170.532 304.7 171.039 304.279 171.292C303.689 171.546 303.014 171.715 302.171 172.053C301.749 172.222 301.834 172.644 302.34 172.728C302.508 172.728 302.677 172.728 303.014 172.728C302.845 172.982 302.93 173.32 303.351 173.32C303.52 173.32 303.942 173.32 304.363 173.235C304.447 173.32 304.532 173.489 304.7 173.489C308.073 173.489 310.012 171.63 311.867 171.208C314.818 168.336 312.288 166.563 310.096 166.14Z" fill="#FFB072"/>
<path d="M349.048 142.237C346.772 140.97 342.893 140.548 339.858 144.855C336.823 149.163 335.474 159.552 332.186 163.015C330.247 165.127 312.625 165.718 311.445 166.309C310.602 166.731 311.108 170.617 311.361 171.377C311.951 172.897 330.921 173.742 336.148 171.63C341.291 169.688 353.938 145.024 349.048 142.237Z" fill="#552F5E"/>
<path d="M341.713 122.81C341.882 121.205 341.882 118.587 343.736 116.222C345.676 113.942 353.011 111.577 356.889 114.279C361.695 117.573 360.093 120.699 366.079 123.064C371.981 125.429 370.21 128.131 368.524 130.834C366.838 133.537 367.428 134.044 370.21 136.831C372.992 139.703 376.618 146.798 370.21 150.852C363.802 154.906 349.975 152.288 344.411 146.882C338.846 141.561 345.423 138.014 343.905 134.804C342.387 131.594 340.533 132.355 340.533 128.892C340.533 126.442 341.46 125.26 341.713 122.81Z" fill="#131E3C"/>
<path d="M353.685 138.436C353.685 138.436 341.038 140.548 340.617 144.433C340.448 146.038 342.64 149.332 342.05 150.937C341.207 153.386 339.942 154.738 342.303 160.481C344.242 165.127 340.87 174.755 340.954 175.853C341.376 180.161 348.121 180.921 350.903 180.837C354.865 180.752 366.247 178.218 366.247 175.685C366.247 173.488 360.936 168.843 360.43 165.127C359.924 161.41 369.536 146.545 367.681 143.335C364.14 137.085 353.685 138.436 353.685 138.436Z" fill="#131E3C"/>
<path d="M365.826 178.303C365.742 178.303 362.538 179.148 362.116 179.485C361.695 179.823 360.599 180.837 360.261 181.09C359.503 181.766 360.599 182.188 361.189 181.85C362.116 181.428 362.369 181.175 362.791 181.09C363.044 181.09 363.212 181.006 363.381 181.09C363.128 181.513 362.032 182.948 361.104 183.709C360.599 184.131 360.093 184.469 359.25 185.06C358.912 185.313 359.165 185.82 359.587 185.736C359.924 185.651 361.02 185.313 361.863 184.638C362.201 184.384 362.538 184.046 362.875 183.793C362.875 183.793 362.201 184.553 361.863 184.891C361.357 185.313 360.852 185.651 360.093 186.243C359.755 186.496 360.008 186.918 360.514 186.834C360.683 186.834 360.852 186.749 361.189 186.665C361.104 186.918 361.273 187.256 361.695 187.172C361.863 187.172 362.2 187.003 362.622 186.749C362.706 186.834 362.875 186.918 363.044 186.834C365.067 186.411 368.44 183.54 369.198 182.526C370.969 178.894 368.018 177.965 365.826 178.303Z" fill="#FFB072"/>
<path d="M363.043 140.294C361.02 141.983 359.165 145.446 362.116 149.839C365.067 154.315 373.414 158.961 375.437 163.268C376.618 165.802 365.32 176.867 365.32 178.218C365.32 179.654 367.428 183.033 368.271 183.455C369.704 184.131 385.639 168.758 385.639 163.184C385.639 157.609 367.428 136.747 363.043 140.294Z" fill="#131E3C"/>
<path d="M355.624 128.723C355.624 128.723 355.877 132.017 356.889 134.551C357.816 137.085 358.912 137.929 360.093 138.943C361.273 140.041 355.203 146.545 349.807 148.149C349.807 148.149 345.844 143.335 347.699 140.717C349.469 138.014 350.903 137.845 350.313 134.213C349.722 131.088 349.385 129.398 349.385 129.398L355.624 128.723Z" fill="#FFB072"/>
<path d="M347.277 130.412C347.277 131.932 346.687 133.199 345.844 133.199C345.001 133.199 344.411 131.932 344.411 130.412C344.411 129.398 344.664 128.469 345.17 127.962C345.338 127.793 345.17 127.625 345.001 127.793C344.579 128.3 344.242 129.229 344.242 130.327C344.242 132.017 344.917 133.284 345.844 133.284C346.772 133.284 347.446 131.932 347.446 130.327C347.446 129.483 347.277 128.807 347.024 128.216C347.024 128.216 346.94 128.3 346.856 128.385C347.109 128.976 347.277 129.567 347.277 130.412Z" fill="white"/>
<path fill-rule="evenodd" clip-rule="evenodd" d="M355.624 128.723C355.624 128.723 354.781 135.395 348.458 134.888C345.338 134.635 343.736 128.216 344.917 126.611C344.917 126.611 344.327 123.317 344.917 120.699C345.507 117.996 350.734 116.644 355.034 117.911C355.034 117.911 356.299 119.094 355.793 124.331C355.793 124.331 356.552 123.401 357.816 124.077C358.744 124.584 358.828 125.851 358.575 126.949C358.238 128.3 356.805 129.483 355.624 128.723Z" fill="#FFB072"/>
<path d="M356.046 128.216L356.552 126.949L355.793 126.611C355.793 126.611 356.299 124.246 357.648 125.175C358.659 125.851 357.395 128.723 356.046 128.216Z" fill="#E57E55"/>
<path d="M358.069 130.412C358.069 131.932 357.479 133.199 356.636 133.199C355.793 133.199 355.203 131.932 355.203 130.412C355.203 129.398 355.456 128.469 355.961 127.962C356.13 127.793 355.961 127.625 355.793 127.793C355.371 128.3 355.034 129.229 355.034 130.327C355.034 132.017 355.708 133.284 356.636 133.284C357.563 133.284 358.238 131.932 358.238 130.327C358.238 129.483 358.069 128.807 357.816 128.216C357.816 128.216 357.732 128.3 357.648 128.385C357.901 128.976 358.069 129.567 358.069 130.412Z" fill="white"/>
<path d="M346.856 130.75C346.856 130.75 347.277 129.736 350.566 130.074C350.144 131.763 347.109 132.608 346.856 130.75Z" fill="#FD6141"/>
<path d="M346.856 130.751C346.856 130.751 348.879 130.751 350.566 130.075L346.856 130.751Z" fill="#E57E55"/>
<path d="M346.856 130.751C348.12 130.582 349.301 130.413 350.566 130.075C349.975 130.413 349.385 130.582 348.795 130.667C348.12 130.751 347.446 130.836 346.856 130.751Z" fill="#E57E55"/>
<path d="M345.001 126.526C345.001 126.78 345.423 126.864 345.844 126.78C346.35 126.78 346.687 126.695 346.687 126.358C346.687 126.02 346.266 125.851 345.76 125.935C345.338 125.935 345.001 126.189 345.001 126.526Z" fill="#131E3C"/>
<path d="M343.989 125.26C343.989 125.344 345.085 124.33 345.423 124.33C345.76 124.33 346.856 124.753 346.94 124.584C347.025 124.415 347.193 124.077 347.193 124.077C347.193 124.077 345.591 123.824 345.338 123.908C344.917 124.077 344.158 124.922 343.989 125.26Z" fill="#131E3C"/>
<path d="M349.301 126.104C349.301 126.358 349.722 126.442 350.144 126.358C350.65 126.358 350.987 126.273 350.987 125.935C350.987 125.682 350.566 125.428 350.06 125.513C349.638 125.597 349.301 125.851 349.301 126.104Z" fill="#131E3C"/>
<path d="M352.167 124.246C352.167 124.246 350.734 123.655 350.313 123.739C349.975 123.824 348.711 124.415 348.626 124.33C348.542 124.246 348.289 123.908 348.289 123.908C348.289 123.908 350.06 123.317 350.481 123.317C350.818 123.401 351.914 123.908 352.167 124.246Z" fill="#131E3C"/>
<path opacity="0.5" d="M347.446 129.06C347.446 129.06 348.542 129.06 348.542 128.723C348.542 128.385 346.266 128.131 346.097 128.3C345.928 128.469 346.94 128.891 347.446 129.06Z" fill="#E57E55"/>
<path d="M347.277 124.499C347.277 124.499 347.615 125.851 347.446 126.358C347.278 126.864 346.266 127.962 346.266 128.216C346.266 128.469 347.362 129.06 347.446 129.06C347.53 129.06 345.76 128.807 345.844 128.3C345.929 127.793 347.193 126.442 347.193 126.104C347.277 125.851 347.277 124.499 347.277 124.499Z" fill="#E57E55"/>
<path d="M353.685 118.418C348.458 119.009 346.181 123.908 342.303 123.908C339.942 119.769 347.193 109.38 355.709 117.489C359.587 121.205 356.13 124.077 356.13 124.077L355.287 127.118C355.287 127.118 355.371 124.837 354.528 123.993C352.167 121.29 353.685 118.418 353.685 118.418Z" fill="#131E3C"/>
<path opacity="0.3" d="M319.623 90.7141L266.086 77.5377L259.341 75.8485C256.727 75.1727 254.029 76.7776 253.355 79.4804L248.043 101.103L247.706 102.37L245.261 112.252C244.586 114.871 246.188 117.574 248.886 118.249L308.241 132.862C310.855 133.537 313.553 131.932 314.227 129.23L314.902 126.358L316.925 118.08L319.876 106.086L322.49 95.5285C322.996 93.3325 321.731 91.2209 319.623 90.7141Z" fill="#131E3C"/>
<path d="M307.23 130.834L247.875 116.222C245.261 115.546 243.659 112.928 244.249 110.225L252.343 77.4532C253.018 74.8349 255.631 73.23 258.329 73.8213L317.684 88.4335C320.298 89.1092 321.9 91.7276 321.31 94.4305L313.216 127.202C312.541 129.905 309.928 131.51 307.23 130.834Z" fill="#FFBE57"/>
<path d="M256.39 85.6462C254.367 91.0518 255.041 98.4847 260.437 101.187C279.744 112.675 300.316 111.661 318.865 104.059L321.478 93.5013C321.984 91.3897 320.719 89.2781 318.612 88.7713L265.074 75.595C261.027 77.791 258.161 81.7608 256.39 85.6462Z" fill="#FFD25A"/>
<path d="M315.968 116.153L247.037 99.1555L245.002 107.439L313.933 124.436L315.968 116.153Z" fill="#131E3C"/>
<path d="M276.878 87.7578L256.053 82.6055C254.957 82.3521 254.367 81.2541 254.62 80.2405L254.704 79.9871C254.957 78.8891 256.053 78.2979 257.065 78.5513L277.889 83.7035C278.985 83.9569 279.576 85.055 279.323 86.0685L279.238 86.3219C279.07 87.3355 277.974 88.0112 276.878 87.7578Z" fill="#131E3C"/>
<path d="M295.173 96.6265L254.114 86.4909C253.608 86.3219 253.27 85.8152 253.355 85.3084V85.1394C253.523 84.6327 254.029 84.2948 254.535 84.3793L295.595 94.5149C296.101 94.6839 296.438 95.1906 296.354 95.6974V95.8663C296.269 96.4576 295.679 96.711 295.173 96.6265Z" fill="#131E3C"/>
<path d="M286.742 104.482L285.393 104.144C284.634 103.975 284.213 103.215 284.381 102.454L284.466 102.286C284.634 101.525 285.393 101.103 286.152 101.272L287.501 101.61C288.26 101.779 288.681 102.539 288.513 103.299L288.428 103.468C288.26 104.144 287.501 104.651 286.742 104.482Z" fill="white"/>
<path d="M291.885 105.664L290.536 105.326C289.777 105.157 289.356 104.397 289.524 103.637L289.609 103.468C289.777 102.708 290.536 102.286 291.295 102.454L292.644 102.792C293.403 102.961 293.824 103.721 293.656 104.482L293.571 104.651C293.403 105.411 292.644 105.917 291.885 105.664Z" fill="white"/>
<path d="M297.028 106.931L295.679 106.593C294.92 106.424 294.499 105.664 294.667 104.904L294.752 104.735C294.92 103.975 295.679 103.552 296.438 103.721L297.787 104.059C298.546 104.228 298.967 104.988 298.798 105.749L298.714 105.917C298.546 106.678 297.787 107.184 297.028 106.931Z" fill="white"/>
<path d="M309.169 91.7276C308.579 90.6296 307.567 89.8694 306.302 89.5315C303.857 88.9403 301.328 90.4606 300.738 92.9101C300.147 95.3596 301.665 97.8935 304.11 98.4847C305.375 98.8226 306.639 98.5692 307.735 97.8935C307.145 96.8799 306.977 95.6974 307.23 94.5149C307.483 93.3324 308.157 92.4033 309.169 91.7276Z" fill="#FD6141"/>
<path d="M312.71 91.1363C311.445 90.7984 310.18 91.0518 309.084 91.7275C309.675 92.7411 309.843 93.9236 309.59 95.1061C309.337 96.2886 308.579 97.3022 307.567 97.8934C308.157 98.9914 309.169 99.7516 310.433 100.089C312.878 100.681 315.408 99.1604 315.998 96.7109C316.588 94.2615 315.239 91.812 312.71 91.1363Z" fill="#FD6141"/>
</g>
<defs>
<clipPath id="clip0_78_441">
<rect width="503" height="330" fill="white"/>
</clipPath>
</defs>
</svg>
