<svg width="1049" height="508" viewBox="0 0 1049 508" fill="none" xmlns="http://www.w3.org/2000/svg">
<rect x="36.307" y="1.01965" width="983.543" height="505.981" rx="252.99" stroke="#131E3C" stroke-opacity="0.15"/>
<rect x="98.5" y="20.5" width="859" height="467" rx="233.5" stroke="#131E3C" stroke-opacity="0.15"/>
<rect x="163.5" y="42.5" width="730" height="423" rx="211.5" stroke="#131E3C" stroke-opacity="0.15"/>
<g filter="url(#filter0_d_200_2)">
<circle cx="54.5925" cy="344.479" r="29.7473" fill="white"/>
</g>
<g clip-path="url(#clip0_200_2)">
<path d="M57.8169 354.026V353.943H52.5946V354.026L52.5955 354.067C52.5955 354.526 52.4129 354.967 52.0879 355.292C51.7629 355.617 51.322 355.8 50.8624 355.8C50.4027 355.8 49.9619 355.617 49.6368 355.292C49.3118 354.967 49.1292 354.526 49.1292 354.067L49.1301 354.024V353.943H48.5348C48.2809 353.943 48.0347 353.856 47.8371 353.697C47.6394 353.537 47.5021 353.315 47.448 353.067L47.4471 353.06L43.9671 336.583L40.994 336.088C40.7108 336.03 40.461 335.865 40.2973 335.627C40.1335 335.389 40.0687 335.097 40.1166 334.812C40.1644 334.527 40.3211 334.272 40.5535 334.101C40.786 333.929 41.076 333.855 41.3623 333.893L41.3569 333.892L45.0775 334.512C45.5307 334.59 45.8862 334.932 45.9811 335.372L45.982 335.379L46.6129 338.355L57.4668 339.259C57.3998 339.616 57.3656 339.978 57.3647 340.341V340.344C57.3647 340.711 57.3966 341.07 57.4586 341.419L57.4531 341.383C57.1544 341.477 56.9009 341.678 56.7409 341.947C56.581 342.216 56.5259 342.535 56.5861 342.842L56.5852 342.834L57.2407 347.566C57.2808 347.87 57.4194 348.136 57.6218 348.336C57.806 348.52 58.0585 348.635 58.3384 348.637H58.3393C58.4013 348.637 58.4624 348.631 58.5207 348.62L58.5144 348.621C58.8252 348.54 59.0936 348.343 59.265 348.072C59.4365 347.8 59.4983 347.473 59.4379 347.158L59.4388 347.166L59.0814 344.593C59.6487 345.183 60.3294 345.652 61.0827 345.973C61.8361 346.293 62.6464 346.458 63.465 346.457C63.5042 346.457 63.5434 346.457 63.5817 346.451L63.6664 346.446L63.0565 350.004C63.0419 350.09 62.9973 350.169 62.9306 350.225C62.8638 350.282 62.7793 350.313 62.6918 350.313H49.1392L49.4374 351.723H62.3445C62.6317 351.735 62.9034 351.857 63.1026 352.064C63.3019 352.271 63.4133 352.547 63.4135 352.835C63.4138 353.122 63.3028 353.399 63.1039 353.606C62.905 353.814 62.6335 353.936 62.3463 353.948H61.2832V354.031C61.2832 354.491 61.1006 354.932 60.7756 355.257C60.4506 355.582 60.0097 355.764 59.5501 355.764C59.0904 355.764 58.6496 355.582 58.3245 355.257C57.9995 354.932 57.8169 354.491 57.8169 354.031V354.026ZM59.055 354.026C59.0552 354.094 59.0695 354.161 59.097 354.223C59.1246 354.285 59.1647 354.341 59.215 354.387C59.2652 354.433 59.3244 354.468 59.3889 354.49C59.4534 354.511 59.5216 354.52 59.5894 354.514C59.6572 354.508 59.723 354.488 59.7827 354.455C59.8423 354.422 59.8946 354.378 59.936 354.324C59.9775 354.27 60.0073 354.208 60.0236 354.142C60.0398 354.076 60.0422 354.007 60.0305 353.94V353.943H59.0641C59.0592 353.97 59.0568 353.998 59.0568 354.026H59.055ZM50.3682 354.026C50.3684 354.094 50.3827 354.161 50.4103 354.223C50.4378 354.285 50.478 354.341 50.5282 354.387C50.5784 354.433 50.6377 354.468 50.7021 354.49C50.7666 354.511 50.8348 354.52 50.9026 354.514C50.9704 354.508 51.0362 354.488 51.0959 354.455C51.1555 354.422 51.2078 354.378 51.2492 354.324C51.2907 354.27 51.3205 354.208 51.3368 354.142C51.3531 354.076 51.3554 354.007 51.3437 353.94V353.943H50.3764C50.3718 353.969 50.3697 353.997 50.37 354.024V354.026H50.3682ZM53.8938 341.376C53.5828 341.457 53.3144 341.653 53.1428 341.925C52.9713 342.196 52.9096 342.523 52.9702 342.839L52.9693 342.831L53.6248 347.562C53.665 347.866 53.8035 348.132 54.0059 348.333C54.1901 348.516 54.4427 348.631 54.7225 348.634H54.7235C54.7855 348.634 54.8465 348.627 54.9049 348.616L54.8985 348.617C55.2094 348.536 55.4777 348.34 55.6492 348.068C55.8207 347.796 55.8825 347.47 55.8221 347.154L55.823 347.162L55.1675 342.43C55.1297 342.138 54.9955 341.867 54.7864 341.66C54.596 341.47 54.3388 341.362 54.0698 341.358H54.0689C54.0059 341.358 53.9449 341.365 53.8856 341.376L53.892 341.376H53.8938ZM50.278 341.376C49.9659 341.456 49.6965 341.653 49.5247 341.926C49.3529 342.198 49.2916 342.526 49.3535 342.842L49.3526 342.834L50.0081 347.566C50.0482 347.87 50.1868 348.136 50.3892 348.336C50.5733 348.52 50.8259 348.635 51.1058 348.637H51.1067C51.1687 348.637 51.2298 348.631 51.2881 348.62L51.2817 348.621C51.5929 348.54 51.8616 348.344 52.0333 348.072C52.205 347.8 52.2668 347.473 52.2062 347.158L52.2071 347.166L51.5507 342.431C51.5129 342.139 51.3788 341.868 51.1696 341.661C50.9794 341.47 50.7222 341.362 50.453 341.359H50.4521C50.3901 341.359 50.3299 341.366 50.2716 341.376L50.278 341.376ZM58.291 340.347C58.2912 338.974 58.8371 337.657 59.8084 336.686C60.2893 336.205 60.8603 335.823 61.4886 335.563C62.117 335.303 62.7904 335.169 63.4704 335.17C64.1505 335.17 64.8238 335.304 65.4521 335.564C66.0803 335.824 66.6511 336.206 67.1319 336.687C67.6127 337.168 67.9941 337.739 68.2542 338.367C68.5143 338.995 68.6482 339.669 68.648 340.349C68.6477 341.723 68.1016 343.04 67.13 344.011C66.1585 344.982 64.8409 345.527 63.4672 345.527C62.0936 345.527 60.7763 344.981 59.8052 344.009C58.8341 343.037 58.2888 341.72 58.2892 340.346L58.291 340.347ZM59.7743 340.347C59.7743 340.832 59.8699 341.313 60.0556 341.761C60.2413 342.21 60.5135 342.617 60.8566 342.96C61.1998 343.303 61.6071 343.575 62.0554 343.761C62.5037 343.947 62.9843 344.042 63.4695 344.042C63.9548 344.042 64.4353 343.947 64.8836 343.761C65.3319 343.575 65.7393 343.303 66.0824 342.96C66.4255 342.617 66.6977 342.21 66.8834 341.761C67.0691 341.313 67.1647 340.832 67.1647 340.347C67.1648 339.367 66.7755 338.427 66.0824 337.733C65.3894 337.04 64.4493 336.651 63.4691 336.651C62.4888 336.65 61.5486 337.04 60.8554 337.733C60.1622 338.426 59.7726 339.366 59.7725 340.346L59.7743 340.347ZM62.7283 341.825V341.088H61.9916C61.7948 341.088 61.606 341.01 61.4669 340.871C61.3277 340.732 61.2495 340.543 61.2495 340.346C61.2495 340.149 61.3277 339.961 61.4669 339.821C61.606 339.682 61.7948 339.604 61.9916 339.604H62.7283V338.867C62.7283 338.671 62.8065 338.482 62.9457 338.343C63.0848 338.203 63.2736 338.125 63.4704 338.125C63.6672 338.125 63.856 338.203 63.9952 338.343C64.1344 338.482 64.2126 338.671 64.2126 338.867V339.604H64.9492C65.146 339.604 65.3348 339.682 65.474 339.821C65.6132 339.961 65.6914 340.149 65.6914 340.346C65.6914 340.543 65.6132 340.732 65.474 340.871C65.3348 341.01 65.146 341.088 64.9492 341.088H64.2126V341.824C64.2126 342.021 64.1344 342.21 63.9952 342.349C63.856 342.488 63.6672 342.566 63.4704 342.566C63.2736 342.566 63.0848 342.488 62.9457 342.349C62.8065 342.21 62.7283 342.021 62.7283 341.824V341.825Z" fill="#FFB072"/>
</g>
<g filter="url(#filter1_d_200_2)">
<circle cx="148.248" cy="112.7" r="30.2133" fill="white"/>
</g>
<path d="M160.683 118.514V106.206C160.683 105.071 159.766 104.155 158.631 104.155H139.472C138.337 104.155 137.42 105.071 137.42 106.206V118.514C137.42 119.65 138.337 120.566 139.472 120.566H158.631C159.766 120.566 160.683 119.65 160.683 118.514ZM158.891 106.056C159.343 106.507 159.096 106.972 158.85 107.205L153.298 112.292L158.631 117.844C158.796 118.036 158.905 118.337 158.713 118.542C158.536 118.761 158.125 118.747 157.948 118.61L151.971 113.509L149.045 116.176L146.132 113.509L140.156 118.61C139.978 118.747 139.568 118.761 139.39 118.542C139.198 118.337 139.308 118.036 139.472 117.844L144.805 112.292L139.253 107.205C139.007 106.972 138.761 106.507 139.212 106.056C139.663 105.605 140.128 105.823 140.511 106.152L149.045 113.044L157.592 106.152C157.975 105.823 158.44 105.605 158.891 106.056Z" fill="#FFB072"/>
<g filter="url(#filter2_d_200_2)">
<ellipse cx="166.297" cy="244.465" rx="25.8286" ry="25.4648" fill="white"/>
</g>
<g clip-path="url(#clip1_200_2)">
<path d="M174.747 244.551L177.747 247.551L173.997 249.051L174.747 253.551L170.247 252.801L168.747 256.551L165.747 253.551L162.747 256.551L161.247 252.801L156.747 253.551L157.497 249.051L153.747 247.551L156.747 244.551L153.747 241.551L157.497 240.051L156.747 235.551L161.247 236.301L162.747 232.551L165.747 235.551L168.747 232.551L170.247 236.301L174.747 235.551L173.997 240.051L177.747 241.551L174.747 244.551ZM161.997 238.551C161.372 238.551 160.841 238.844 160.404 239.43C159.966 240.016 159.747 240.723 159.747 241.551C159.747 242.38 159.966 243.087 160.404 243.672C160.841 244.258 161.372 244.551 161.997 244.551C162.622 244.551 163.154 244.258 163.591 243.672C164.029 243.087 164.247 242.38 164.247 241.551C164.247 240.723 164.029 240.016 163.591 239.43C163.154 238.844 162.622 238.551 161.997 238.551ZM169.497 238.551H168.747C168.685 238.551 168.626 238.563 168.572 238.587C168.517 238.61 168.474 238.63 168.443 238.645C168.412 238.661 168.369 238.704 168.314 238.774C168.259 238.844 168.224 238.891 168.208 238.915C168.193 238.938 168.158 239.001 168.103 239.102C168.048 239.204 168.013 239.27 167.997 239.301L161.365 249.801C161.255 249.989 161.279 250.161 161.435 250.317C161.591 250.473 161.779 250.551 161.997 250.551H162.747C162.81 250.551 162.861 250.547 162.9 250.54C162.939 250.532 162.982 250.512 163.029 250.481C163.076 250.45 163.111 250.422 163.134 250.399C163.158 250.376 163.189 250.333 163.228 250.27C163.267 250.208 163.294 250.161 163.31 250.13C163.326 250.098 163.357 250.044 163.404 249.965C163.451 249.887 163.482 249.833 163.497 249.801L170.13 239.301C170.24 239.114 170.216 238.942 170.06 238.786C169.904 238.63 169.716 238.551 169.497 238.551ZM169.497 244.551C168.872 244.551 168.341 244.844 167.904 245.43C167.466 246.016 167.247 246.723 167.247 247.551C167.247 248.38 167.466 249.087 167.904 249.672C168.341 250.258 168.872 250.551 169.497 250.551C170.122 250.551 170.654 250.258 171.091 249.672C171.529 249.087 171.747 248.38 171.747 247.551C171.747 246.723 171.529 246.016 171.091 245.43C170.654 244.844 170.122 244.551 169.497 244.551ZM169.497 249.051C169.294 249.051 169.119 248.903 168.97 248.606C168.822 248.309 168.747 247.954 168.747 247.54C168.747 247.126 168.822 246.774 168.97 246.485C169.119 246.196 169.294 246.051 169.497 246.051C169.701 246.051 169.876 246.196 170.025 246.485C170.173 246.774 170.247 247.126 170.247 247.54C170.247 247.954 170.173 248.309 170.025 248.606C169.876 248.903 169.701 249.051 169.497 249.051ZM161.997 243.051C161.794 243.051 161.619 242.903 161.47 242.606C161.322 242.309 161.247 241.954 161.247 241.54C161.247 241.126 161.322 240.774 161.47 240.485C161.619 240.196 161.794 240.051 161.997 240.051C162.201 240.051 162.376 240.196 162.525 240.485C162.673 240.774 162.747 241.126 162.747 241.54C162.747 241.954 162.673 242.309 162.525 242.606C162.376 242.903 162.201 243.051 161.997 243.051Z" fill="#FFB072"/>
</g>
<g filter="url(#filter3_d_200_2)">
<ellipse cx="918.552" cy="129.654" rx="29.6306" ry="29.0259" fill="white"/>
</g>
<path d="M913.296 121.888V124.006H911.883C911.509 124.006 911.15 124.155 910.885 124.419C910.62 124.684 910.471 125.043 910.471 125.418V136.714C910.471 137.303 910.582 137.854 910.803 138.369C911.024 138.876 911.329 139.325 911.718 139.715C912.512 140.506 913.587 140.95 914.708 140.951H919.064C918.931 140.574 918.907 140.167 918.996 139.777C919.084 139.387 919.281 139.03 919.564 138.748L920.356 137.956V136.473C919.53 136.181 918.815 135.64 918.309 134.924C917.804 134.209 917.532 133.354 917.532 132.478C917.532 131.602 917.804 130.748 918.309 130.032C918.815 129.317 919.53 128.776 920.356 128.484V121.888C920.358 121.273 920.199 120.668 919.893 120.134C920.239 119.891 920.628 119.77 921.062 119.77C921.479 119.766 921.888 119.886 922.236 120.116C922.584 120.346 922.855 120.675 923.015 121.06C923.125 121.317 923.18 121.594 923.18 121.888V124.006H921.768V128.242C922.862 128.242 923.915 128.665 924.704 129.424C925.493 130.182 925.958 131.217 926.001 132.31L927.416 130.895V125.418C927.416 125.043 927.267 124.684 927.003 124.419C926.738 124.155 926.379 124.006 926.004 124.006H924.592V121.888C924.592 121.402 924.5 120.946 924.317 120.519C924.05 119.877 923.598 119.328 923.018 118.943C922.439 118.558 921.758 118.354 921.062 118.358C920.3 118.357 919.559 118.61 918.955 119.075C918.654 118.847 918.319 118.669 917.962 118.545C917.597 118.419 917.212 118.356 916.826 118.358C916.34 118.358 915.884 118.449 915.457 118.633C915.024 118.817 914.648 119.071 914.332 119.394C914.009 119.71 913.754 120.086 913.571 120.519C913.387 120.946 913.296 121.402 913.296 121.888ZM918.944 121.888V124.006H914.708V121.888C914.704 121.471 914.824 121.062 915.054 120.714C915.284 120.366 915.613 120.095 915.998 119.935C916.255 119.825 916.532 119.77 916.826 119.77C917.243 119.766 917.652 119.886 917.999 120.116C918.347 120.346 918.619 120.675 918.779 121.06C918.889 121.317 918.944 121.594 918.944 121.888ZM921.768 135.302C922.517 135.302 923.235 135.005 923.765 134.475C924.295 133.946 924.592 133.227 924.592 132.478C924.592 131.729 924.295 131.011 923.765 130.481C923.235 129.952 922.517 129.654 921.768 129.654C921.019 129.654 920.301 129.952 919.771 130.481C919.241 131.011 918.944 131.729 918.944 132.478C918.944 133.227 919.241 133.946 919.771 134.475C920.301 135.005 921.019 135.302 921.768 135.302ZM921.768 131.066C922.142 131.066 922.502 131.215 922.766 131.48C923.031 131.745 923.18 132.104 923.18 132.478C923.18 132.853 923.031 133.212 922.766 133.477C922.502 133.742 922.142 133.89 921.768 133.89C921.393 133.89 921.034 133.742 920.769 133.477C920.505 133.212 920.356 132.853 920.356 132.478C920.356 132.104 920.505 131.745 920.769 131.48C921.034 131.215 921.393 131.066 921.768 131.066ZM928.828 142.363C929.577 142.363 930.296 142.065 930.825 141.536C931.355 141.006 931.652 140.288 931.652 139.539C931.652 138.79 931.355 138.071 930.825 137.542C930.296 137.012 929.577 136.714 928.828 136.714C928.079 136.714 927.361 137.012 926.831 137.542C926.302 138.071 926.004 138.79 926.004 139.539C926.004 140.288 926.302 141.006 926.831 141.536C927.361 142.065 928.079 142.363 928.828 142.363ZM928.828 138.127C929.203 138.127 929.562 138.275 929.827 138.54C930.092 138.805 930.24 139.164 930.24 139.539C930.24 139.913 930.092 140.272 929.827 140.537C929.562 140.802 929.203 140.951 928.828 140.951C928.454 140.951 928.095 140.802 927.83 140.537C927.565 140.272 927.416 139.913 927.416 139.539C927.416 139.164 927.565 138.805 927.83 138.54C928.095 138.275 928.454 138.127 928.828 138.127ZM930.034 132.272C930.167 132.14 930.241 131.96 930.241 131.772C930.241 131.585 930.167 131.405 930.034 131.272C929.902 131.14 929.722 131.065 929.534 131.065C929.347 131.065 929.167 131.14 929.034 131.272L920.562 139.745C920.429 139.877 920.355 140.057 920.355 140.245C920.355 140.432 920.429 140.612 920.562 140.745C920.695 140.877 920.874 140.952 921.062 140.952C921.249 140.952 921.429 140.877 921.562 140.745L930.034 132.272Z" fill="#FFB072"/>
<g filter="url(#filter4_d_200_2)">
<ellipse cx="879.202" cy="323.849" rx="25.9838" ry="25.4535" fill="white"/>
</g>
<path d="M872 324H871V332C871 332.53 871.211 333.039 871.586 333.414C871.961 333.789 872.47 334 873 334H878V324H872ZM885 324H880V334H885C885.53 334 886.039 333.789 886.414 333.414C886.789 333.039 887 332.53 887 332V324H885ZM885.791 319C885.938 318.514 886.008 318.008 886 317.5C886 315.57 884.43 314 882.5 314C880.878 314 879.795 315.482 879.096 317.085C878.407 315.57 877.269 314 875.5 314C873.57 314 872 315.57 872 317.5C872 318.096 872.079 318.589 872.209 319H869V323H878V321H880V323H889V319H885.791ZM874 317.5C874 316.673 874.673 316 875.5 316C876.388 316 877.214 317.525 877.698 319H875C874.626 319 874 319 874 317.5ZM882.5 316C883.327 316 884 316.673 884 317.5C884 319 883.374 319 883 319H880.523C881.033 317.424 881.774 316 882.5 316Z" fill="#FFB072"/>
<g filter="url(#filter5_d_200_2)">
<ellipse cx="997.252" cy="356.699" rx="26.8955" ry="26.3466" fill="white"/>
</g>
<path d="M991.326 350.317H993.454V352.444H991.326V350.317Z" fill="#FFB072"/>
<path d="M988.135 355.635V347.126H996.645V355.635H988.135ZM990.263 349.253V353.508H994.517V349.253H990.263Z" fill="#FFB072"/>
<path d="M998.772 357.763H1001.96V359.89H998.772V357.763Z" fill="#FFB072"/>
<path d="M1001.96 359.89H1004.09V357.763H1007.28V360.954H1004.09V362.017H1005.15V363.081H1007.28V366.272H1005.15V364.145H1003.03V366.272H998.772V362.017H1000.9V364.145H1001.96V359.89Z" fill="#FFB072"/>
<path d="M1004.09 350.317H1001.96V352.444H1004.09V350.317Z" fill="#FFB072"/>
<path d="M998.772 347.126V355.635H1007.28V347.126H998.772ZM1005.15 349.253V353.508H1000.9V349.253H1005.15Z" fill="#FFB072"/>
<path d="M991.326 360.954H993.454V363.081H991.326V360.954Z" fill="#FFB072"/>
<path d="M988.135 366.272V357.763H996.645V366.272H988.135ZM990.263 359.89V364.145H994.517V359.89H990.263Z" fill="#FFB072"/>
<defs>
<filter id="filter0_d_200_2" x="0.845215" y="301.732" width="107.495" height="107.495" filterUnits="userSpaceOnUse" color-interpolation-filters="sRGB">
<feFlood flood-opacity="0" result="BackgroundImageFix"/>
<feColorMatrix in="SourceAlpha" type="matrix" values="0 0 0 0 0 0 0 0 0 0 0 0 0 0 0 0 0 0 127 0" result="hardAlpha"/>
<feOffset dy="11"/>
<feGaussianBlur stdDeviation="12"/>
<feColorMatrix type="matrix" values="0 0 0 0 0 0 0 0 0 0 0 0 0 0 0 0 0 0 0.08 0"/>
<feBlend mode="normal" in2="BackgroundImageFix" result="effect1_dropShadow_200_2"/>
<feBlend mode="normal" in="SourceGraphic" in2="effect1_dropShadow_200_2" result="shape"/>
</filter>
<filter id="filter1_d_200_2" x="94.0347" y="69.4863" width="108.427" height="108.427" filterUnits="userSpaceOnUse" color-interpolation-filters="sRGB">
<feFlood flood-opacity="0" result="BackgroundImageFix"/>
<feColorMatrix in="SourceAlpha" type="matrix" values="0 0 0 0 0 0 0 0 0 0 0 0 0 0 0 0 0 0 127 0" result="hardAlpha"/>
<feOffset dy="11"/>
<feGaussianBlur stdDeviation="12"/>
<feColorMatrix type="matrix" values="0 0 0 0 0 0 0 0 0 0 0 0 0 0 0 0 0 0 0.08 0"/>
<feBlend mode="normal" in2="BackgroundImageFix" result="effect1_dropShadow_200_2"/>
<feBlend mode="normal" in="SourceGraphic" in2="effect1_dropShadow_200_2" result="shape"/>
</filter>
<filter id="filter2_d_200_2" x="116.469" y="206" width="99.6573" height="98.9297" filterUnits="userSpaceOnUse" color-interpolation-filters="sRGB">
<feFlood flood-opacity="0" result="BackgroundImageFix"/>
<feColorMatrix in="SourceAlpha" type="matrix" values="0 0 0 0 0 0 0 0 0 0 0 0 0 0 0 0 0 0 127 0" result="hardAlpha"/>
<feOffset dy="11"/>
<feGaussianBlur stdDeviation="12"/>
<feColorMatrix type="matrix" values="0 0 0 0 0 0 0 0 0 0 0 0 0 0 0 0 0 0 0.08 0"/>
<feBlend mode="normal" in2="BackgroundImageFix" result="effect1_dropShadow_200_2"/>
<feBlend mode="normal" in="SourceGraphic" in2="effect1_dropShadow_200_2" result="shape"/>
</filter>
<filter id="filter3_d_200_2" x="864.921" y="87.6282" width="107.261" height="106.052" filterUnits="userSpaceOnUse" color-interpolation-filters="sRGB">
<feFlood flood-opacity="0" result="BackgroundImageFix"/>
<feColorMatrix in="SourceAlpha" type="matrix" values="0 0 0 0 0 0 0 0 0 0 0 0 0 0 0 0 0 0 127 0" result="hardAlpha"/>
<feOffset dy="11"/>
<feGaussianBlur stdDeviation="12"/>
<feColorMatrix type="matrix" values="0 0 0 0 0 0 0 0 0 0 0 0 0 0 0 0 0 0 0.08 0"/>
<feBlend mode="normal" in2="BackgroundImageFix" result="effect1_dropShadow_200_2"/>
<feBlend mode="normal" in="SourceGraphic" in2="effect1_dropShadow_200_2" result="shape"/>
</filter>
<filter id="filter4_d_200_2" x="829.218" y="285.395" width="99.9676" height="98.907" filterUnits="userSpaceOnUse" color-interpolation-filters="sRGB">
<feFlood flood-opacity="0" result="BackgroundImageFix"/>
<feColorMatrix in="SourceAlpha" type="matrix" values="0 0 0 0 0 0 0 0 0 0 0 0 0 0 0 0 0 0 127 0" result="hardAlpha"/>
<feOffset dy="11"/>
<feGaussianBlur stdDeviation="12"/>
<feColorMatrix type="matrix" values="0 0 0 0 0 0 0 0 0 0 0 0 0 0 0 0 0 0 0.08 0"/>
<feBlend mode="normal" in2="BackgroundImageFix" result="effect1_dropShadow_200_2"/>
<feBlend mode="normal" in="SourceGraphic" in2="effect1_dropShadow_200_2" result="shape"/>
</filter>
<filter id="filter5_d_200_2" x="946.357" y="317.353" width="101.791" height="100.693" filterUnits="userSpaceOnUse" color-interpolation-filters="sRGB">
<feFlood flood-opacity="0" result="BackgroundImageFix"/>
<feColorMatrix in="SourceAlpha" type="matrix" values="0 0 0 0 0 0 0 0 0 0 0 0 0 0 0 0 0 0 127 0" result="hardAlpha"/>
<feOffset dy="11"/>
<feGaussianBlur stdDeviation="12"/>
<feColorMatrix type="matrix" values="0 0 0 0 0 0 0 0 0 0 0 0 0 0 0 0 0 0 0.08 0"/>
<feBlend mode="normal" in2="BackgroundImageFix" result="effect1_dropShadow_200_2"/>
<feBlend mode="normal" in="SourceGraphic" in2="effect1_dropShadow_200_2" result="shape"/>
</filter>
<clipPath id="clip0_200_2">
<rect width="28.2631" height="21.8811" fill="white" transform="translate(40.0576 333.878)"/>
</clipPath>
<clipPath id="clip1_200_2">
<rect width="24" height="24" fill="white" transform="translate(153.747 232.551)"/>
</clipPath>
</defs>
</svg>
