<svg width="24" height="24" viewBox="0 0 24 24" fill="none" xmlns="http://www.w3.org/2000/svg">
<path d="M4.99994 12.0001H3.99994V20.0001C3.99994 20.5305 4.21065 21.0392 4.58573 21.4143C4.9608 21.7893 5.46951 22.0001 5.99994 22.0001H10.9999V12.0001H4.99994ZM17.9999 12.0001H12.9999V22.0001H17.9999C18.5304 22.0001 19.0391 21.7893 19.4142 21.4143C19.7892 21.0392 19.9999 20.5305 19.9999 20.0001V12.0001H17.9999ZM18.7909 7.00006C18.9376 6.51384 19.0081 6.00785 18.9999 5.50006C18.9999 3.57006 17.4299 2.00006 15.4999 2.00006C13.8779 2.00006 12.7949 3.48206 12.0959 5.08506C11.4069 3.57006 10.2689 2.00006 8.49994 2.00006C6.56994 2.00006 4.99994 3.57006 4.99994 5.50006C4.99994 6.09606 5.07894 6.58906 5.20894 7.00006H1.99994V11.0001H10.9999V9.00006H12.9999V11.0001H21.9999V7.00006H18.7909ZM6.99994 5.50006C6.99994 4.67306 7.67294 4.00006 8.49994 4.00006C9.38794 4.00006 10.2139 5.52506 10.6979 7.00006H7.99994C7.62594 7.00006 6.99994 7.00006 6.99994 5.50006ZM15.4999 4.00006C16.3269 4.00006 16.9999 4.67306 16.9999 5.50006C16.9999 7.00006 16.3739 7.00006 15.9999 7.00006H13.5229C14.0329 5.42406 14.7739 4.00006 15.4999 4.00006Z" fill="#FFB072"/>
</svg>
