<svg width="27" height="27" viewBox="0 0 27 27" fill="none" xmlns="http://www.w3.org/2000/svg">
<path d="M7.32629 7.31714H9.45362V9.44447H7.32629V7.31714Z" fill="#FFB072"/>
<path d="M4.13531 12.6355V4.12616H12.6446V12.6355H4.13531ZM6.26264 6.25349V10.5081H10.5173V6.25349H6.26264Z" fill="#FFB072"/>
<path d="M14.7719 14.7628H17.9629V16.8901H14.7719V14.7628Z" fill="#FFB072"/>
<path d="M17.9629 16.8901H20.0903V14.7628H23.2813V17.9538H20.0903V19.0175H21.1539V20.0811H23.2813V23.2721H21.1539V21.1448H19.0266V23.2721H14.7719V19.0175H16.8993V21.1448H17.9629V16.8901Z" fill="#FFB072"/>
<path d="M20.0903 7.31714H17.963V9.44447H20.0903V7.31714Z" fill="#FFB072"/>
<path d="M14.7719 4.12616V12.6355H23.2813V4.12616H14.7719ZM21.1539 6.25349V10.5081H16.8993V6.25349H21.1539Z" fill="#FFB072"/>
<path d="M7.32629 17.9538H9.45362V20.0811H7.32629V17.9538Z" fill="#FFB072"/>
<path d="M4.13531 23.2721V14.7628H12.6446V23.2721H4.13531ZM6.26264 16.8901V21.1448H10.5173V16.8901H6.26264Z" fill="#FFB072"/>
</svg>
