<svg width="133" height="36" viewBox="0 0 133 36" fill="none" xmlns="http://www.w3.org/2000/svg">
<g clip-path="url(#clip0_78_1031)">
<path d="M59.5211 8.40857H63.2689L57.5719 27.5055H52.2501L46.5531 8.40857H50.3016L54.908 24.3187L59.5203 8.40857H59.5211ZM73.6916 27.5055H70.8308L70.5749 26.5566C69.334 27.3651 67.8844 27.7943 66.4034 27.7919C63.853 27.7919 62.7683 26.0433 62.7683 23.6145C62.7683 20.7738 64.0021 19.6877 66.8324 19.6877H70.1818V18.2435C70.1818 16.6978 69.7528 16.1488 67.5179 16.1488C66.2177 16.1622 64.9219 16.3062 63.6508 16.5785L63.2211 13.9109C64.7739 13.4796 66.3771 13.2569 67.9886 13.2484C72.3682 13.2484 73.6558 14.7941 73.6558 18.2972L73.6916 27.5055ZM70.1997 22.2299H67.6253C66.481 22.2299 66.1655 22.5462 66.1655 23.6085C66.1655 24.6708 66.481 25.0109 67.5657 25.0109C68.4897 24.9975 69.3954 24.7512 70.1989 24.2948V22.2299H70.1997ZM80.3598 23.7458C79.9182 23.9605 79.609 24.3769 79.5311 24.8617C79.5311 25.2317 79.7578 25.4048 80.3061 25.4585C81.8495 25.6316 82.6895 25.7151 84.3403 25.8882C86.6051 26.1448 87.3197 27.2667 87.3197 29.2719C87.3197 32.2558 86.2291 33.4494 81.0215 33.4494C79.2097 33.4515 77.4058 33.2106 75.658 32.7332L76.0869 30.1253C77.6218 30.5158 79.199 30.7162 80.7828 30.7221C83.56 30.7221 84.1024 30.5192 84.1024 29.6061C84.1024 28.693 83.8458 28.6035 82.785 28.4901C81.1819 28.3171 80.521 28.2335 78.7508 28.0306C76.7784 27.8038 76.0033 27.1414 76.0033 25.363C76.0647 24.3745 76.6117 23.4805 77.464 22.9759C76.1764 22.2001 75.5744 20.9111 75.5744 19.2222V17.8973C75.6341 15.003 77.1477 13.2544 81.1879 13.2544C81.9913 13.2484 82.7924 13.3439 83.572 13.5409H87.868V15.2894C87.3794 15.4326 86.8073 15.5759 86.3246 15.7191C86.6573 16.3964 86.8244 17.1424 86.8132 17.8973V19.2162C86.8132 22.0569 85.0975 23.7756 81.1998 23.7756C80.9195 23.782 80.639 23.772 80.3598 23.7458ZM81.158 16.0593C79.4423 16.0593 78.8403 16.6918 78.8403 18.0107V19.0909C78.8403 20.4694 79.5251 20.9827 81.158 20.9827C82.791 20.9827 83.5064 20.4396 83.5064 19.0909V18.0107C83.5123 16.7038 82.9103 16.0652 81.164 16.0652L81.158 16.0593ZM96.5922 16.4651C95.3123 17.0457 94.079 17.724 92.9033 18.4941V27.5055H89.3876V13.5409H92.367L92.5938 15.0865C93.7297 14.3176 94.9619 13.7016 96.2587 13.2544L96.5922 16.4651ZM108.272 27.5055H105.412L105.155 26.5566C103.915 27.3651 102.465 27.7944 100.984 27.7919C98.434 27.7919 97.3493 26.0433 97.3493 23.6145C97.3493 20.7738 98.5824 19.6877 101.413 19.6877H104.762V18.2435C104.762 16.6978 104.333 16.1488 102.098 16.1488C100.798 16.1624 99.5025 16.3064 98.2311 16.5785L97.8021 13.9109C99.3547 13.4796 100.958 13.2568 102.569 13.2484C106.949 13.2484 108.236 14.7941 108.236 18.2972L108.272 27.5055ZM104.78 22.2299H102.206C101.061 22.2299 100.746 22.5462 100.746 23.6085C100.746 24.6708 101.061 25.0109 102.146 25.0109C103.07 24.9976 103.976 24.7513 104.78 24.2948V22.2299ZM118.665 27.5055V17.7541C118.665 17.0081 118.349 16.6381 117.551 16.6381C116.272 16.7886 115.035 17.1944 113.916 17.8317V27.5055H110.423V13.5409H113.087L113.433 14.7344C115.172 13.8629 117.074 13.3649 119.017 13.2723C121.335 13.2723 122.163 14.9075 122.163 17.402V27.5472L118.665 27.5055ZM132.437 27.2429C131.452 27.5879 130.418 27.7713 129.374 27.7859C126.823 27.7859 125.536 26.5924 125.536 24.0859V16.3278H123.444V13.5409H125.536V10.0736L129.028 9.58422V13.5409H132.603L132.377 16.3218H129.028V23.6324C128.984 23.9761 129.103 24.3207 129.349 24.5641C129.596 24.8075 129.943 24.9201 130.285 24.8677C130.877 24.8498 131.464 24.7534 132.031 24.5812L132.437 27.2429Z" fill="black"/>
<path d="M29.868 0L34.5818 2.75711L26.7215 7.32843L26.7213 7.33364L34.5818 2.75711V6.03342L24.027 31.9157L17.2878 35.806L17.2879 35.8067L17.2875 35.8063L17.2872 35.8067L17.287 35.806L10.6129 31.9455L0 6.13487V2.75711L4.71454 0L12.5808 4.61309L12.5536 4.62846L12.5749 4.63696V7.75214L17.2879 18.7746L17.2878 22.457L17.2886 22.4567V18.7746L22.0077 7.75214V4.60712H22.0136L29.868 0Z" fill="#1159CC"/>
<path d="M29.868 0L22.0136 4.60712H22.0077V7.75214L17.2886 18.7746V22.4567L14.1481 24.2829L7.86105 10.1034V7.32843L12.5808 4.61309L4.71454 0L0 2.75711V6.13487L10.6129 31.9455L17.2879 35.8067V26.109L20.4344 24.2829L20.3926 24.259L26.7215 10.1034V7.32843L34.5818 2.75711L29.868 0Z" fill="#127EFF"/>
</g>
<defs>
<clipPath id="clip0_78_1031">
<rect width="132.604" height="36" fill="white"/>
</clipPath>
</defs>
</svg>
