<svg width="160" height="24" viewBox="0 0 160 24" fill="none" xmlns="http://www.w3.org/2000/svg">
<path d="M43.0211 9.88075C41.6955 9.88075 40.1727 10.5217 40.1727 15.5083C40.1727 20.4948 41.6955 21.1336 43.0211 21.1336C43.8456 21.1336 44.9457 20.887 45.4958 18.9619C45.6548 18.4068 46.1929 18.0493 46.7658 18.0743C47.6045 18.1069 48.1709 18.9358 47.9324 19.7474C47.1873 22.2895 45.5698 23.5313 43.0211 23.5313C39.3329 23.5313 37.6163 20.9815 37.6163 15.5072C37.6163 10.0339 39.3329 7.48417 43.0211 7.48417C45.5698 7.48417 47.1873 8.72483 47.9334 11.267C48.1709 12.0785 47.6045 12.9074 46.7658 12.9411C46.1929 12.9639 45.6548 12.6076 45.4958 12.0524C44.9457 10.1284 43.8456 9.88075 43.0211 9.88075ZM57.7691 17.4355C57.7691 14.9368 56.9086 13.669 55.2094 13.669C53.5124 13.669 52.652 14.9368 52.652 17.4355C52.652 19.9331 53.5124 21.1999 55.2105 21.1999C56.9075 21.1999 57.7691 19.9331 57.7691 17.4355ZM55.2094 11.3387C58.4804 11.3387 60.282 13.5039 60.282 17.4355C60.282 21.3661 58.4804 23.5302 55.2105 23.5302C51.9396 23.5302 50.1391 21.3661 50.1391 17.4355C50.1391 13.5028 51.9396 11.3387 55.2105 11.3387H55.2094ZM69.9575 17.1661C69.9575 15.0096 68.9445 13.669 67.3107 13.669C65.1617 13.669 64.8403 16.0276 64.8403 17.4355C64.8403 18.8413 65.1617 21.1999 67.3107 21.1999C68.9445 21.1999 69.9575 19.8604 69.9575 17.7039V17.165V17.1661ZM69.9575 12.6054V7.8644C69.9575 7.18324 70.5054 6.63135 71.1807 6.63135C71.856 6.63135 72.4039 7.18324 72.4039 7.8644V22.1287C72.4039 22.7556 71.8996 23.2629 71.2798 23.2629C70.4967 23.2466 70.1492 22.836 70.1122 22.144C69.4238 23.0554 68.3738 23.5313 67.0221 23.5313C64.0822 23.5313 62.3275 21.252 62.3275 17.4355C62.3275 13.6744 64.1182 11.3387 67.0003 11.3387C68.242 11.3387 69.2615 11.7809 69.9575 12.6054ZM77.7117 16.0449H82.6676C82.3768 14.4479 81.5632 13.669 80.1897 13.669C78.8172 13.669 78.0036 14.4469 77.7117 16.0449ZM85.2121 16.1319C85.223 16.2133 85.2306 16.2948 85.2371 16.3741C85.3232 17.3758 84.5542 18.2405 83.5564 18.2405H77.6343C77.8141 20.258 78.6822 21.201 80.3465 21.201C81.1558 21.201 81.7668 20.9554 82.1949 20.4937C82.88 19.7561 83.4323 19.491 84.162 19.8365C84.796 20.1352 84.9931 20.8044 84.5683 21.465C83.697 22.8175 82.2614 23.5313 80.3236 23.5313C76.9525 23.5313 75.0965 21.3585 75.0965 17.4127C75.0965 13.4952 76.9046 11.3376 80.1897 11.3376C83.0979 11.3376 84.8406 13.028 85.2121 16.1329V16.1319ZM89.7105 23.2629C89.0712 23.2629 88.5538 22.7415 88.5538 22.0972V8.91712C88.5538 8.27397 89.0712 7.75251 89.7095 7.75251H96.8722C97.5116 7.75251 98.0289 8.27397 98.0289 8.91712C98.0289 9.56135 97.5116 10.0828 96.8722 10.0828H91.0448V14.2068H95.5379C96.1762 14.2068 96.6936 14.7293 96.6936 15.3725C96.6936 16.0167 96.1762 16.5382 95.5379 16.5382H91.0448V22.0972C91.0448 22.7404 90.5264 23.2629 89.887 23.2629H89.7095H89.7105ZM107.124 18.5111H104.436C103.491 18.5111 102.366 18.7479 102.366 19.8777C102.366 21.0293 103.44 21.201 104.08 21.201C105.768 21.201 107.053 20.0537 107.124 18.5111ZM104.902 11.3376C107.958 11.3376 109.574 12.8499 109.574 15.7082V22.1092C109.574 22.7469 109.061 23.2608 108.43 23.2586C107.557 23.2412 107.252 22.7523 107.272 21.9962C106.441 22.9816 105.192 23.5313 103.722 23.5313C101.373 23.5313 99.8534 22.1059 99.8534 19.9006C99.8534 17.5746 101.481 16.2926 104.436 16.2926H107.126V15.8211C107.126 14.3534 106.405 13.669 104.857 13.669C103.964 13.669 103.327 13.8819 102.991 14.3599C102.938 14.4358 102.89 14.5157 102.849 14.599C102.634 15.027 102.214 15.3051 101.74 15.3051C100.86 15.3051 100.237 14.3915 100.6 13.5843C100.665 13.4381 100.74 13.2968 100.826 13.1617C101.471 12.1589 102.66 11.3376 104.902 11.3376ZM117.781 21.201C119.001 21.201 119.63 20.372 119.929 19.7658C120.122 19.3737 120.528 19.139 120.961 19.139H121.201C122.057 19.139 122.618 20.045 122.242 20.8218C121.455 22.5796 119.908 23.5313 117.781 23.5313C114.511 23.5313 112.709 21.365 112.709 17.4355C112.709 13.5571 114.463 11.3974 117.65 11.3387C119.483 11.3061 121.099 12.3186 122.04 13.8178L122.076 13.8798C122.555 14.6837 121.954 15.7092 121.023 15.7092C120.563 15.7092 120.136 15.4518 119.94 15.0313C119.879 14.8996 119.807 14.7729 119.726 14.6522C119.288 14.008 118.65 13.669 117.781 13.669C116.084 13.669 115.223 14.9368 115.223 17.4355C115.223 19.9342 116.084 21.201 117.781 21.201ZM132.796 19.2053C132.796 18.448 133.144 18.0276 133.946 18.0396C134.638 18.0396 135.199 18.6045 135.199 19.3019V19.4301C135.199 22.1027 133.627 23.6084 130.901 23.5291C128.735 23.465 127.034 21.6127 127.034 19.4301V13.87H125.378C124.757 13.87 124.254 13.3637 124.254 12.739C124.254 12.1133 124.757 11.607 125.377 11.607H127.148L127.179 8.8704C127.186 8.25116 127.686 7.75251 128.302 7.75251H128.358C128.978 7.75251 129.48 8.25985 129.48 8.88453V11.607H133.274C133.895 11.607 134.396 12.1133 134.396 12.739C134.396 13.3637 133.895 13.87 133.274 13.87H129.481V19.2042C129.481 20.975 130.361 21.201 131.127 21.201C132.282 21.201 132.796 20.5861 132.796 19.2053ZM144.962 17.4344C144.962 14.9357 144.102 13.669 142.404 13.669C140.706 13.669 139.845 14.9368 139.845 17.4355C139.845 19.9331 140.706 21.1999 142.405 21.1999C144.101 21.1999 144.961 19.9331 144.961 17.4355L144.962 17.4344ZM142.404 11.3387C145.675 11.3387 147.475 13.5039 147.475 17.4355C147.475 21.3661 145.675 23.5302 142.404 23.5302C139.133 23.5302 137.332 21.3661 137.332 17.4355C137.332 13.5028 139.133 11.3387 142.404 11.3387ZM156.173 11.3387C158.64 11.3387 159.999 12.9465 159.999 15.8657V16.448C159.999 17.1292 159.451 17.6811 158.776 17.6811C158.101 17.6811 157.553 17.1292 157.553 16.448V16.0895C157.553 14.4838 156.932 13.669 155.707 13.669C154.187 13.669 153.125 14.8673 153.125 16.5838V22.031C153.125 22.7111 152.578 23.2629 151.903 23.2629C151.228 23.2629 150.68 22.7111 150.68 22.031V12.7706C150.68 12.1546 151.159 11.6157 151.769 11.6081C152.695 11.594 152.964 12.097 152.976 12.7988C153.721 11.8504 154.826 11.3376 156.173 11.3376V11.3387Z" fill="#232344"/>
<path d="M5.17707 2.60734C5.17707 4.0479 4.01814 5.21469 2.58908 5.21469C1.15893 5.21469 0 4.0479 0 2.60734C0 1.16679 1.15893 0 2.58908 0C4.01814 0 5.17707 1.16679 5.17707 2.60734ZM5.17707 11.8004C5.17707 13.2399 4.01814 14.4077 2.58908 14.4077C1.15893 14.4077 0 13.2399 0 11.8004C0 10.3598 1.15893 9.19306 2.58908 9.19306C4.01814 9.19306 5.17707 10.3598 5.17707 11.8004ZM5.17707 20.9924C5.17707 22.4329 4.01814 23.5997 2.58908 23.5997C1.15893 23.5997 0 22.4329 0 20.9924C0 19.5518 1.15893 18.385 2.58908 18.385C4.01814 18.385 5.17707 19.5518 5.17707 20.9924Z" fill="#F44A6A"/>
<path d="M11.0316 0C9.60254 0 8.4436 1.16679 8.4436 2.60734C8.4436 4.0479 9.60254 5.21469 11.0316 5.21469H20.8346C22.2636 5.21469 23.4215 4.0479 23.4215 2.60734C23.4215 1.16679 22.2636 0 20.8335 0H11.0305H11.0316Z" fill="url(#paint0_linear_78_1042)"/>
<path d="M11.0316 9.19202C9.60254 9.19202 8.4436 10.3599 8.4436 11.7994C8.4436 13.2399 9.60254 14.4078 11.0316 14.4078H16.628C18.0571 14.4078 19.216 13.2399 19.216 11.8004C19.216 10.3599 18.0571 9.1931 16.628 9.1931H11.0316V9.19202Z" fill="url(#paint1_linear_78_1042)"/>
<defs>
<linearGradient id="paint0_linear_78_1042" x1="8.4433" y1="2.60724" x2="23.4218" y2="2.60724" gradientUnits="userSpaceOnUse">
<stop stop-color="#0AA1A5"/>
<stop offset="1" stop-color="#50D690"/>
</linearGradient>
<linearGradient id="paint1_linear_78_1042" x1="8.44339" y1="11.7998" x2="19.2162" y2="11.7998" gradientUnits="userSpaceOnUse">
<stop stop-color="#0AA1A5"/>
<stop offset="1" stop-color="#50D690"/>
</linearGradient>
</defs>
</svg>
