<svg width="160" height="28" viewBox="0 0 160 28" fill="none" xmlns="http://www.w3.org/2000/svg">
<g clip-path="url(#clip0_78_1021)">
<path d="M55.3481 17.825C56.0134 16.3422 57.4078 15.3326 59.2462 15.3326C61.0845 15.3326 62.4473 16.1843 63.0178 17.825H55.3481ZM67.3912 19.7181C67.3912 15.1746 64.0632 11.5463 59.2145 11.5463C54.6507 11.5463 50.9744 15.206 50.9744 19.7498C50.9744 24.2932 54.3975 27.9531 59.3415 27.9531C62.7654 27.9531 65.2281 26.3088 66.6138 23.9517L63.17 21.9072C62.4394 23.3027 61.037 24.167 59.3731 24.167C57.0912 24.167 55.6652 23.0309 55.1579 21.2956H67.3912V19.7181ZM155.785 19.7181C155.785 17.3834 154.073 15.4902 151.729 15.4902C149.32 15.4902 147.482 17.2887 147.482 19.7181C147.482 22.1475 149.32 23.9777 151.729 23.9777C154.073 23.9777 155.785 22.0531 155.785 19.7181ZM143.235 19.7498C143.235 14.1655 147.355 11.5463 150.936 11.5463C152.996 11.5463 154.612 12.3036 155.658 13.4078V4.60504H160V27.6375H155.658V25.8709C154.612 27.1014 152.933 27.9531 150.873 27.9531C147.513 27.9531 143.235 25.3027 143.235 19.7498ZM140.045 9.4608C141.48 9.4608 142.642 8.3032 142.642 6.87509C142.642 5.44697 141.48 4.28937 140.045 4.28937C138.611 4.28937 137.448 5.44697 137.448 6.87509C137.448 8.3032 138.611 9.4608 140.045 9.4608ZM137.874 11.862H142.216V27.6375H137.874V16.0584L136.299 16.0582L137.874 11.862ZM126.308 11.862H130.618V14.4492C131.411 12.8086 132.837 11.862 134.992 11.862H136.735L135.161 16.0582H133.978C131.664 16.0582 130.65 17.2573 130.65 20.1914V27.6375H126.308V11.862ZM101.882 16.1214C101.882 9.5585 106.858 4.28937 113.703 4.28937C117.128 4.28937 120.007 5.51688 122.092 7.47299C122.94 8.2689 123.657 9.18573 124.225 10.1896L120.359 12.5244C118.933 9.90543 116.746 8.54875 113.735 8.54875C109.52 8.54875 106.256 11.9881 106.256 16.1214C106.256 20.3493 109.457 23.6935 113.894 23.6935C117.253 23.6935 119.63 21.8006 120.454 18.8662H113.196V14.67H125.208V16.4368C125.208 22.621 120.771 27.9531 113.894 27.9531C106.668 27.9531 101.882 22.4949 101.882 16.1214ZM96.6485 19.7181C96.6485 17.3834 94.9372 15.4902 92.5921 15.4902C90.1834 15.4902 88.3451 17.2887 88.3451 19.7181C88.3451 22.1475 90.1834 23.9777 92.5921 23.9777C94.9372 23.9777 96.6485 22.0531 96.6485 19.7181ZM84.0983 19.7498C84.0983 14.1655 88.2182 11.5463 91.7996 11.5463C93.8595 11.5463 95.4759 12.3036 96.5218 13.4078V4.60504H100.864V27.6375H96.5218V25.8709C95.4759 27.1014 93.7963 27.9531 91.7364 27.9531C88.3769 27.9531 84.0983 25.3027 84.0983 19.7498ZM68.4061 11.862H72.7166V13.6288C73.7306 12.3351 75.2838 11.5463 77.0901 11.5463C80.8296 11.5463 83.0799 13.9442 83.0799 18.0143V27.6375H78.6746V18.5822C78.6746 16.4683 77.6922 15.2377 75.7592 15.2377C74.111 15.2377 72.7482 16.3736 72.7482 19.0238V27.6375H68.4061V11.862ZM32.9554 23.8199L36.9806 20.6645C38.1213 22.621 39.9279 23.7567 41.9876 23.7567C44.2381 23.7567 45.4425 22.3056 45.4425 20.7277C45.4425 18.8347 43.1285 18.2355 40.6567 17.4778C37.5511 16.5315 34.0963 15.3326 34.0963 10.9152C34.0963 7.22376 37.3293 4.28937 41.7976 4.28937C45.5692 4.28937 47.7242 5.70923 49.5942 7.63408L45.9493 10.3789C44.9987 8.95929 43.636 8.20181 41.8292 8.20181C39.7693 8.20181 38.6604 9.30622 38.6604 10.7576C38.6604 12.5244 40.8787 13.1242 43.3505 13.9442C46.4884 14.9538 50.0378 16.3422 50.0378 20.7596C50.0378 24.4193 47.1219 27.9531 42.0194 27.9531C37.8363 27.9531 35.0474 26.1866 32.9554 23.8199Z" fill="#212F38"/>
<path d="M27.7613 0V18.4252H18.5075V27.6374H0.000218074L0 9.21241H9.25375V0H27.7613Z" fill="#9DD6E3"/>
<path d="M0.000183105 27.6374H9.25393V18.4248H0.000183105V27.6374Z" fill="#3F72AB"/>
<path d="M18.5074 18.4252H27.7612V9.2124H18.5074V18.4252Z" fill="#00A9D1"/>
<path d="M9.25372 9.21263H18.5075V0H9.25372V9.21263Z" fill="#00A9D1"/>
<path d="M9.25372 18.425H18.5075V9.2124H9.25372V18.425Z" fill="#2191C4"/>
<path d="M18.5074 9.21263H27.7612V0H18.5074V9.21263Z" fill="#3F72AB"/>
</g>
<defs>
<clipPath id="clip0_78_1021">
<rect width="160" height="28" fill="white"/>
</clipPath>
</defs>
</svg>
