<svg width="160" height="36" viewBox="0 0 160 36" fill="none" xmlns="http://www.w3.org/2000/svg">
<path d="M23.1644 1.84354C22.4882 0.699492 21.2737 0 19.9635 0C18.6533 0 17.4389 0.699492 16.7627 1.84354L11.4973 11.0375C19.6825 15.2035 25.0881 23.4807 25.701 32.7864H22.004C21.3923 24.8101 16.6862 17.7594 9.63283 14.2517L4.75956 22.8419C8.71971 24.6526 11.5032 28.3941 12.1455 32.7701H3.65527C3.45072 32.7553 3.26723 32.6365 3.16723 32.4539C3.06723 32.2714 3.06419 32.0498 3.15914 31.8645L5.51175 27.7856C4.71469 27.1076 3.80375 26.5825 2.82305 26.2356L0.494446 30.3145C0.0047718 31.1708 -0.127816 32.1914 0.12634 33.1481C0.380497 34.1048 1.00019 34.9177 1.8468 35.4051C2.39902 35.7223 3.02144 35.8907 3.65527 35.8945H15.2823C15.7215 30.3693 13.2931 25.0125 8.88063 21.7732L10.7291 18.5101C16.2996 22.4105 19.4338 29.0213 18.9713 35.8945H28.8218C29.2887 25.4802 24.2868 15.5988 15.6904 9.95247L19.4274 3.42617C19.6007 3.13012 19.9757 3.03182 20.2676 3.20591C20.6917 3.44249 36.5038 31.5708 36.7999 31.8972C36.9061 32.0912 36.9022 32.3284 36.7898 32.5188C36.6775 32.7092 36.4737 32.8238 36.2558 32.819H32.4468C32.4948 33.8578 32.4948 34.8938 32.4468 35.9272H36.2718C37.2528 35.9337 38.1957 35.5398 38.8902 34.8334C39.5846 34.1269 39.973 33.1665 39.9688 32.1664C39.9692 31.5123 39.7979 30.8701 39.4726 30.3064L23.1644 1.84354ZM99.4402 23.0703L87.6292 7.52143H84.6844V28.3648H87.6692V12.3917L99.8163 28.3648H102.425V7.52143H99.4402V23.0703ZM69.6965 19.2035H80.2832V16.4951H69.6885V10.2217H81.6356V7.51327H66.6477V28.3648H81.7876V25.6564H69.6885L69.6965 19.2035ZM57.2452 16.5604C53.1242 15.5488 51.9719 14.7493 51.9719 12.8077C51.9719 11.0619 53.4842 9.87905 55.7408 9.87905C57.7959 9.94041 59.778 10.6692 61.3983 11.9593L62.9987 9.65063C60.9474 8.0113 58.4027 7.14653 55.7969 7.20327C51.7478 7.20327 48.9231 9.65063 48.9231 13.134C48.9231 16.8867 51.3237 18.1838 55.6928 19.2688C59.5818 20.1825 60.7742 21.0309 60.7742 22.9317C60.7742 24.8324 59.1737 26.0072 56.7011 26.0072C54.2394 25.9957 51.8707 25.0472 50.0594 23.3477L48.2589 25.5422C50.579 27.5745 53.5382 28.6892 56.5971 28.683C60.9822 28.683 63.7989 26.2764 63.7989 22.5564C63.7749 19.4075 61.9505 17.7188 57.2452 16.5604ZM156.559 7.52143L150.406 17.3109L144.292 7.52143H140.723L148.797 20.1253V28.373H151.87V20.0275L160 7.52143H156.559ZM104.842 10.3441H111.539V28.373H114.612V10.3441H121.31V7.52143H104.85L104.842 10.3441ZM135.522 20.2314C138.61 19.3585 140.323 17.1559 140.323 14.0069C140.323 10.0014 137.45 7.48064 132.817 7.48064H123.727V28.3566H126.767V20.8677H131.929L137.114 28.373H140.667L135.066 20.3619L135.522 20.2314ZM126.759 18.1919V10.2788H132.497C135.49 10.2788 137.202 11.7227 137.202 14.2272C137.202 16.7317 135.37 18.1919 132.529 18.1919H126.759Z" fill="#362D59"/>
</svg>
