<svg width="123" height="36" viewBox="0 0 123 36" fill="none" xmlns="http://www.w3.org/2000/svg">
<g clip-path="url(#clip0_78_1037)">
<path d="M10.2968 7.64899C12.6503 7.64899 14.8935 8.43963 16.5116 9.80028V8.07189H21.2187V24.6019C21.2187 31.9199 17.4861 35.6341 10.1313 35.6341C6.5458 35.6341 3.56709 34.2551 1.02968 31.4419L0.478064 30.8167L4.2658 27.838L4.76226 28.4448C6.63774 30.7983 8.75225 31.2948 10.2048 31.2948C14.2316 31.2948 16.291 29.6032 16.4932 26.128C14.8384 27.5438 12.9261 28.1322 10.1864 28.1322C3.89806 28.1322 0 22.7816 0 17.8354C0 12.209 4.61516 7.64899 10.2968 7.64899ZM55.7496 8.07189L61.0819 20.9061L66.4693 8.07189H71.5625L59.6661 35.6157H54.6648L58.3974 26.8451L50.4542 8.07189H55.7496ZM42.3822 7.64899C47.9903 7.64899 51.6125 10.3887 51.6493 14.6361V27.8932H47.1261V26.8635C45.7103 27.8564 44.0922 28.3161 42.088 28.3161C36.9397 28.3161 33.3358 25.3006 33.3358 20.9796C33.3358 17.578 36.0755 13.919 42.0513 13.919C43.8348 13.919 45.4896 14.3787 46.9055 15.2245V14.8935C46.9055 12.5032 44.3497 12.0067 42.2167 12.0067C40.6538 12.0067 39.1645 12.3745 37.5097 13.1835L36.8109 13.5145L34.6964 9.45092L35.4871 9.11995C37.8406 8.12705 40.1022 7.64899 42.3822 7.64899ZM34.4574 7.64899V12.7606L33.5013 12.5216C33.0416 12.4296 32.6187 12.3745 32.2326 12.3745C29.9342 12.3745 28.6287 13.9741 28.6287 16.7506V27.9116H23.9032V8.07189H28.6287V9.13834C30.0261 7.7777 31.5706 7.64899 33.6668 7.64899H34.4574ZM42.6213 18.2583C39.8448 18.2583 38.2451 19.3064 38.2451 21.1267C38.2451 22.947 39.8448 23.9951 42.6213 23.9951C45.3977 23.9951 46.9974 22.947 46.9974 21.1267C46.9974 19.3064 45.3977 18.2583 42.6213 18.2583ZM10.83 12.1722C7.13419 12.1722 4.92774 15.059 4.92774 17.8354C4.92774 21.6967 7.92483 23.7745 10.7381 23.7745C13.919 23.7745 16.5116 21.1819 16.4934 18.0193C16.4934 14.8383 13.9006 12.1722 10.83 12.1722Z" fill="#A6AFBD"/>
<path d="M112.271 8.29258C115.085 8.29258 117.953 9.46935 119.516 11.731H119.59V8.75225H122.881V25.1903C122.881 32.2142 119.516 35.8732 112.124 35.8732C108.76 35.8732 105.799 34.6229 103.225 31.7729L105.854 29.6951C107.877 32.2142 110.212 32.9864 112.18 32.9864C117.31 32.9864 119.571 30.4306 119.571 26.1832V24.8226H119.516C117.714 26.9739 115.857 28.0403 112.161 28.0403C105.762 28.0403 102.342 22.5426 102.342 18.1113C102.342 12.5768 106.884 8.29258 112.271 8.29258ZM89.7841 8.31096C95.7783 8.31096 100.099 12.9261 100.099 18.2951C100.099 23.7561 95.9989 28.261 89.7841 28.261C83.5693 28.261 79.4688 23.7561 79.4688 18.2951C79.4506 12.9261 83.7715 8.31096 89.7841 8.31096ZM75.7364 0V21.8622C75.7364 24.0135 76.8028 24.749 77.8509 24.749H78.8438V27.8197H77.4831C74.4493 27.8197 72.4267 26.0913 72.4267 22.1013V0H75.7364ZM89.7657 11.3816C86.1251 11.3816 82.9625 14.3419 82.9625 18.2951C82.9625 21.9542 86.1067 25.1719 89.7657 25.1719C93.4247 25.1719 96.5689 21.9542 96.5689 18.2951C96.5689 14.3419 93.4247 11.3816 89.7657 11.3816ZM112.86 11.3816C108.392 11.3816 105.873 14.9303 105.873 18.1113C105.873 22.5058 109.311 25.1351 112.75 25.1351C116.519 25.1351 119.59 22.1013 119.59 18.2951C119.59 14.4522 116.445 11.3816 112.86 11.3816Z" fill="#FF3633"/>
<path d="M85.4264 17.7435C85.7022 17.7435 85.9412 17.8906 86.0699 18.1297H86.6767L87.6328 15.8313C87.6696 15.721 87.7799 15.629 87.8902 15.5923C88.0925 15.5555 88.2947 15.6658 88.3315 15.8681L89.3428 20.3177L90.3725 14.3235C90.3909 14.1764 90.5012 14.0661 90.6483 14.0294C90.8505 13.9742 91.0528 14.1029 91.108 14.3052L92.2112 18.81L92.7812 17.1368C92.7996 17.0632 92.8547 16.9897 92.9283 16.9345C93.0938 16.8242 93.3328 16.861 93.4431 17.0264L93.9212 17.7068C93.9396 17.8723 93.9396 18.0377 93.9396 18.2032C93.9396 18.4239 93.9212 18.6445 93.9028 18.8468C93.8293 18.8284 93.7741 18.7732 93.7189 18.7181L93.2409 18.0561L92.5054 20.281C92.4318 20.4832 92.2296 20.5752 92.0273 20.52C91.8986 20.4832 91.8067 20.3729 91.7883 20.2626L90.7954 16.2542L89.7473 22.3403C89.7106 22.5426 89.5267 22.6713 89.3244 22.6529C89.1589 22.6345 89.0486 22.5058 89.0118 22.3403L87.8902 17.1919L87.2835 18.6445C87.2283 18.7916 87.0812 18.8835 86.9341 18.8835H86.0699C85.9412 19.1042 85.7022 19.2513 85.4264 19.2513C85.0218 19.2513 84.6725 18.9203 84.6725 18.4974C84.6909 18.0929 85.0218 17.7435 85.4264 17.7435Z" fill="#A6AFBD"/>
</g>
<defs>
<clipPath id="clip0_78_1037">
<rect width="122.88" height="36" fill="white"/>
</clipPath>
</defs>
</svg>
