<svg width="160" height="36" viewBox="0 0 160 36" fill="none" xmlns="http://www.w3.org/2000/svg">
<path d="M137.696 7.97548C138.817 7.97548 139.919 8.20582 141.011 8.67609C142.103 9.14637 143.023 9.77981 143.789 10.586L141.509 13.3501C141.02 12.6974 140.446 12.208 139.765 11.8433C139.095 11.4786 138.424 11.2962 137.763 11.2962C137.006 11.2962 136.307 11.4882 135.684 11.8721C135.061 12.256 134.572 12.7742 134.208 13.4461C133.854 14.1179 133.672 14.8569 133.672 15.6823C133.672 16.4981 133.854 17.2467 134.208 17.9185C134.563 18.5903 135.061 19.1086 135.684 19.4925C136.307 19.8764 136.996 20.0683 137.763 20.0683C138.376 20.0683 139.028 19.9148 139.698 19.598C140.369 19.2813 140.972 18.8494 141.509 18.3024L143.808 20.7785C142.994 21.6423 142.017 22.3237 140.896 22.842C139.765 23.3507 138.654 23.6098 137.552 23.6098C136.057 23.6098 134.707 23.2643 133.509 22.5733C132.302 21.8823 131.353 20.9417 130.663 19.7516C129.974 18.5615 129.629 17.2179 129.629 15.7399C129.629 14.2714 129.983 12.947 130.683 11.7761C131.382 10.5956 132.35 9.67423 133.576 8.99281C134.802 8.32099 136.172 7.97548 137.696 7.97548ZM120.738 7.94668C122.271 7.94668 123.66 8.2826 124.905 8.96402C126.151 9.63584 127.119 10.5668 127.837 11.7473C128.546 12.9278 128.901 14.2522 128.901 15.7111C128.901 17.1891 128.546 18.5327 127.837 19.7228C127.128 20.9129 126.151 21.8535 124.905 22.5445C123.66 23.2355 122.271 23.581 120.738 23.581C119.205 23.581 117.816 23.2355 116.57 22.5541C115.325 21.8727 114.357 20.9321 113.638 19.7324C112.929 18.5327 112.575 17.1891 112.575 15.7111C112.575 14.2426 112.929 12.9182 113.638 11.7473C114.347 10.5668 115.325 9.64544 116.57 8.96402C117.816 8.29219 119.195 7.94668 120.738 7.94668ZM46.3808 7.85071C47.4731 7.85071 48.5461 8.00427 49.6096 8.31139C50.6731 8.61851 51.6024 9.0312 52.4072 9.54947L50.9222 12.6974C50.0982 12.256 49.2455 11.8721 48.3353 11.5649C47.4251 11.2674 46.6587 11.1139 46.0455 11.1139C45.5569 11.1139 45.1737 11.2002 44.8958 11.3826C44.618 11.5649 44.4743 11.8241 44.4743 12.1696C44.4743 12.4959 44.5988 12.7742 44.8383 13.0046C45.0778 13.2253 45.3844 13.4077 45.7389 13.542C46.0934 13.6764 46.6299 13.8587 47.3293 14.0699C48.3737 14.3674 49.2455 14.6745 49.9257 14.9721C50.606 15.2696 51.1904 15.7399 51.679 16.3637C52.1677 16.9875 52.4072 17.8033 52.4072 18.8111C52.4072 19.8188 52.1389 20.673 51.612 21.3832C51.085 22.0934 50.3569 22.6309 49.4275 22.986C48.4982 23.3411 47.4731 23.5234 46.3425 23.5234C45.097 23.5234 43.8515 23.3027 42.606 22.8612C41.3605 22.4197 40.2874 21.8247 39.3868 21.0569L40.9198 17.9761C41.6766 18.6479 42.5772 19.2046 43.6216 19.6364C44.6659 20.0683 45.5856 20.2795 46.3904 20.2795C46.9749 20.2795 47.4443 20.1739 47.7796 19.9532C48.115 19.742 48.2874 19.4253 48.2874 19.003C48.2874 18.6575 48.1629 18.3696 47.9138 18.1392C47.6647 17.9089 47.3485 17.7265 46.9653 17.5922C46.582 17.4578 46.0551 17.2946 45.3653 17.1027C44.3305 16.8148 43.4778 16.5268 42.8072 16.2293C42.1365 15.9318 41.5521 15.4903 41.0731 14.8953C40.594 14.3002 40.3545 13.5036 40.3545 12.5151C40.3545 11.5841 40.6036 10.7588 41.1018 10.0581C41.6 9.35752 42.2994 8.81046 43.2096 8.42656C44.1198 8.04266 45.1832 7.85071 46.3808 7.85071ZM92.6275 8.18662C94.6204 8.18662 96.1725 8.6473 97.2647 9.57826C98.3665 10.5092 98.9126 11.8145 98.9126 13.494C98.9126 14.6265 98.6826 15.6151 98.2228 16.4405C97.7629 17.2659 97.0922 17.9089 96.2204 18.3696L99.3629 23.3123H94.9078V23.3027L92.7138 19.1182H89.782V23.3027H85.8443V8.18662H92.6275ZM105.37 8.18662V19.9436H111.76V23.3123H101.432V8.18662H105.37ZM58.3569 8.18662V14.3578H64.4503V8.18662H68.388V23.3027H64.4503V17.5058H58.3569V23.3027H54.4192V8.18662H58.3569ZM83.2192 8.18662V11.3346H75.2575V14.1563H82.4431V17.2851L75.2575 17.3042V20.1547H83.4395V23.3027H71.3102V8.18662H83.2192ZM149.432 8.18662V14.7417L155.095 8.18662H159.655L154.06 14.4154L160 23.3027H155.286L151.329 17.4386L149.432 19.5501V23.3027H145.495V8.18662H149.432ZM120.795 11.2866C120.038 11.2866 119.339 11.4786 118.707 11.8721C118.065 12.256 117.566 12.7934 117.193 13.4748C116.819 14.1563 116.637 14.9049 116.637 15.7303C116.637 16.5652 116.829 17.3234 117.212 18.0049C117.595 18.6863 118.093 19.2237 118.726 19.6268C119.358 20.0203 120.048 20.2219 120.795 20.2219C121.543 20.2219 122.223 20.0203 122.855 19.6268C123.478 19.2333 123.966 18.6959 124.331 18.0049C124.685 17.3234 124.867 16.5652 124.867 15.7303C124.867 14.9145 124.685 14.1563 124.331 13.4748C123.976 12.7934 123.478 12.256 122.855 11.8721C122.232 11.4882 121.543 11.2866 120.795 11.2866ZM92.6467 11.3346H89.782V15.9702H92.6467C93.4515 15.9702 94.0742 15.7686 94.5054 15.3656C94.9461 14.9625 95.1665 14.377 95.1665 13.6188C95.1665 12.8894 94.9461 12.3231 94.5054 11.9296C94.0647 11.5361 93.4515 11.3346 92.6467 11.3346Z" fill="black"/>
<path d="M22.2755 29.6371C22.1222 29.6371 21.9785 29.5508 21.9114 29.4068C21.8156 29.2052 21.8923 28.9557 22.0935 28.8597C24.4695 27.6696 26.4527 25.8557 27.8324 23.6195C29.2408 21.3353 29.9785 18.6576 29.9785 15.8743C29.9785 10.7876 27.4012 6.14244 23.0803 3.45514C22.8887 3.33997 22.8312 3.08084 22.9462 2.88889C23.0611 2.69694 23.3198 2.63936 23.5114 2.75453C25.6959 4.11737 27.5162 6.01768 28.7905 8.25389C30.103 10.5669 30.7929 13.1966 30.7929 15.8647C30.7929 18.8015 30.0072 21.6232 28.5222 24.0418C27.0659 26.4124 24.9677 28.3319 22.4575 29.5795C22.4 29.6275 22.3426 29.6371 22.2755 29.6371Z" fill="#FFC700"/>
<path d="M8.64192 29.4835C8.58443 29.4835 8.51737 29.4739 8.45988 29.4355C3.08503 26.7194 0 21.7767 0 15.8743C0 9.61669 3.72695 4.02135 9.49461 1.62198C9.70539 1.5356 9.94491 1.63157 10.0311 1.84272C10.1174 2.05386 10.0216 2.2938 9.81078 2.38018C4.3497 4.65479 0.823952 9.95261 0.823952 15.8743C0.823952 21.4504 3.74611 26.134 8.83353 28.7157C9.03473 28.8213 9.11138 29.0612 9.01557 29.2628C8.92934 29.4067 8.78563 29.4835 8.64192 29.4835Z" fill="#FFC700"/>
<path d="M15.4442 25.7117C15.7121 26.0294 15.8399 26.4874 15.8811 26.8907C16.4679 26.7983 17.1121 26.591 17.7053 26.1724C17.8778 26.0476 18.1173 26.0956 18.2418 26.2684C18.3664 26.4411 18.3185 26.6811 18.146 26.8058C17.0826 27.5448 15.9233 27.7272 15.0418 27.7272C14.2754 27.7272 13.7388 27.5928 13.6909 27.5736C13.4897 27.516 13.3652 27.3145 13.4227 27.1033C13.4802 26.9018 13.6814 26.777 13.8921 26.8346C13.9061 26.8393 14.4109 26.9646 15.12 26.9545C15.0918 26.6726 15.0063 26.3758 14.8598 26.2012C14.6586 25.9612 14.2658 25.8269 13.873 25.8653C13.6526 25.8845 13.2502 25.9804 13.0299 26.3739C12.9053 26.6043 12.9149 27.1801 12.9149 27.4585L12.9149 28.1357C12.9149 28.1771 12.9149 28.218 12.9149 28.2584L12.9146 28.9255C12.9146 28.9593 12.9146 28.9926 12.9145 29.0253L12.9143 29.2153C12.9134 29.8882 12.9112 30.302 12.9053 30.4721C12.8957 30.76 12.8957 31.0671 12.9053 31.3934C12.9149 32.7755 12.9341 34.3399 12.0335 35.242C11.5927 35.6835 10.97 35.9138 10.1844 35.9138C9.07298 35.9138 8.28735 35.5587 7.85622 34.8677C7.52089 34.3303 7.47298 33.7352 7.47298 33.2169V30.7024C7.47298 30.4913 7.64544 30.3185 7.85622 30.3185H10.9891C11.1999 30.3185 11.3724 30.4913 11.3724 30.7024V32.7371C11.3724 32.9482 11.1999 33.121 10.9891 33.121C10.7784 33.121 10.6059 32.9482 10.6059 32.7371V31.0863H8.23945V33.2169C8.23945 34.2247 8.47897 35.1556 10.1844 35.1556C10.7688 35.1556 11.1903 35.0117 11.4969 34.7046C12.1676 34.0327 12.158 32.6315 12.1389 31.403C12.1389 31.0671 12.1293 30.7504 12.1389 30.4433C12.1444 30.2921 12.1468 29.9058 12.1477 29.2882L12.148 29.1054C12.148 29.0739 12.148 29.0419 12.1481 29.0093L12.1483 28.7022C12.1483 28.6665 12.1483 28.6303 12.1483 28.5936L12.1484 27.468C12.1389 26.9306 12.1484 26.3739 12.3592 25.9996C12.6466 25.491 13.164 25.1646 13.7963 25.1071C14.4478 25.0495 15.0802 25.2798 15.4442 25.7117ZM24.8047 19.0222C24.8622 19.1086 26.1556 21.1913 26.5868 24.1857C26.6155 24.3585 26.5197 24.5216 26.3664 24.5888C24.8526 25.251 23.1089 28.3318 22.5724 29.4547C22.5149 29.5987 22.3808 29.6755 22.2371 29.6755C22.1796 29.6755 22.1221 29.6659 22.0742 29.6371C21.8826 29.5411 21.8059 29.3204 21.8921 29.1284C21.9688 28.9557 23.8275 25.155 25.8011 24.0321C25.5137 22.2662 24.9101 20.8554 24.5173 20.078L20.158 29.4259C20.0909 29.5603 19.9568 29.6467 19.8131 29.6467H13.8347C13.6239 29.6467 13.4514 29.4739 13.4514 29.2628C13.4514 29.0516 13.6239 28.8789 13.8347 28.8789H19.564L24.1341 19.0606C24.1915 18.9359 24.3161 18.8495 24.4598 18.8399C24.6035 18.8303 24.7281 18.8975 24.8047 19.0222ZM6.82148 18.9647C6.94604 18.9839 7.05142 19.0702 7.09933 19.1854L11.6215 29.0996C11.7077 29.2916 11.6215 29.5219 11.4299 29.6083C11.382 29.6371 11.3245 29.6467 11.2766 29.6467C11.1329 29.6467 10.9891 29.5603 10.9317 29.4259L6.65861 20.0396C6.08376 20.769 5.02987 22.3238 4.95322 24.0897C6.92687 25.3854 9.00592 28.9173 9.09214 29.0708C9.19753 29.2532 9.14005 29.4835 8.95801 29.5987C8.77598 29.7043 8.54604 29.6467 8.43107 29.4643L8.42911 29.4608L8.40937 29.4269C8.17673 29.0321 6.12752 25.6536 4.37837 24.6368C4.2634 24.5696 4.18675 24.4448 4.18675 24.3009C4.18675 21.4504 6.39993 19.1662 6.48616 19.0702C6.57238 18.9839 6.69693 18.9359 6.82148 18.9647ZM17.0538 0C17.2707 0 17.4526 0.134542 17.5219 0.325989C18.0454 0.388884 18.9526 0.547054 19.7224 0.921122C19.8497 0.673506 20.1394 0.509488 20.4646 0.65263C22.1508 1.40124 23.9808 2.86965 25.2167 5.05788C25.2167 5.05788 25.2193 5.06211 25.2243 5.07041L25.2376 5.0924C25.4496 5.4477 27.2012 8.48939 26.9221 11.565C26.8903 11.9474 26.5827 12.124 26.2932 12.0901C26.4131 12.2874 26.4873 12.4849 26.5197 12.6783C26.5484 12.8127 26.6921 13.5421 26.2035 14.1755C25.7895 14.7225 25.0517 15.0181 24.0197 15.0623C24.4792 16.2777 24.4023 17.4706 24.4023 17.525C24.3927 17.717 24.2299 17.8705 24.0287 17.8705H23.9999C23.7892 17.8514 23.6263 17.669 23.6454 17.4579C23.6454 17.4537 23.649 17.3959 23.6497 17.2966L23.6497 17.2244C23.6468 16.8212 23.5941 15.9595 23.2335 15.1449C23.2222 15.1199 23.2139 15.0942 23.2084 15.0683L22.467 15.0681C21.8155 15.0681 21.0299 15.0777 20.1868 15.0777C19.399 15.0777 18.5599 15.0745 17.7214 15.0662C17.5446 15.6242 17.4562 16.307 17.4562 17.1507V21.6328C17.4658 22.3622 17.4562 23.1684 17.2454 23.6098C16.9484 24.2241 16.3065 24.5984 15.5305 24.608C15.5209 24.6272 15.5113 24.6272 15.4921 24.6272C14.7065 24.6272 13.9688 24.2433 13.6622 23.6674C13.4035 23.1876 13.4131 22.6405 13.4227 21.9495C13.4227 21.7383 13.4323 21.5272 13.4227 21.2873C13.4227 21.0761 13.5856 20.9034 13.7963 20.8938C14.0071 20.8842 14.1796 21.0569 14.1891 21.2681V21.9495C14.1796 22.5349 14.17 22.9956 14.3329 23.3027C14.5149 23.6386 14.9939 23.869 15.5113 23.8594C15.7412 23.8594 16.3065 23.7922 16.5556 23.2835C16.7089 22.9668 16.6993 22.0167 16.6897 21.652V17.1603C16.6897 16.3373 16.7713 15.6461 16.9292 15.0564C16.5866 15.0519 16.2469 15.0461 15.9137 15.0393C13.6526 15.0873 11.0658 15.0777 9.35083 15.0681H8.07657C7.07059 15.0681 6.30412 14.7993 5.82508 14.2619C5.25981 13.638 5.27897 12.8702 5.28855 12.7359C5.28855 12.4733 5.36311 12.2175 5.51023 11.9705C5.1864 12.2247 4.63244 12.0853 4.58915 11.565C4.29214 8.29224 6.29454 5.05788 6.29454 5.05788C7.53047 2.86965 9.36041 1.40124 11.0466 0.65263C11.351 0.518656 11.6243 0.653757 11.7629 0.874891C12.7454 0.422994 13.9193 0.310469 14.235 0.28469C14.3131 0.117133 14.485 0 14.6874 0H17.0538ZM20.752 16.7572C21.17 16.7572 21.5089 17.0924 21.5089 17.5058C21.5089 17.9193 21.17 18.2544 20.752 18.2544C20.334 18.2544 19.9951 17.9193 19.9951 17.5058C19.9951 17.0924 20.334 16.7572 20.752 16.7572ZM12.9149 17.0068C13.1257 17.0068 13.2981 17.1795 13.2981 17.3907C13.2981 17.6018 13.1257 17.7746 12.9149 17.7746H9.38915C9.17837 17.7746 9.00592 17.6018 9.00592 17.3907C9.00592 17.1795 9.17837 17.0068 9.38915 17.0068H12.9149ZM6.38077 11.9681C6.10292 12.2368 5.96879 12.4959 5.96879 12.7455V12.7743C5.96879 12.7743 5.96781 12.7862 5.96734 12.808L5.96719 12.8477C5.96938 13.0186 6.00917 13.4543 6.33286 13.8012C6.68735 14.1851 7.27178 14.3771 8.07657 14.3771H9.35083C10.0605 14.385 10.9194 14.3913 11.8428 14.3926L12.546 14.3925C13.5755 14.3909 14.6557 14.3824 15.6787 14.3626L15.9137 14.3579C17.1612 14.3843 18.5078 14.3933 19.7509 14.3944L20.2118 14.3944C21.0464 14.3939 21.8201 14.3903 22.467 14.3867H23.7412C24.6897 14.3867 25.3508 14.1755 25.667 13.7628C25.9832 13.3501 25.8586 12.8415 25.8586 12.8415L25.849 12.8031C25.7436 12.16 24.843 11.4786 23.4347 10.9795C21.6143 10.3461 19.0179 10.0102 15.9041 10.0102H15.8945C12.2921 9.88543 7.9616 10.4421 6.38077 11.9681ZM17.6319 1.82849L17.66 1.85382C17.9277 2.09606 18.235 2.42881 18.5484 2.87925C19.9018 4.81478 20.3698 7.52951 20.5138 9.61365C22.7392 9.92435 24.2674 10.4604 25.2278 11.0742C24.8523 9.28413 24.2562 7.18004 23.0802 5.41299C21.76 3.42936 19.9357 2.22795 17.6319 1.82849ZM13.5943 1.8678L13.5148 1.88213C11.9241 2.18053 10.5948 2.80716 9.55202 3.75262C8.70891 4.52042 8.01909 5.52816 7.51131 6.73745C7.01215 7.93925 6.68108 9.37359 6.5181 11.0038C7.50063 10.3692 9.00199 9.88806 10.8208 9.60385C10.9708 7.53011 11.4431 4.85207 12.7712 2.86965C13.0595 2.4427 13.3427 2.11536 13.5943 1.8678ZM15.8275 1.67956C15.206 1.67956 14.6137 1.71826 14.0515 1.79527C13.1463 2.55995 11.4249 4.6413 11.0633 9.567C12.5209 9.35684 14.1706 9.2702 15.9137 9.32877C17.5796 9.32877 19.0192 9.41983 20.2531 9.57855C19.8885 4.34543 17.9975 2.38417 17.1321 1.75551C16.7124 1.70487 16.2774 1.67956 15.8275 1.67956ZM17.5441 0.584837C17.5204 0.715722 17.4453 0.827719 17.3396 0.900458C18.2057 1.01135 19.0144 1.2218 19.764 1.53076C19.6799 1.42089 19.6468 1.29446 19.6533 1.17086C18.9369 0.81467 18.0687 0.653742 17.5441 0.584837ZM11.9201 1.08292L11.8521 1.11385C11.8679 1.21855 11.856 1.32753 11.8092 1.42854C12.5904 1.15305 13.4441 0.968912 14.37 0.876333C14.2591 0.786616 14.1891 0.650457 14.1891 0.49907L14.1926 0.538616C13.8231 0.572199 12.7917 0.69707 11.9201 1.08292Z" fill="#150007"/>
</svg>
