<svg width="29" height="29" viewBox="0 0 29 29" fill="none" xmlns="http://www.w3.org/2000/svg">
<path d="M26.6828 20.5144V8.20632C26.6828 7.07124 25.7665 6.15497 24.6314 6.15497H5.47179C4.33671 6.15497 3.42044 7.07124 3.42044 8.20632V20.5144C3.42044 21.6495 4.33671 22.5658 5.47179 22.5658H24.6314C25.7665 22.5658 26.6828 21.6495 26.6828 20.5144ZM24.8913 8.05589C25.3426 8.50718 25.0964 8.97216 24.8502 9.20464L19.2979 14.292L24.6314 19.8443C24.7955 20.0358 24.9049 20.3366 24.7135 20.5418C24.5357 20.7606 24.1254 20.7469 23.9476 20.6102L17.9714 15.5091L15.0448 18.1759L12.1318 15.5091L6.15558 20.6102C5.97779 20.7469 5.56752 20.7606 5.38974 20.5418C5.19828 20.3366 5.30768 20.0358 5.47179 19.8443L10.8053 14.292L5.25298 9.20464C5.00682 8.97216 4.76066 8.50718 5.21195 8.05589C5.66325 7.60459 6.12822 7.8234 6.51114 8.15162L15.0448 15.0442L23.5921 8.15162C23.975 7.8234 24.44 7.60459 24.8913 8.05589V8.05589Z" fill="#FFB072"/>
</svg>
