<svg width="30" height="29" viewBox="0 0 30 29" fill="none" xmlns="http://www.w3.org/2000/svg">
<path d="M9.29554 6.88775V9.00586H7.88347C7.50897 9.00586 7.1498 9.15463 6.88499 9.41944C6.62018 9.68426 6.47141 10.0434 6.47141 10.4179V21.7145C6.47141 22.3033 6.58155 22.854 6.80324 23.3694C7.02352 23.8764 7.32853 24.3254 7.71826 24.7151C8.51206 25.5062 9.58696 25.9504 10.7076 25.9507H15.0638C14.9308 25.5737 14.9072 25.1669 14.9956 24.7771C15.0841 24.3873 15.281 24.0305 15.5637 23.7479L16.3559 22.9557V21.473C15.53 21.1807 14.8151 20.6396 14.3094 19.9242C13.8038 19.2088 13.5323 18.3543 13.5323 17.4783C13.5323 16.6022 13.8038 15.7477 14.3094 15.0323C14.8151 14.3169 15.53 13.7758 16.3559 13.4835V6.88775C16.3583 6.27262 16.1985 5.66771 15.8927 5.13397C16.2387 4.89109 16.6284 4.76965 17.0619 4.76965C17.479 4.76567 17.8877 4.88641 18.2357 5.11638C18.5837 5.34634 18.855 5.67504 19.0148 6.06028C19.125 6.31728 19.18 6.59404 19.18 6.88775V9.00586H17.768V13.2421C18.8625 13.2419 19.9145 13.6654 20.7037 14.4238C21.4929 15.1822 21.9579 16.2166 22.0013 17.3102L23.4162 15.8953V10.4179C23.4162 10.0434 23.2675 9.68426 23.0026 9.41944C22.7378 9.15463 22.3787 9.00586 22.0042 9.00586H20.5921V6.88775C20.5921 6.402 20.5003 5.9459 20.3167 5.51946C20.05 4.87681 19.598 4.32808 19.0184 3.94309C18.4388 3.55811 17.7577 3.35429 17.0619 3.35758C16.2997 3.35726 15.5588 3.60952 14.9551 4.07491C14.6541 3.84732 14.3191 3.66862 13.9624 3.54539C13.5968 3.41922 13.2125 3.35573 12.8257 3.35758C12.34 3.35758 11.8839 3.44937 11.4574 3.63294C11.0239 3.81651 10.6483 4.07068 10.332 4.39404C10.0086 4.71035 9.75446 5.08596 9.5709 5.51946C9.38733 5.9459 9.29554 6.402 9.29554 6.88775ZM14.9438 6.88775V9.00586H10.7076V6.88775C10.7036 6.47069 10.8244 6.06194 11.0543 5.71398C11.2843 5.36601 11.613 5.0947 11.9982 4.93486C12.2552 4.82472 12.532 4.76965 12.8257 4.76965C13.2428 4.76567 13.6515 4.88641 13.9995 5.11638C14.3475 5.34634 14.6188 5.67504 14.7786 6.06028C14.8887 6.31728 14.9438 6.59404 14.9438 6.88775ZM17.768 20.3024C18.517 20.3024 19.2353 20.0049 19.7649 19.4752C20.2945 18.9456 20.5921 18.2273 20.5921 17.4783C20.5921 16.7293 20.2945 16.0109 19.7649 15.4813C19.2353 14.9517 18.517 14.6541 17.768 14.6541C17.0189 14.6541 16.3006 14.9517 15.771 15.4813C15.2414 16.0109 14.9438 16.7293 14.9438 17.4783C14.9438 18.2273 15.2414 18.9456 15.771 19.4752C16.3006 20.0049 17.0189 20.3024 17.768 20.3024ZM17.768 16.0662C18.1425 16.0662 18.5016 16.215 18.7664 16.4798C19.0312 16.7446 19.18 17.1038 19.18 17.4783C19.18 17.8528 19.0312 18.2119 18.7664 18.4768C18.5016 18.7416 18.1425 18.8903 17.768 18.8903C17.3934 18.8903 17.0343 18.7416 16.7695 18.4768C16.5047 18.2119 16.3559 17.8528 16.3559 17.4783C16.3559 17.1038 16.5047 16.7446 16.7695 16.4798C17.0343 16.215 17.3934 16.0662 17.768 16.0662ZM24.8283 27.3627C25.5773 27.3627 26.2956 27.0652 26.8253 26.5356C27.3549 26.0059 27.6524 25.2876 27.6524 24.5386C27.6524 23.7896 27.3549 23.0713 26.8253 22.5416C26.2956 22.012 25.5773 21.7145 24.8283 21.7145C24.0793 21.7145 23.361 22.012 22.8313 22.5416C22.3017 23.0713 22.0042 23.7896 22.0042 24.5386C22.0042 25.2876 22.3017 26.0059 22.8313 26.5356C23.361 27.0652 24.0793 27.3627 24.8283 27.3627ZM24.8283 23.1265C25.2028 23.1265 25.562 23.2753 25.8268 23.5401C26.0916 23.8049 26.2404 24.1641 26.2404 24.5386C26.2404 24.9131 26.0916 25.2723 25.8268 25.5371C25.562 25.8019 25.2028 25.9507 24.8283 25.9507C24.4538 25.9507 24.0946 25.8019 23.8298 25.5371C23.565 25.2723 23.4162 24.9131 23.4162 24.5386C23.4162 24.1641 23.565 23.8049 23.8298 23.5401C24.0946 23.2753 24.4538 23.1265 24.8283 23.1265ZM26.0342 17.2721C26.1668 17.1395 26.2413 16.9597 26.2413 16.7722C26.2413 16.5847 26.1668 16.4049 26.0342 16.2724C25.9016 16.1398 25.7218 16.0653 25.5343 16.0653C25.3468 16.0653 25.167 16.1398 25.0345 16.2724L16.562 24.7448C16.4295 24.8773 16.355 25.0572 16.355 25.2446C16.355 25.4321 16.4295 25.6119 16.562 25.7445C16.6946 25.8771 16.8744 25.9516 17.0619 25.9516C17.2494 25.9516 17.4292 25.8771 17.5618 25.7445L26.0342 17.2721Z" fill="#FFB072"/>
</svg>
