<svg width="29" height="23" viewBox="0 0 29 23" fill="none" xmlns="http://www.w3.org/2000/svg">
<g clip-path="url(#clip0_78_951)">
<path d="M17.8169 21.0255V20.9426H12.5946V21.0255L12.5955 21.0666C12.5955 21.5262 12.4129 21.9671 12.0879 22.2921C11.7629 22.6171 11.322 22.7997 10.8624 22.7997C10.4027 22.7997 9.96186 22.6171 9.63683 22.2921C9.3118 21.9671 9.1292 21.5262 9.1292 21.0666L9.13011 21.0237V20.9426H8.53476C8.28094 20.9426 8.03475 20.8558 7.83706 20.6966C7.63938 20.5374 7.50209 20.3153 7.448 20.0673L7.44709 20.06L3.96708 3.58267L0.993992 3.08761C0.710835 3.03041 0.461001 2.86538 0.297271 2.62739C0.133541 2.38939 0.0687399 2.09707 0.116557 1.81218C0.164374 1.52729 0.321065 1.27214 0.553525 1.10064C0.785986 0.929146 1.07601 0.854729 1.36232 0.893116L1.35685 0.892204L5.07755 1.51217C5.53067 1.58966 5.88624 1.93247 5.98106 2.37191L5.98197 2.37921L6.61287 5.35503L17.4668 6.25945C17.3998 6.616 17.3656 6.97795 17.3647 7.34074V7.34439C17.3647 7.7109 17.3966 8.07011 17.4586 8.4193L17.4531 8.38283C17.1544 8.47697 16.9009 8.67786 16.7409 8.94713C16.581 9.21639 16.5259 9.53514 16.5861 9.84248L16.5852 9.83427L17.2407 14.5661C17.2808 14.8697 17.4194 15.1359 17.6218 15.3365C17.806 15.5197 18.0585 15.6346 18.3384 15.6373H18.3393C18.4013 15.6373 18.4624 15.6309 18.5207 15.62L18.5144 15.6209C18.8252 15.5397 19.0936 15.3433 19.265 15.0716C19.4365 14.7999 19.4983 14.4732 19.4379 14.1576L19.4388 14.1658L19.0814 11.593C19.6487 12.1831 20.3294 12.6525 21.0827 12.9727C21.8361 13.293 22.6464 13.4575 23.465 13.4565C23.5042 13.4565 23.5434 13.4565 23.5817 13.451L23.6664 13.4465L23.0565 17.004C23.0419 17.0902 22.9973 17.1685 22.9306 17.2251C22.8638 17.2816 22.7793 17.3128 22.6918 17.313H9.13923L9.43736 18.7235H22.3445C22.6317 18.7349 22.9034 18.8569 23.1026 19.0641C23.3019 19.2712 23.4133 19.5474 23.4135 19.8349C23.4138 20.1223 23.3028 20.3987 23.1039 20.6062C22.905 20.8137 22.6335 20.9362 22.3463 20.948H21.2832V21.031C21.2832 21.4907 21.1006 21.9315 20.7756 22.2565C20.4506 22.5816 20.0097 22.7642 19.5501 22.7642C19.0904 22.7642 18.6496 22.5816 18.3245 22.2565C17.9995 21.9315 17.8169 21.4907 17.8169 21.031V21.0255ZM19.055 21.0255C19.0552 21.0936 19.0695 21.1608 19.097 21.2231C19.1246 21.2853 19.1647 21.3411 19.215 21.387C19.2652 21.4329 19.3244 21.4679 19.3889 21.4897C19.4534 21.5115 19.5216 21.5197 19.5894 21.5137C19.6572 21.5077 19.723 21.4878 19.7827 21.4551C19.8423 21.4224 19.8946 21.3776 19.936 21.3237C19.9775 21.2697 20.0073 21.2077 20.0236 21.1417C20.0398 21.0756 20.0422 21.0069 20.0305 20.9398V20.9426H19.0641C19.0592 20.97 19.0568 20.9977 19.0568 21.0255H19.055ZM10.3682 21.0255C10.3684 21.0936 10.3827 21.1608 10.4103 21.2231C10.4378 21.2853 10.478 21.3411 10.5282 21.387C10.5784 21.4329 10.6377 21.4679 10.7021 21.4897C10.7666 21.5115 10.8348 21.5197 10.9026 21.5137C10.9704 21.5077 11.0362 21.4878 11.0959 21.4551C11.1555 21.4224 11.2078 21.3776 11.2492 21.3237C11.2907 21.2697 11.3205 21.2077 11.3368 21.1417C11.3531 21.0756 11.3554 21.0069 11.3437 20.9398V20.9426H10.3764C10.3718 20.9694 10.3697 20.9965 10.37 21.0237V21.0255H10.3682ZM13.8938 8.37553C13.5828 8.45658 13.3144 8.65291 13.1428 8.92466C12.9713 9.19642 12.9096 9.52325 12.9702 9.83883L12.9693 9.83063L13.6248 14.5624C13.665 14.866 13.8035 15.1322 14.0059 15.3328C14.1901 15.5161 14.4427 15.6309 14.7225 15.6337H14.7235C14.7855 15.6337 14.8465 15.6273 14.9049 15.6163L14.8985 15.6173C15.2094 15.536 15.4777 15.3397 15.6492 15.068C15.8207 14.7963 15.8825 14.4695 15.8221 14.154L15.823 14.1622L15.1675 9.43038C15.1297 9.13835 14.9955 8.86725 14.7864 8.65999C14.596 8.46982 14.3388 8.36153 14.0698 8.35821H14.0689C14.0059 8.35821 13.9449 8.36459 13.8856 8.37645L13.892 8.37553H13.8938ZM10.278 8.37553C9.96595 8.45621 9.69652 8.65297 9.5247 8.92561C9.35288 9.19825 9.29163 9.5262 9.35348 9.84248L9.35257 9.83427L10.0081 14.5661C10.0482 14.8697 10.1868 15.1359 10.3892 15.3365C10.5733 15.5197 10.8259 15.6346 11.1058 15.6373H11.1067C11.1687 15.6373 11.2298 15.6309 11.2881 15.62L11.2817 15.6209C11.5929 15.54 11.8616 15.3438 12.0333 15.072C12.205 14.8003 12.2668 14.4733 12.2062 14.1576L12.2071 14.1658L11.5507 9.4313C11.5129 9.13926 11.3788 8.86817 11.1696 8.6609C10.9794 8.4704 10.7222 8.36206 10.453 8.35912H10.4521C10.3901 8.35912 10.3299 8.36551 10.2716 8.37645L10.278 8.37553ZM18.291 7.34712C18.2912 5.97369 18.8371 4.65661 19.8084 3.68562C20.2893 3.20484 20.8603 2.82349 21.4886 2.56335C22.117 2.30322 22.7904 2.16939 23.4704 2.16951C24.1505 2.16963 24.8238 2.3037 25.4521 2.56405C26.0803 2.82441 26.6511 3.20596 27.1319 3.68691C27.6127 4.16787 27.9941 4.73881 28.2542 5.36714C28.5143 5.99548 28.6482 6.66889 28.648 7.34895C28.6477 8.72262 28.1016 10.0399 27.13 11.011C26.1585 11.982 24.8409 12.5274 23.4672 12.527C22.0936 12.5267 20.7763 11.9806 19.8052 11.009C18.8341 10.0374 18.2888 8.71988 18.2892 7.34621L18.291 7.34712ZM19.7743 7.34712C19.7743 7.83238 19.8699 8.31288 20.0556 8.7612C20.2413 9.20952 20.5135 9.61687 20.8566 9.96C21.1998 10.3031 21.6071 10.5753 22.0554 10.761C22.5037 10.9467 22.9843 11.0423 23.4695 11.0423C23.9548 11.0423 24.4353 10.9467 24.8836 10.761C25.3319 10.5753 25.7393 10.3031 26.0824 9.96C26.4255 9.61687 26.6977 9.20952 26.8834 8.7612C27.0691 8.31288 27.1647 7.83238 27.1647 7.34712C27.1648 6.36686 26.7755 5.4267 26.0824 4.73347C25.3894 4.04023 24.4493 3.65071 23.4691 3.65059C22.4888 3.65047 21.5486 4.03976 20.8554 4.73282C20.1622 5.42589 19.7726 6.36595 19.7725 7.34621L19.7743 7.34712ZM22.7283 8.82501V8.08835H21.9916C21.7948 8.08835 21.606 8.01016 21.4669 7.87098C21.3277 7.7318 21.2495 7.54304 21.2495 7.34621C21.2495 7.14939 21.3277 6.96062 21.4669 6.82144C21.606 6.68227 21.7948 6.60408 21.9916 6.60408H22.7283V5.86742C22.7283 5.67059 22.8065 5.48182 22.9457 5.34265C23.0848 5.20347 23.2736 5.12528 23.4704 5.12528C23.6672 5.12528 23.856 5.20347 23.9952 5.34265C24.1344 5.48182 24.2126 5.67059 24.2126 5.86742V6.60408H24.9492C25.146 6.60408 25.3348 6.68227 25.474 6.82144C25.6132 6.96062 25.6914 7.14939 25.6914 7.34621C25.6914 7.54304 25.6132 7.7318 25.474 7.87098C25.3348 8.01016 25.146 8.08835 24.9492 8.08835H24.2126V8.8241C24.2126 9.02092 24.1344 9.20969 23.9952 9.34886C23.856 9.48804 23.6672 9.56623 23.4704 9.56623C23.2736 9.56623 23.0848 9.48804 22.9457 9.34886C22.8065 9.20969 22.7283 9.02092 22.7283 8.8241V8.82501Z" fill="#FFB072"/>
</g>
<defs>
<clipPath id="clip0_78_951">
<rect width="28.2631" height="21.8811" fill="white" transform="translate(0.0576477 0.877502)"/>
</clipPath>
</defs>
</svg>
