<svg width="24" height="17" viewBox="0 0 24 17" fill="none" xmlns="http://www.w3.org/2000/svg">
<path d="M23.6828 14.5144V2.20632C23.6828 1.07124 22.7665 0.154968 21.6314 0.154968H2.47179C1.33671 0.154968 0.420441 1.07124 0.420441 2.20632V14.5144C0.420441 15.6495 1.33671 16.5658 2.47179 16.5658H21.6314C22.7665 16.5658 23.6828 15.6495 23.6828 14.5144ZM21.8913 2.05589C22.3426 2.50718 22.0964 2.97216 21.8502 3.20464L16.2979 8.292L21.6314 13.8443C21.7955 14.0358 21.9049 14.3366 21.7135 14.5418C21.5357 14.7606 21.1254 14.7469 20.9476 14.6102L14.9714 9.50913L12.0448 12.1759L9.13185 9.50913L3.15558 14.6102C2.97779 14.7469 2.56752 14.7606 2.38974 14.5418C2.19828 14.3366 2.30768 14.0358 2.47179 13.8443L7.80531 8.292L2.25298 3.20464C2.00682 2.97216 1.76066 2.50718 2.21195 2.05589C2.66325 1.60459 3.12822 1.8234 3.51114 2.15162L12.0448 9.04416L20.5921 2.15162C20.975 1.8234 21.44 1.60459 21.8913 2.05589Z" fill="#FFB072"/>
</svg>
