<svg width="20" height="17" viewBox="0 0 20 17" fill="none" xmlns="http://www.w3.org/2000/svg">
<path d="M19.2527 2.76188C19.2001 2.635 19.1111 2.52655 18.9969 2.45025C18.8827 2.37396 18.7484 2.33323 18.6111 2.33324H15.9702C15.653 1.78104 15.2129 1.30924 14.6842 0.954342C14.1554 0.599444 13.5521 0.370967 12.9208 0.286594C12.2896 0.202221 11.6475 0.264212 11.044 0.467772C10.4406 0.671332 9.89214 1.011 9.44102 1.46049C9.04664 1.84515 8.73319 2.30481 8.5191 2.81242C8.30501 3.32002 8.19461 3.86532 8.1944 4.41622L8.19397 4.94747C4.66133 4.02707 1.77157 1.1782 1.74102 1.14765C1.65141 1.05803 1.53898 0.994647 1.41592 0.96436C1.29286 0.934074 1.16386 0.93804 1.04289 0.975828C0.921926 1.01362 0.813606 1.08379 0.729669 1.17874C0.645732 1.27369 0.589378 1.3898 0.566713 1.51449C-0.195006 5.70416 1.0635 8.50867 2.25334 10.1236C2.85199 10.9379 3.57659 11.6515 4.39987 12.2378C3.07635 13.7351 1.02852 14.5217 1.00621 14.5301C0.908266 14.5668 0.819887 14.6252 0.747672 14.7009C0.675458 14.7766 0.621273 14.8676 0.589164 14.9672C0.557055 15.0667 0.547853 15.1722 0.562243 15.2759C0.576633 15.3795 0.614245 15.4785 0.672269 15.5655C0.736939 15.6628 0.997616 16.0042 1.6339 16.3223C2.42236 16.7167 3.46142 16.9166 4.72218 16.9166C10.8453 16.9166 15.9609 12.2032 16.4837 6.13714L19.1021 3.51874C19.1993 3.42161 19.2654 3.29786 19.2922 3.16314C19.319 3.02842 19.3052 2.88878 19.2527 2.76188ZM15.3195 5.33723C15.2 5.45666 15.1282 5.61553 15.1175 5.7841C14.7694 11.2478 10.2033 15.5277 4.72218 15.5277C3.80534 15.5277 3.15569 15.4062 2.7063 15.2603C3.70604 14.7177 5.09883 13.7841 5.99449 12.4407C6.04873 12.3589 6.08504 12.2665 6.10104 12.1696C6.11704 12.0727 6.11237 11.9736 6.08733 11.8786C6.0623 11.7837 6.01746 11.6951 5.95577 11.6187C5.89408 11.5423 5.81693 11.4799 5.72939 11.4354C5.71654 11.4289 4.43277 10.7647 3.33295 9.24695C2.08199 7.52056 1.55604 5.43133 1.76324 3.02282C3.13303 4.1473 5.7589 5.98792 8.77348 6.49044C8.87291 6.50701 8.97476 6.50174 9.07195 6.47498C9.16913 6.44823 9.25933 6.40064 9.33627 6.33552C9.41322 6.27039 9.47506 6.1893 9.51751 6.09787C9.55995 6.00644 9.58199 5.90687 9.58208 5.80607L9.58329 4.41744V4.41674C9.59062 3.67615 9.8905 2.9685 10.4175 2.44813C10.9445 1.92776 11.6559 1.63689 12.3966 1.63897C12.931 1.64636 13.452 1.80745 13.8974 2.103C14.3427 2.39854 14.6936 2.81605 14.908 3.30563C14.9621 3.4294 15.0511 3.53472 15.1641 3.60869C15.2771 3.68267 15.4092 3.72209 15.5442 3.72213H16.9345L15.3195 5.33723Z" fill="#F99441"/>
</svg>
