<svg width="20" height="20" viewBox="0 0 20 20" fill="none" xmlns="http://www.w3.org/2000/svg">
<path d="M14.5862 0H5.41382C2.42859 0 0 2.42859 0 5.41382V14.5863C0 17.5714 2.42859 20 5.41382 20H14.5863C17.5714 20 20 17.5714 20 14.5863V5.41382C20 2.42859 17.5714 0 14.5862 0V0ZM18.8275 14.5863C18.8275 16.9249 16.9249 18.8275 14.5862 18.8275H5.41382C3.0751 18.8275 1.17249 16.9249 1.17249 14.5863V5.41382C1.17249 3.0751 3.0751 1.17249 5.41382 1.17249H14.5863C16.9249 1.17249 18.8275 3.0751 18.8275 5.41382V14.5863Z" fill="#F99441"/>
<path d="M10 4.53137C6.98456 4.53137 4.5314 6.98453 4.5314 9.99997C4.5314 13.0154 6.98456 15.4686 10 15.4686C13.0154 15.4686 15.4686 13.0154 15.4686 9.99997C15.4686 6.98453 13.0154 4.53137 10 4.53137ZM10 14.2961C7.63123 14.2961 5.70389 12.3689 5.70389 9.99997C5.70389 7.6312 7.63123 5.70386 10 5.70386C12.3689 5.70386 14.2961 7.6312 14.2961 9.99997C14.2961 12.3689 12.3689 14.2961 10 14.2961Z" fill="#F99441"/>
<path d="M15.5994 2.58923C14.7083 2.58923 13.9835 3.31418 13.9835 4.20514C13.9835 5.09625 14.7083 5.8212 15.5994 5.8212C16.4905 5.8212 17.2154 5.09625 17.2154 4.20514C17.2154 3.31403 16.4905 2.58923 15.5994 2.58923ZM15.5994 4.64856C15.3549 4.64856 15.1559 4.44959 15.1559 4.20514C15.1559 3.96054 15.3549 3.76172 15.5994 3.76172C15.844 3.76172 16.0429 3.96054 16.0429 4.20514C16.0429 4.44959 15.844 4.64856 15.5994 4.64856Z" fill="#F99441"/>
</svg>
