<svg width="81" height="85" viewBox="0 0 81 85" fill="none" xmlns="http://www.w3.org/2000/svg">
<g clip-path="url(#clip0_78_986)">
<path d="M39.9836 0.264019C38.6357 0.264019 37.3017 0.375185 36.0094 0.611412V22.1637C36.0094 25.7488 37.3017 27.5413 39.8725 27.5413C40.9702 27.5413 41.9012 27.1661 42.6655 26.4158C43.4298 25.6654 43.8188 24.7622 43.8188 23.6922C43.8188 22.5944 43.4575 21.6634 42.735 20.9131C42.0124 20.1627 41.1231 19.7875 40.0809 19.7875C39.3444 19.7875 38.4968 20.121 37.538 20.8019V9.61584C38.733 9.49078 39.6362 9.4352 40.2476 9.4352C44.0551 9.4352 47.3206 10.8109 50.0441 13.5483C52.7677 16.2997 54.1156 19.593 54.1156 23.456C54.1156 27.4163 52.7399 30.7373 49.9746 33.447C47.2094 36.1567 43.8188 37.5185 39.7891 37.5185C37.7603 37.5185 35.7871 37.0738 33.8695 36.1984C31.9519 35.309 30.3539 34.1279 29.1172 32.6272C26.9494 30.0287 25.8656 26.6659 25.8656 22.5389V0L23.6978 7.03124C19.5569 11.1861 17.0001 16.925 17.0001 23.2475C17.0001 35.9482 27.2968 46.2311 39.9836 46.2311C52.6704 46.2311 62.9671 35.9343 62.9671 23.2475C62.981 10.5469 52.6843 0.264019 39.9836 0.264019Z" fill="url(#paint0_radial_78_986)"/>
</g>
<path d="M0.416443 84.93V64.3377H5.72403L5.86905 67.267C6.27509 66.3003 6.87449 65.5268 7.66725 64.9468C8.46 64.3474 9.41711 64.0477 10.5386 64.0477C12.3174 64.0477 13.7096 64.7051 14.715 66.0199C15.7398 67.3154 16.2522 69.1522 16.2522 71.5305C16.2522 73.9281 15.7301 75.794 14.686 77.1281C13.6612 78.4623 12.2691 79.1294 10.5096 79.1294C9.46544 79.1294 8.59535 78.878 7.89927 78.3753C7.20319 77.8725 6.6618 77.2055 6.27509 76.374V84.93H0.416443ZM8.27631 74.9239C8.91438 74.9239 9.41711 74.6822 9.78448 74.1988C10.1712 73.6961 10.3645 72.826 10.3645 71.5885C10.3645 70.351 10.1809 69.4809 9.81348 68.9782C9.44611 68.4755 8.94339 68.2241 8.30532 68.2241C7.66725 68.2241 7.16452 68.5045 6.79715 69.0652C6.44911 69.626 6.27509 70.4671 6.27509 71.5885C6.27509 72.652 6.43944 73.4737 6.76815 74.0538C7.11618 74.6339 7.61891 74.9239 8.27631 74.9239Z" fill="#131E3C"/>
<path d="M18.6001 78.8393V64.3377H23.8497L24.0237 67.7311C24.3524 66.5903 24.8648 65.6912 25.5609 65.0338C26.2763 64.3764 27.2044 64.0477 28.3452 64.0477C28.7512 64.0477 29.0703 64.0864 29.3023 64.1637C29.5536 64.2217 29.747 64.299 29.8823 64.3957L29.3603 69.1522C29.1669 69.0749 28.9156 69.0072 28.6062 68.9492C28.2968 68.8912 27.9391 68.8622 27.5331 68.8622C26.663 68.8622 25.9282 69.1039 25.3288 69.5873C24.7488 70.0513 24.4587 70.7571 24.4587 71.7045V78.8393H18.6001Z" fill="#131E3C"/>
<path d="M38.4265 64.0477C39.9927 64.0477 41.3655 64.3474 42.545 64.9468C43.7438 65.5268 44.6719 66.3873 45.3293 67.5281C45.9867 68.6495 46.3154 70.003 46.3154 71.5885C46.3154 73.174 45.9867 74.5372 45.3293 75.678C44.6719 76.7994 43.7438 77.6599 42.545 78.2593C41.3655 78.8393 39.9927 79.1294 38.4265 79.1294C36.8603 79.1294 35.4875 78.8393 34.3081 78.2593C33.1286 77.6599 32.2005 76.7994 31.5237 75.678C30.8663 74.5372 30.5376 73.174 30.5376 71.5885C30.5376 70.003 30.8663 68.6495 31.5237 67.5281C32.2005 66.3873 33.1286 65.5268 34.3081 64.9468C35.4875 64.3474 36.8603 64.0477 38.4265 64.0477ZM38.4265 68.0791C37.7884 68.0791 37.2954 68.3402 36.9473 68.8622C36.5993 69.3649 36.4253 70.2737 36.4253 71.5885C36.4253 72.9033 36.5993 73.8218 36.9473 74.3438C37.2954 74.8465 37.7884 75.0979 38.4265 75.0979C39.0646 75.0979 39.5576 74.8465 39.9057 74.3438C40.2537 73.8218 40.4277 72.9033 40.4277 71.5885C40.4277 70.2737 40.2537 69.3649 39.9057 68.8622C39.5576 68.3402 39.0646 68.0791 38.4265 68.0791Z" fill="#131E3C"/>
<path d="M59.1262 64.3377V68.3692H55.2688V78.8393H49.4101V68.3692H47.2639V64.3377H49.4101V63.4096C49.4101 62.0368 49.7001 60.9443 50.2802 60.1322C50.8796 59.3202 51.653 58.7401 52.6005 58.3921C53.5479 58.044 54.534 57.87 55.5588 57.87C56.4289 57.87 57.1926 57.9667 57.8501 58.16C58.5075 58.334 58.9908 58.5274 59.3002 58.7401L58.8362 62.2205C58.6428 62.1238 58.4108 62.0368 58.1401 61.9594C57.8694 61.8628 57.5213 61.8144 57.096 61.8144C56.4386 61.8144 55.9068 61.9498 55.5008 62.2205C55.0947 62.4912 54.8917 62.9939 54.8917 63.7286V64.3377H59.1262ZM63.6507 63.0616C62.4906 63.0616 61.6495 62.8682 61.1274 62.4815C60.6247 62.0755 60.3733 61.4084 60.3733 60.4803C60.3733 59.5522 60.6247 58.8851 61.1274 58.4791C61.6495 58.073 62.4906 57.87 63.6507 57.87C64.8302 57.87 65.6712 58.073 66.174 58.4791C66.6767 58.8851 66.9281 59.5522 66.9281 60.4803C66.9281 61.4084 66.6767 62.0755 66.174 62.4815C65.6712 62.8682 64.8302 63.0616 63.6507 63.0616ZM66.58 64.3377V78.8393H60.7214V64.3377H66.58Z" fill="#131E3C"/>
<path d="M80.4046 64.3377V68.3692H76.4601V73.2707C76.4601 73.9474 76.6052 74.4308 76.8952 74.7209C77.2046 75.0109 77.6589 75.1559 78.2583 75.1559C78.6837 75.1559 79.0511 75.1172 79.3605 75.0399C79.6698 74.9432 79.9599 74.8175 80.2306 74.6629L80.6076 78.0852C80.1242 78.4139 79.4861 78.6653 78.6934 78.8393C77.92 79.0327 77.1562 79.1294 76.4021 79.1294C74.5459 79.1294 73.1151 78.762 72.1097 78.0272C71.1042 77.2731 70.6015 75.997 70.6015 74.1988V68.3692H68.2232V64.3377H70.6015V61.1764L76.4601 59.5522V64.3377H80.4046Z" fill="#131E3C"/>
<defs>
<radialGradient id="paint0_radial_78_986" cx="0" cy="0" r="1" gradientUnits="userSpaceOnUse" gradientTransform="translate(39.2906 11.7781) scale(41.2743)">
<stop stop-color="#FFBE57"/>
<stop offset="1" stop-color="#E57E55"/>
</radialGradient>
<clipPath id="clip0_78_986">
<rect width="45.9809" height="46.2311" fill="white" transform="translate(17.0001)"/>
</clipPath>
</defs>
</svg>
