<svg width="184" height="47" viewBox="0 0 184 47" fill="none" xmlns="http://www.w3.org/2000/svg">
<g clip-path="url(#clip0_78_436)">
<path d="M23.2116 0.371202C21.8562 0.371202 20.5148 0.482987 19.2153 0.72053V22.3928C19.2153 25.9979 20.5148 27.8004 23.0998 27.8004C24.2037 27.8004 25.1399 27.4231 25.9084 26.6686C26.677 25.914 27.0682 25.0058 27.0682 23.9299C27.0682 22.826 26.7049 21.8898 25.9783 21.1352C25.2517 20.3807 24.3574 20.0034 23.3094 20.0034C22.5689 20.0034 21.7165 20.3388 20.7524 21.0235V9.7751C21.954 9.64935 22.8623 9.59345 23.4771 9.59345C27.3057 9.59345 30.5894 10.9768 33.3282 13.7295C36.0669 16.4962 37.4223 19.8078 37.4223 23.6923C37.4223 27.6747 36.0389 31.0142 33.2583 33.739C30.4776 36.4637 27.0682 37.8331 23.016 37.8331C20.9759 37.8331 18.9917 37.386 17.0635 36.5057C15.1352 35.6114 13.5283 34.4237 12.2846 32.9146C10.1048 30.3016 9.01494 26.9201 9.01494 22.7701V0.105713L6.83514 7.17611C2.67115 11.3541 0.100098 17.125 0.100098 23.4827C0.100098 36.2541 10.4542 46.5942 23.2116 46.5942C35.9691 46.5942 46.3231 36.2402 46.3231 23.4827C46.3371 10.7113 35.983 0.371202 23.2116 0.371202Z" fill="url(#paint0_radial_78_436)"/>
</g>
<path d="M53.4164 45.9348V12.4021H62.0594L62.2955 17.1722C62.9567 15.5979 63.9328 14.3385 65.2237 13.3939C66.5147 12.4178 68.0732 11.9298 69.8994 11.9298C72.7961 11.9298 75.0631 13.0003 76.7004 15.1414C78.3692 17.2509 79.2035 20.2421 79.2035 24.1149C79.2035 28.0192 78.3534 31.0576 76.6532 33.2301C74.9844 35.4027 72.7174 36.4889 69.8522 36.4889C68.1519 36.4889 66.7351 36.0796 65.6016 35.261C64.4681 34.4423 63.5864 33.3561 62.9567 32.0022V45.9348H53.4164ZM66.2155 29.6407C67.2546 29.6407 68.0732 29.2471 68.6714 28.46C69.3012 27.6413 69.616 26.2245 69.616 24.2094C69.616 22.1943 69.3169 20.7774 68.7187 19.9587C68.1204 19.1401 67.3018 18.7308 66.2628 18.7308C65.2237 18.7308 64.4051 19.1873 63.8068 20.1004C63.2401 21.0135 62.9567 22.3832 62.9567 24.2094C62.9567 25.9411 63.2244 27.2793 63.7596 28.2238C64.3264 29.1684 65.145 29.6407 66.2155 29.6407Z" fill="#131E3C"/>
<path d="M83.0269 36.0166V12.4021H91.5754L91.8587 17.9279C92.394 16.0702 93.2284 14.6061 94.3619 13.5356C95.5269 12.4651 97.0382 11.9298 98.8959 11.9298C99.5571 11.9298 100.077 11.9928 100.454 12.1187C100.864 12.2132 101.179 12.3391 101.399 12.4965L100.549 20.2421C100.234 20.1162 99.8247 20.006 99.3209 19.9115C98.8172 19.8171 98.2347 19.7698 97.5735 19.7698C96.1566 19.7698 94.9601 20.1634 93.984 20.9506C93.0395 21.7062 92.5672 22.8555 92.5672 24.3983V36.0166H83.0269Z" fill="#131E3C"/>
<path d="M115.312 11.9298C117.863 11.9298 120.098 12.4178 122.019 13.3939C123.971 14.3385 125.482 15.7396 126.553 17.5973C127.623 19.4235 128.159 21.6275 128.159 24.2094C128.159 26.7912 127.623 29.011 126.553 30.8687C125.482 32.6949 123.971 34.096 122.019 35.0721C120.098 36.0166 117.863 36.4889 115.312 36.4889C112.762 36.4889 110.527 36.0166 108.606 35.0721C106.685 34.096 105.174 32.6949 104.072 30.8687C103.001 29.011 102.466 26.7912 102.466 24.2094C102.466 21.6275 103.001 19.4235 104.072 17.5973C105.174 15.7396 106.685 14.3385 108.606 13.3939C110.527 12.4178 112.762 11.9298 115.312 11.9298ZM115.312 18.4946C114.273 18.4946 113.47 18.9197 112.904 19.7698C112.337 20.5885 112.054 22.0683 112.054 24.2094C112.054 26.3504 112.337 27.846 112.904 28.6961C113.47 29.5148 114.273 29.9241 115.312 29.9241C116.351 29.9241 117.154 29.5148 117.721 28.6961C118.288 27.846 118.571 26.3504 118.571 24.2094C118.571 22.0683 118.288 20.5885 117.721 19.7698C117.154 18.9197 116.351 18.4946 115.312 18.4946Z" fill="#131E3C"/>
<path d="M149.02 12.4021V18.9669H142.739V36.0166H133.198V18.9669H129.703V12.4021H133.198V10.8908C133.198 8.65524 133.671 6.87628 134.615 5.55387C135.591 4.23145 136.851 3.28687 138.393 2.72012C139.936 2.15337 141.542 1.87 143.211 1.87C144.628 1.87 145.871 2.02743 146.942 2.34229C148.012 2.62566 148.8 2.94052 149.303 3.28687L148.548 8.95436C148.233 8.79693 147.855 8.65525 147.414 8.5293C146.973 8.37187 146.407 8.29316 145.714 8.29316C144.643 8.29316 143.778 8.51356 143.116 8.95436C142.455 9.39517 142.125 10.2138 142.125 11.4103V12.4021H149.02ZM156.388 10.324C154.499 10.324 153.129 10.0091 152.279 9.37943C151.46 8.71822 151.051 7.63195 151.051 6.12062C151.051 4.60928 151.46 3.52301 152.279 2.86181C153.129 2.2006 154.499 1.87 156.388 1.87C158.308 1.87 159.678 2.2006 160.497 2.86181C161.315 3.52301 161.725 4.60928 161.725 6.12062C161.725 7.63195 161.315 8.71822 160.497 9.37943C159.678 10.0091 158.308 10.324 156.388 10.324ZM161.158 12.4021V36.0166H151.618V12.4021H161.158Z" fill="#131E3C"/>
<path d="M183.67 12.4021V18.9669H177.247V26.9487C177.247 28.0507 177.483 28.8378 177.955 29.3101C178.459 29.7824 179.199 30.0185 180.175 30.0185C180.868 30.0185 181.466 29.9556 181.97 29.8296C182.473 29.6722 182.946 29.4675 183.387 29.2157L184.001 34.7887C183.213 35.3239 182.174 35.7333 180.883 36.0166C179.624 36.3315 178.38 36.4889 177.152 36.4889C174.13 36.4889 171.8 35.8907 170.162 34.6942C168.525 33.4663 167.706 31.3882 167.706 28.46V18.9669H163.834V12.4021H167.706V7.25411L177.247 4.60928V12.4021H183.67Z" fill="#131E3C"/>
<defs>
<radialGradient id="paint0_radial_78_436" cx="0" cy="0" r="1" gradientUnits="userSpaceOnUse" gradientTransform="translate(22.5148 11.9494) scale(41.5041)">
<stop stop-color="#FFBE57"/>
<stop offset="1" stop-color="#E57E55"/>
</radialGradient>
<clipPath id="clip0_78_436">
<rect width="46.237" height="46.4885" fill="white" transform="translate(0.100098 0.105713)"/>
</clipPath>
</defs>
</svg>
