<svg width="20" height="20" viewBox="0 0 20 20" fill="none" xmlns="http://www.w3.org/2000/svg">
<path d="M19.2527 3.76188C19.2001 3.635 19.1111 3.52655 18.9969 3.45025C18.8827 3.37396 18.7484 3.33323 18.6111 3.33324H15.9702C15.653 2.78104 15.2129 2.30924 14.6842 1.95434C14.1554 1.59944 13.5521 1.37097 12.9208 1.28659C12.2896 1.20222 11.6475 1.26421 11.044 1.46777C10.4406 1.67133 9.89214 2.011 9.44102 2.46049C9.04664 2.84515 8.73319 3.30481 8.5191 3.81242C8.30501 4.32002 8.19461 4.86532 8.1944 5.41622L8.19397 5.94747C4.66133 5.02707 1.77157 2.1782 1.74102 2.14765C1.65141 2.05803 1.53898 1.99465 1.41592 1.96436C1.29286 1.93407 1.16386 1.93804 1.04289 1.97583C0.921926 2.01362 0.813606 2.08379 0.729669 2.17874C0.645732 2.27369 0.589378 2.3898 0.566713 2.51449C-0.195006 6.70416 1.0635 9.50867 2.25334 11.1236C2.85199 11.9379 3.57659 12.6515 4.39987 13.2378C3.07635 14.7351 1.02852 15.5217 1.00621 15.5301C0.908266 15.5668 0.819887 15.6252 0.747672 15.7009C0.675458 15.7766 0.621273 15.8676 0.589164 15.9672C0.557055 16.0667 0.547852 16.1722 0.562243 16.2759C0.576633 16.3795 0.614245 16.4785 0.672269 16.5655C0.736939 16.6628 0.997616 17.0042 1.6339 17.3223C2.42236 17.7167 3.46142 17.9166 4.72218 17.9166C10.8453 17.9166 15.9609 13.2032 16.4837 7.13714L19.1021 4.51874C19.1993 4.42161 19.2654 4.29786 19.2922 4.16314C19.319 4.02842 19.3052 3.88878 19.2527 3.76188V3.76188ZM15.3195 6.33723C15.2 6.45666 15.1282 6.61553 15.1175 6.7841C14.7694 12.2478 10.2033 16.5277 4.72218 16.5277C3.80534 16.5277 3.15569 16.4062 2.7063 16.2603C3.70604 15.7177 5.09883 14.7841 5.99449 13.4407C6.04873 13.3589 6.08504 13.2665 6.10104 13.1696C6.11704 13.0727 6.11237 12.9736 6.08733 12.8786C6.0623 12.7837 6.01746 12.6951 5.95577 12.6187C5.89408 12.5423 5.81693 12.4799 5.72939 12.4354C5.71654 12.4289 4.43277 11.7647 3.33295 10.247C2.08199 8.52056 1.55604 6.43133 1.76324 4.02282C3.13303 5.1473 5.7589 6.98792 8.77348 7.49044C8.87291 7.50701 8.97476 7.50174 9.07195 7.47498C9.16913 7.44823 9.25933 7.40064 9.33627 7.33551C9.41322 7.27039 9.47506 7.1893 9.51751 7.09787C9.55995 7.00644 9.58199 6.90687 9.58208 6.80607L9.58329 5.41744V5.41674C9.59062 4.67615 9.8905 3.9685 10.4175 3.44813C10.9445 2.92776 11.6559 2.63689 12.3966 2.63897C12.931 2.64636 13.452 2.80745 13.8974 3.103C14.3427 3.39854 14.6936 3.81605 14.908 4.30563C14.9621 4.4294 15.0511 4.53472 15.1641 4.60869C15.2771 4.68267 15.4092 4.72209 15.5442 4.72213H16.9345L15.3195 6.33723Z" fill="#F99441"/>
</svg>
