<svg width="20" height="20" viewBox="0 0 20 20" fill="none" xmlns="http://www.w3.org/2000/svg">
<path d="M2.99994 10.0001H1.99994V18.0001C1.99994 18.5305 2.21065 19.0392 2.58573 19.4143C2.9608 19.7893 3.46951 20.0001 3.99994 20.0001H8.99994V10.0001H2.99994ZM15.9999 10.0001H10.9999V20.0001H15.9999C16.5304 20.0001 17.0391 19.7893 17.4142 19.4143C17.7892 19.0392 17.9999 18.5305 17.9999 18.0001V10.0001H15.9999ZM16.7909 5.00006C16.9376 4.51384 17.0081 4.00785 16.9999 3.50006C16.9999 1.57006 15.4299 6.10352e-05 13.4999 6.10352e-05C11.8779 6.10352e-05 10.7949 1.48206 10.0959 3.08506C9.40694 1.57006 8.26894 6.10352e-05 6.49994 6.10352e-05C4.56994 6.10352e-05 2.99994 1.57006 2.99994 3.50006C2.99994 4.09606 3.07894 4.58906 3.20894 5.00006H-6.10352e-05V9.00006H8.99994V7.00006H10.9999V9.00006H19.9999V5.00006H16.7909ZM4.99994 3.50006C4.99994 2.67306 5.67294 2.00006 6.49994 2.00006C7.38794 2.00006 8.21394 3.52506 8.69794 5.00006H5.99994C5.62594 5.00006 4.99994 5.00006 4.99994 3.50006ZM13.4999 2.00006C14.3269 2.00006 14.9999 2.67306 14.9999 3.50006C14.9999 5.00006 14.3739 5.00006 13.9999 5.00006H11.5229C12.0329 3.42406 12.7739 2.00006 13.4999 2.00006Z" fill="#FFB072"/>
</svg>
