<svg width="22" height="25" viewBox="0 0 22 25" fill="none" xmlns="http://www.w3.org/2000/svg">
<path d="M3.29554 3.88775V6.00586H1.88347C1.50897 6.00586 1.1498 6.15463 0.884991 6.41944C0.620176 6.68426 0.471405 7.04342 0.471405 7.41793V18.7145C0.471405 19.3033 0.581547 19.854 0.803241 20.3694C1.02352 20.8764 1.32853 21.3254 1.71826 21.7151C2.51206 22.5062 3.58696 22.9504 4.70761 22.9507H9.06384C8.93082 22.5737 8.90717 22.1669 8.99563 21.7771C9.08408 21.3873 9.28103 21.0305 9.56371 20.7479L10.3559 19.9557V18.473C9.53005 18.1807 8.8151 17.6396 8.30945 16.9242C7.80379 16.2088 7.53228 15.3543 7.53228 14.4783C7.53228 13.6022 7.80379 12.7477 8.30945 12.0323C8.8151 11.3169 9.53005 10.7758 10.3559 10.4835V3.88775C10.3583 3.27262 10.1985 2.66771 9.89273 2.13397C10.2387 1.89109 10.6284 1.76965 11.0619 1.76965C11.479 1.76567 11.8877 1.88641 12.2357 2.11638C12.5837 2.34634 12.855 2.67504 13.0148 3.06028C13.125 3.31728 13.18 3.59404 13.18 3.88775V6.00586H11.768V10.2421C12.8625 10.2419 13.9145 10.6654 14.7037 11.4238C15.4929 12.1822 15.9579 13.2166 16.0013 14.3102L17.4162 12.8953V7.41793C17.4162 7.04342 17.2675 6.68426 17.0026 6.41944C16.7378 6.15463 16.3787 6.00586 16.0042 6.00586H14.5921V3.88775C14.5921 3.402 14.5003 2.9459 14.3167 2.51946C14.05 1.87681 13.598 1.32808 13.0184 0.943094C12.4388 0.558111 11.7577 0.354293 11.0619 0.357584C10.2997 0.357264 9.55879 0.609518 8.95511 1.07491C8.65411 0.847323 8.3191 0.66862 7.96243 0.545389C7.5968 0.41922 7.21249 0.355726 6.82571 0.357584C6.33996 0.357584 5.88386 0.449368 5.45742 0.632937C5.02391 0.816506 4.6483 1.07068 4.332 1.39404C4.00864 1.71035 3.75446 2.08596 3.5709 2.51946C3.38733 2.9459 3.29554 3.402 3.29554 3.88775ZM8.94382 3.88775V6.00586H4.70761V3.88775C4.70363 3.47069 4.82437 3.06194 5.05433 2.71398C5.2843 2.36601 5.61299 2.0947 5.99824 1.93486C6.25524 1.82472 6.532 1.76965 6.82571 1.76965C7.24278 1.76567 7.65153 1.88641 7.99949 2.11638C8.34746 2.34634 8.61877 2.67504 8.7786 3.06028C8.88875 3.31728 8.94382 3.59404 8.94382 3.88775ZM11.768 17.3024C12.517 17.3024 13.2353 17.0049 13.7649 16.4752C14.2945 15.9456 14.5921 15.2273 14.5921 14.4783C14.5921 13.7293 14.2945 13.0109 13.7649 12.4813C13.2353 11.9517 12.517 11.6541 11.768 11.6541C11.0189 11.6541 10.3006 11.9517 9.77099 12.4813C9.24136 13.0109 8.94382 13.7293 8.94382 14.4783C8.94382 15.2273 9.24136 15.9456 9.77099 16.4752C10.3006 17.0049 11.0189 17.3024 11.768 17.3024ZM11.768 13.0662C12.1425 13.0662 12.5016 13.215 12.7664 13.4798C13.0312 13.7446 13.18 14.1038 13.18 14.4783C13.18 14.8528 13.0312 15.2119 12.7664 15.4768C12.5016 15.7416 12.1425 15.8903 11.768 15.8903C11.3934 15.8903 11.0343 15.7416 10.7695 15.4768C10.5047 15.2119 10.3559 14.8528 10.3559 14.4783C10.3559 14.1038 10.5047 13.7446 10.7695 13.4798C11.0343 13.215 11.3934 13.0662 11.768 13.0662ZM18.8283 24.3627C19.5773 24.3627 20.2956 24.0652 20.8253 23.5356C21.3549 23.0059 21.6524 22.2876 21.6524 21.5386C21.6524 20.7896 21.3549 20.0713 20.8253 19.5416C20.2956 19.012 19.5773 18.7145 18.8283 18.7145C18.0793 18.7145 17.361 19.012 16.8313 19.5416C16.3017 20.0713 16.0042 20.7896 16.0042 21.5386C16.0042 22.2876 16.3017 23.0059 16.8313 23.5356C17.361 24.0652 18.0793 24.3627 18.8283 24.3627ZM18.8283 20.1265C19.2028 20.1265 19.562 20.2753 19.8268 20.5401C20.0916 20.8049 20.2404 21.1641 20.2404 21.5386C20.2404 21.9131 20.0916 22.2723 19.8268 22.5371C19.562 22.8019 19.2028 22.9507 18.8283 22.9507C18.4538 22.9507 18.0946 22.8019 17.8298 22.5371C17.565 22.2723 17.4162 21.9131 17.4162 21.5386C17.4162 21.1641 17.565 20.8049 17.8298 20.5401C18.0946 20.2753 18.4538 20.1265 18.8283 20.1265ZM20.0342 14.2721C20.1668 14.1395 20.2413 13.9597 20.2413 13.7722C20.2413 13.5847 20.1668 13.4049 20.0342 13.2724C19.9016 13.1398 19.7218 13.0653 19.5343 13.0653C19.3468 13.0653 19.167 13.1398 19.0345 13.2724L10.562 21.7448C10.4295 21.8773 10.355 22.0572 10.355 22.2446C10.355 22.4321 10.4295 22.6119 10.562 22.7445C10.6946 22.8771 10.8744 22.9516 11.0619 22.9516C11.2494 22.9516 11.4292 22.8771 11.5618 22.7445L20.0342 14.2721Z" fill="#FFB072"/>
</svg>
