<svg width="20" height="20" viewBox="0 0 20 20" fill="none" xmlns="http://www.w3.org/2000/svg">
<path d="M3.32629 3.31714H5.45362V5.44447H3.32629V3.31714Z" fill="#FFB072"/>
<path d="M0.135315 8.63547V0.12616H8.64462V8.63547H0.135315ZM2.26264 2.25349V6.50814H6.5173V2.25349H2.26264Z" fill="#FFB072"/>
<path d="M10.7719 10.7628H13.9629V12.8901H10.7719V10.7628Z" fill="#FFB072"/>
<path d="M13.9629 12.8901H16.0903V10.7628H19.2813V13.9538H16.0903V15.0175H17.1539V16.0811H19.2813V19.2721H17.1539V17.1448H15.0266V19.2721H10.7719V15.0175H12.8993V17.1448H13.9629V12.8901Z" fill="#FFB072"/>
<path d="M16.0903 3.31714H13.963V5.44447H16.0903V3.31714Z" fill="#FFB072"/>
<path d="M10.7719 0.12616V8.63547H19.2813V0.12616H10.7719ZM17.1539 2.25349V6.50814H12.8993V2.25349H17.1539Z" fill="#FFB072"/>
<path d="M3.32629 13.9538H5.45362V16.0811H3.32629V13.9538Z" fill="#FFB072"/>
<path d="M0.135315 19.2721V10.7628H8.64462V19.2721H0.135315ZM2.26264 12.8901V17.1448H6.5173V12.8901H2.26264Z" fill="#FFB072"/>
</svg>
