<svg width="25" height="25" viewBox="0 0 25 25" fill="none" xmlns="http://www.w3.org/2000/svg">
<g clip-path="url(#clip0_78_960)">
<path d="M21.7475 12.5514L24.7475 15.5514L20.9975 17.0514L21.7475 21.5514L17.2475 20.8014L15.7475 24.5514L12.7475 21.5514L9.7475 24.5514L8.2475 20.8014L3.7475 21.5514L4.4975 17.0514L0.747498 15.5514L3.7475 12.5514L0.747498 9.55139L4.4975 8.05139L3.7475 3.55139L8.2475 4.30139L9.7475 0.551392L12.7475 3.55139L15.7475 0.551392L17.2475 4.30139L21.7475 3.55139L20.9975 8.05139L24.7475 9.55139L21.7475 12.5514ZM8.9975 6.55139C8.3725 6.55139 7.84125 6.84436 7.40375 7.4303C6.96625 8.01624 6.7475 8.72327 6.7475 9.55139C6.7475 10.3795 6.96625 11.0865 7.40375 11.6725C7.84125 12.2584 8.3725 12.5514 8.9975 12.5514C9.6225 12.5514 10.1537 12.2584 10.5912 11.6725C11.0287 11.0865 11.2475 10.3795 11.2475 9.55139C11.2475 8.72327 11.0287 8.01624 10.5912 7.4303C10.1537 6.84436 9.6225 6.55139 8.9975 6.55139ZM16.4975 6.55139H15.7475C15.685 6.55139 15.6264 6.56311 15.5717 6.58655C15.517 6.60999 15.4741 6.62952 15.4428 6.64514C15.4116 6.66077 15.3686 6.70374 15.3139 6.77405C15.2592 6.84436 15.2241 6.89124 15.2084 6.91467C15.1928 6.93811 15.1577 7.00061 15.103 7.10217C15.0483 7.20374 15.0131 7.27014 14.9975 7.30139L8.36469 17.8014C8.25531 17.9889 8.27875 18.1608 8.435 18.317C8.59125 18.4733 8.77875 18.5514 8.9975 18.5514H9.7475C9.81 18.5514 9.86078 18.5475 9.89984 18.5397C9.9389 18.5319 9.98187 18.5123 10.0287 18.4811C10.0756 18.4498 10.1108 18.4225 10.1342 18.399C10.1577 18.3756 10.1889 18.3326 10.228 18.2701C10.267 18.2076 10.2944 18.1608 10.31 18.1295C10.3256 18.0983 10.3569 18.0436 10.4037 17.9655C10.4506 17.8873 10.4819 17.8326 10.4975 17.8014L17.1303 7.30139C17.2397 7.11389 17.2162 6.94202 17.06 6.78577C16.9037 6.62952 16.7162 6.55139 16.4975 6.55139ZM16.4975 12.5514C15.8725 12.5514 15.3412 12.8444 14.9037 13.4303C14.4662 14.0162 14.2475 14.7233 14.2475 15.5514C14.2475 16.3795 14.4662 17.0865 14.9037 17.6725C15.3412 18.2584 15.8725 18.5514 16.4975 18.5514C17.1225 18.5514 17.6537 18.2584 18.0912 17.6725C18.5287 17.0865 18.7475 16.3795 18.7475 15.5514C18.7475 14.7233 18.5287 14.0162 18.0912 13.4303C17.6537 12.8444 17.1225 12.5514 16.4975 12.5514ZM16.4975 17.0514C16.2944 17.0514 16.1186 16.903 15.9702 16.6061C15.8217 16.3092 15.7475 15.9537 15.7475 15.5397C15.7475 15.1256 15.8217 14.774 15.9702 14.485C16.1186 14.1959 16.2944 14.0514 16.4975 14.0514C16.7006 14.0514 16.8764 14.1959 17.0248 14.485C17.1733 14.774 17.2475 15.1256 17.2475 15.5397C17.2475 15.9537 17.1733 16.3092 17.0248 16.6061C16.8764 16.903 16.7006 17.0514 16.4975 17.0514ZM8.9975 11.0514C8.79437 11.0514 8.61859 10.903 8.47015 10.6061C8.32172 10.3092 8.2475 9.95374 8.2475 9.53967C8.2475 9.12561 8.32172 8.77405 8.47015 8.48499C8.61859 8.19592 8.79437 8.05139 8.9975 8.05139C9.20062 8.05139 9.3764 8.19592 9.52484 8.48499C9.67328 8.77405 9.7475 9.12561 9.7475 9.53967C9.7475 9.95374 9.67328 10.3092 9.52484 10.6061C9.3764 10.903 9.20062 11.0514 8.9975 11.0514Z" fill="#FFB072"/>
</g>
<defs>
<clipPath id="clip0_78_960">
<rect width="24" height="24" fill="white" transform="translate(0.747498 0.551392)"/>
</clipPath>
</defs>
</svg>
