<svg width="50" height="50" viewBox="0 0 50 50" fill="none" xmlns="http://www.w3.org/2000/svg">
<g clip-path="url(#clip0_78_905)">
<path d="M47.4139 14.3448H45.6897V11.7586C45.689 11.0729 45.4163 10.4156 44.9314 9.93072C44.4466 9.44588 43.7892 9.17316 43.1035 9.17241H22.4139V6.58621C22.4131 5.90053 22.1404 5.24315 21.6555 4.75831C21.1707 4.27346 20.5133 4.00075 19.8276 4H2.58627C1.90059 4.00075 1.24322 4.27346 0.75837 4.75831C0.273525 5.24315 0.00080948 5.90053 6.10352e-05 6.58621V42.7931C0.00080948 43.4788 0.273525 44.1362 0.75837 44.621C1.24322 45.1058 1.90059 45.3786 2.58627 45.3793H47.4139C48.0995 45.3786 48.7569 45.1058 49.2418 44.621C49.7266 44.1362 49.9993 43.4788 50.0001 42.7931V16.931C49.9993 16.2454 49.7266 15.588 49.2418 15.1031C48.7569 14.6183 48.0995 14.3456 47.4139 14.3448V14.3448ZM43.9656 11.7586V14.3448H11.207V11.7586C11.2073 11.5301 11.2982 11.311 11.4598 11.1494C11.6214 10.9878 11.8405 10.8968 12.069 10.8966H43.1035C43.3321 10.8968 43.5512 10.9878 43.7128 11.1494C43.8744 11.311 43.9653 11.5301 43.9656 11.7586ZM1.7242 42.7931V6.58621C1.7245 6.35766 1.81542 6.13856 1.97702 5.97696C2.13863 5.81535 2.35772 5.72443 2.58627 5.72414H19.8276C20.0562 5.72443 20.2753 5.81535 20.4369 5.97696C20.5985 6.13856 20.6894 6.35766 20.6897 6.58621V9.17241H12.069C11.3834 9.17316 10.726 9.44588 10.2411 9.93072C9.75628 10.4156 9.48357 11.0729 9.48282 11.7586V14.3448H7.75868C7.07301 14.3456 6.41563 14.6183 5.93078 15.1031C5.44594 15.588 5.17322 16.2454 5.17247 16.931V43.6552H2.58627C2.35772 43.6549 2.13863 43.564 1.97702 43.4023C1.81542 43.2407 1.7245 43.0216 1.7242 42.7931V42.7931ZM48.2759 42.7931C48.2756 43.0216 48.1847 43.2407 48.0231 43.4023C47.8615 43.564 47.6424 43.6549 47.4139 43.6552H6.89661V16.931C6.89691 16.7025 6.98783 16.4834 7.14943 16.3218C7.31104 16.1602 7.53014 16.0693 7.75868 16.069H47.4139C47.6424 16.0693 47.8615 16.1602 48.0231 16.3218C48.1847 16.4834 48.2756 16.7025 48.2759 16.931V42.7931Z" fill="url(#paint0_linear_78_905)"/>
<path d="M27.5863 18.6552C25.3697 18.6552 23.203 19.3125 21.36 20.5439C19.5171 21.7753 18.0807 23.5256 17.2324 25.5734C16.3842 27.6212 16.1623 29.8745 16.5947 32.0484C17.0271 34.2224 18.0945 36.2192 19.6618 37.7865C21.2291 39.3539 23.226 40.4212 25.3999 40.8536C27.5738 41.2861 29.8272 41.0641 31.875 40.2159C33.9228 39.3677 35.673 37.9313 36.9045 36.0883C38.1359 34.2453 38.7932 32.0786 38.7932 29.8621C38.7899 26.8908 37.6081 24.0422 35.5071 21.9412C33.4061 19.8403 30.5575 18.6585 27.5863 18.6552ZM27.5863 39.3448C25.7108 39.3448 23.8774 38.7887 22.3179 37.7467C20.7585 36.7047 19.5431 35.2237 18.8253 33.491C18.1076 31.7582 17.9198 29.8516 18.2857 28.0121C18.6516 26.1726 19.5548 24.4829 20.8809 23.1568C22.2071 21.8306 23.8968 20.9274 25.7363 20.5615C27.5757 20.1956 29.4824 20.3834 31.2152 21.1012C32.9479 21.8189 34.4289 23.0343 35.4709 24.5937C36.5129 26.1532 37.069 27.9866 37.069 29.8621C37.0662 32.3762 36.0662 34.7865 34.2885 36.5643C32.5107 38.342 30.1004 39.342 27.5863 39.3448V39.3448Z" fill="url(#paint1_linear_78_905)"/>
<path d="M28.4483 29.5051V22.9655C28.4483 22.7369 28.3575 22.5176 28.1958 22.3559C28.0342 22.1943 27.8149 22.1035 27.5863 22.1035C27.3576 22.1035 27.1383 22.1943 26.9767 22.3559C26.815 22.5176 26.7242 22.7369 26.7242 22.9655V29.8621C26.7242 30.0907 26.8151 30.3099 26.9768 30.4716L30.425 33.9198C30.5872 34.0791 30.8057 34.1678 31.0329 34.1668C31.2602 34.1658 31.4778 34.075 31.6385 33.9143C31.7992 33.7536 31.8899 33.536 31.891 33.3087C31.892 33.0815 31.8032 32.863 31.644 32.7009L28.4483 29.5051Z" fill="url(#paint2_linear_78_905)"/>
<path d="M9.48283 19.5172C9.95893 19.5172 10.3449 19.1313 10.3449 18.6552C10.3449 18.1791 9.95893 17.7931 9.48283 17.7931C9.00672 17.7931 8.62076 18.1791 8.62076 18.6552C8.62076 19.1313 9.00672 19.5172 9.48283 19.5172Z" fill="url(#paint3_linear_78_905)"/>
<path d="M4.3104 9.17241C4.78651 9.17241 5.17247 8.78645 5.17247 8.31034C5.17247 7.83423 4.78651 7.44827 4.3104 7.44827C3.8343 7.44827 3.44833 7.83423 3.44833 8.31034C3.44833 8.78645 3.8343 9.17241 4.3104 9.17241Z" fill="url(#paint4_linear_78_905)"/>
<path d="M4.3104 12.6207C4.78651 12.6207 5.17247 12.2347 5.17247 11.7586C5.17247 11.2825 4.78651 10.8965 4.3104 10.8965C3.8343 10.8965 3.44833 11.2825 3.44833 11.7586C3.44833 12.2347 3.8343 12.6207 4.3104 12.6207Z" fill="url(#paint5_linear_78_905)"/>
<path d="M12.9311 19.5172C13.4072 19.5172 13.7932 19.1313 13.7932 18.6552C13.7932 18.1791 13.4072 17.7931 12.9311 17.7931C12.455 17.7931 12.069 18.1791 12.069 18.6552C12.069 19.1313 12.455 19.5172 12.9311 19.5172Z" fill="url(#paint6_linear_78_905)"/>
<path d="M16.3794 19.5172C16.8555 19.5172 17.2414 19.1313 17.2414 18.6552C17.2414 18.1791 16.8555 17.7931 16.3794 17.7931C15.9033 17.7931 15.5173 18.1791 15.5173 18.6552C15.5173 19.1313 15.9033 19.5172 16.3794 19.5172Z" fill="url(#paint7_linear_78_905)"/>
<path d="M40.5173 41.931C40.9934 41.931 41.3794 41.5451 41.3794 41.069C41.3794 40.5929 40.9934 40.2069 40.5173 40.2069C40.0412 40.2069 39.6552 40.5929 39.6552 41.069C39.6552 41.5451 40.0412 41.931 40.5173 41.931Z" fill="url(#paint8_linear_78_905)"/>
<path d="M45.6897 41.931H43.9656C43.7369 41.931 43.5177 41.8402 43.356 41.6785C43.1943 41.5169 43.1035 41.2976 43.1035 41.069C43.1035 40.8403 43.1943 40.6211 43.356 40.4594C43.5177 40.2977 43.7369 40.2069 43.9656 40.2069H44.8277V33.3103C44.8277 33.0817 44.9185 32.8624 45.0801 32.7008C45.2418 32.5391 45.4611 32.4483 45.6897 32.4483C45.9184 32.4483 46.1376 32.5391 46.2993 32.7008C46.461 32.8624 46.5518 33.0817 46.5518 33.3103V41.069C46.5518 41.2976 46.461 41.5169 46.2993 41.6785C46.1376 41.8402 45.9184 41.931 45.6897 41.931Z" fill="url(#paint9_linear_78_905)"/>
</g>
<defs>
<linearGradient id="paint0_linear_78_905" x1="-0.413162" y1="26.7586" x2="48.9735" y2="27.0062" gradientUnits="userSpaceOnUse">
<stop stop-color="#FFBE57"/>
<stop offset="1" stop-color="#F99441"/>
</linearGradient>
<linearGradient id="paint1_linear_78_905" x1="16.1941" y1="30.9828" x2="38.3332" y2="31.0746" gradientUnits="userSpaceOnUse">
<stop stop-color="#FFBE57"/>
<stop offset="1" stop-color="#F99441"/>
</linearGradient>
<linearGradient id="paint2_linear_78_905" x1="26.6815" y1="28.7383" x2="31.785" y2="28.7474" gradientUnits="userSpaceOnUse">
<stop stop-color="#FFBE57"/>
<stop offset="1" stop-color="#F99441"/>
</linearGradient>
<linearGradient id="paint3_linear_78_905" x1="8.60651" y1="18.7414" x2="10.3095" y2="18.7484" gradientUnits="userSpaceOnUse">
<stop stop-color="#FFBE57"/>
<stop offset="1" stop-color="#F99441"/>
</linearGradient>
<linearGradient id="paint4_linear_78_905" x1="3.43408" y1="8.39655" x2="5.13709" y2="8.40362" gradientUnits="userSpaceOnUse">
<stop stop-color="#FFBE57"/>
<stop offset="1" stop-color="#F99441"/>
</linearGradient>
<linearGradient id="paint5_linear_78_905" x1="3.43408" y1="11.8448" x2="5.13709" y2="11.8519" gradientUnits="userSpaceOnUse">
<stop stop-color="#FFBE57"/>
<stop offset="1" stop-color="#F99441"/>
</linearGradient>
<linearGradient id="paint6_linear_78_905" x1="12.0548" y1="18.7414" x2="13.7578" y2="18.7484" gradientUnits="userSpaceOnUse">
<stop stop-color="#FFBE57"/>
<stop offset="1" stop-color="#F99441"/>
</linearGradient>
<linearGradient id="paint7_linear_78_905" x1="15.5031" y1="18.7414" x2="17.2061" y2="18.7484" gradientUnits="userSpaceOnUse">
<stop stop-color="#FFBE57"/>
<stop offset="1" stop-color="#F99441"/>
</linearGradient>
<linearGradient id="paint8_linear_78_905" x1="39.641" y1="41.1552" x2="41.344" y2="41.1623" gradientUnits="userSpaceOnUse">
<stop stop-color="#FFBE57"/>
<stop offset="1" stop-color="#F99441"/>
</linearGradient>
<linearGradient id="paint9_linear_78_905" x1="43.075" y1="37.6638" x2="46.4811" y2="37.6689" gradientUnits="userSpaceOnUse">
<stop stop-color="#FFBE57"/>
<stop offset="1" stop-color="#F99441"/>
</linearGradient>
<clipPath id="clip0_78_905">
<rect width="50" height="50" fill="white"/>
</clipPath>
</defs>
</svg>
