<svg width="50" height="50" viewBox="0 0 50 50" fill="none" xmlns="http://www.w3.org/2000/svg">
<g clip-path="url(#clip0_78_894)">
<path d="M25.0001 30.6452C22.7767 30.6452 20.9678 32.454 20.9678 34.6774C20.9678 36.9008 22.7767 38.7097 25.0001 38.7097C27.2234 38.7097 29.0323 36.9008 29.0323 34.6774C29.0323 32.454 27.2234 30.6452 25.0001 30.6452ZM25.0001 37.0968C23.6662 37.0968 22.5807 36.0113 22.5807 34.6774C22.5807 33.3436 23.6662 32.2581 25.0001 32.2581C26.3339 32.2581 27.4194 33.3436 27.4194 34.6774C27.4194 36.0113 26.3339 37.0968 25.0001 37.0968Z" fill="url(#paint0_linear_78_894)"/>
<path d="M30.6452 3.2258H24.1936V4.8387H30.6452V3.2258Z" fill="url(#paint1_linear_78_894)"/>
<path d="M30.6452 6.4516H24.1936V8.0645H30.6452V6.4516Z" fill="url(#paint2_linear_78_894)"/>
<path d="M30.6452 9.67743H19.3549V11.2903H30.6452V9.67743Z" fill="url(#paint3_linear_78_894)"/>
<path d="M30.6452 12.9032H19.3549V14.5161H30.6452V12.9032Z" fill="url(#paint4_linear_78_894)"/>
<path d="M30.6452 16.129H19.3549V17.7419H30.6452V16.129Z" fill="url(#paint5_linear_78_894)"/>
<path d="M50.0001 25.8065V19.3548H38.7097V25.8065H43.5484V33.871H33.871V32.4831L31.8912 31.8226L32.8243 29.9565L29.721 26.8532L27.8541 27.7871L27.1944 25.8065H25.8065V20.9677H33.871V11.2903H43.5484V15.7952L41.6993 13.946L40.5589 15.0863L44.3549 18.8823L48.1509 15.0863L47.0105 13.946L45.1614 15.7952V9.67742H33.871V0H21.4404L16.1291 5.31129V9.67742H4.83877V15.7952L2.98958 13.946L1.84925 15.0863L5.64522 18.8823L9.44119 15.0863L8.30087 13.946L6.45167 15.7952V11.2903H16.1291V20.9677H24.1936V25.8065H22.8057L22.146 27.7871L20.2791 26.8532L17.1759 29.9565L18.1089 31.8226L16.1291 32.4831V33.871H6.45167V25.8065H11.2904V19.3548H6.10352e-05V25.8065H4.83877V38.8242C3.45087 39.1847 2.41942 40.4371 2.41942 41.9355C2.41942 43.7145 3.86619 45.1613 5.64522 45.1613C7.42425 45.1613 8.87103 43.7145 8.87103 41.9355C8.87103 40.4371 7.83958 39.1847 6.45167 38.8242V35.4839H11.2904V45.3097C10.3541 45.6435 9.67748 46.5306 9.67748 47.5806C9.67748 48.9145 10.763 50 12.0968 50C13.4307 50 14.5162 48.9145 14.5162 47.5806C14.5162 46.5306 13.8396 45.6435 12.9033 45.3097V35.4839H16.1291V36.8718L18.1089 37.5323L17.1759 39.3984L20.2791 42.5016L22.146 41.5677L22.8057 43.5484H27.1936L27.8533 41.5677L29.7202 42.5016L32.8234 39.3984L31.8904 37.5323L33.871 36.8718V35.4839H37.0968V45.3097C36.1605 45.6435 35.4839 46.5306 35.4839 47.5806C35.4839 48.9145 36.5694 50 37.9033 50C39.2372 50 40.3226 48.9145 40.3226 47.5806C40.3226 46.5306 39.646 45.6435 38.7097 45.3097V35.4839H43.5484V38.8242C42.1605 39.1847 41.1291 40.4371 41.1291 41.9355C41.1291 43.7145 42.5759 45.1613 44.3549 45.1613C46.1339 45.1613 47.5807 43.7145 47.5807 41.9355C47.5807 40.4371 46.5493 39.1847 45.1614 38.8242V25.8065H50.0001ZM20.9678 2.75323V4.83871H18.8823L20.9678 2.75323ZM17.742 6.45161H22.5807V1.6129H32.2581V19.3548H17.742V6.45161ZM1.61296 20.9677H9.67748V24.1935H1.61296V20.9677ZM7.25813 41.9355C7.25813 42.825 6.53474 43.5484 5.64522 43.5484C4.75571 43.5484 4.03232 42.825 4.03232 41.9355C4.03232 41.046 4.75571 40.3226 5.64522 40.3226C6.53474 40.3226 7.25813 41.046 7.25813 41.9355ZM12.0968 48.3871C11.6517 48.3871 11.2904 48.025 11.2904 47.5806C11.2904 47.1363 11.6517 46.7742 12.0968 46.7742C12.542 46.7742 12.9033 47.1363 12.9033 47.5806C12.9033 48.025 12.542 48.3871 12.0968 48.3871ZM32.2581 35.7089L30.4081 36.3258L30.2718 36.6815C30.2315 36.7847 30.1912 36.8871 30.1468 36.9871L29.9904 37.3363L30.8622 39.0798L29.4033 40.5387L27.6597 39.6669L27.3105 39.8234C27.2114 39.8677 27.1105 39.9081 27.0081 39.9468L26.6493 40.0823L26.0315 41.9355H23.9678L23.3501 40.0823L22.9912 39.9468C22.8888 39.9081 22.788 39.8677 22.6888 39.8234L22.3396 39.6669L20.596 40.5387L19.1372 39.0798L20.0089 37.3363L19.8525 36.9871C19.8073 36.8863 19.7678 36.7847 19.7275 36.6815L19.5912 36.3258L17.742 35.7089V33.6452L19.592 33.0282L19.7283 32.6726C19.7686 32.5694 19.8089 32.4669 19.8533 32.3669L20.0097 32.0177L19.138 30.2742L20.5968 28.8153L22.3404 29.6871L22.6896 29.5306C22.7888 29.4863 22.8896 29.446 22.992 29.4073L23.3509 29.2718L23.9686 27.4194H26.0323L26.6501 29.2726L27.0089 29.4081C27.1114 29.4468 27.2122 29.4871 27.3114 29.5315L27.6605 29.6879L29.4041 28.8161L30.863 30.275L29.9912 32.0185L30.1476 32.3677C30.1928 32.4685 30.2323 32.5702 30.2726 32.6734L30.4089 33.029L32.2581 33.646V35.7089ZM37.9033 48.3871C37.4581 48.3871 37.0968 48.025 37.0968 47.5806C37.0968 47.1363 37.4581 46.7742 37.9033 46.7742C38.3484 46.7742 38.7097 47.1363 38.7097 47.5806C38.7097 48.025 38.3484 48.3871 37.9033 48.3871ZM45.9678 41.9355C45.9678 42.825 45.2444 43.5484 44.3549 43.5484C43.4654 43.5484 42.742 42.825 42.742 41.9355C42.742 41.046 43.4654 40.3226 44.3549 40.3226C45.2444 40.3226 45.9678 41.046 45.9678 41.9355ZM40.3226 20.9677H48.3872V24.1935H40.3226V20.9677Z" fill="url(#paint6_linear_78_894)"/>
</g>
<defs>
<linearGradient id="paint0_linear_78_894" x1="20.9012" y1="35.0807" x2="28.8668" y2="35.1137" gradientUnits="userSpaceOnUse">
<stop stop-color="#FFBE57"/>
<stop offset="1" stop-color="#F99441"/>
</linearGradient>
<linearGradient id="paint1_linear_78_894" x1="24.1403" y1="4.1129" x2="30.5112" y2="4.21864" gradientUnits="userSpaceOnUse">
<stop stop-color="#FFBE57"/>
<stop offset="1" stop-color="#F99441"/>
</linearGradient>
<linearGradient id="paint2_linear_78_894" x1="24.1403" y1="7.3387" x2="30.5112" y2="7.44444" gradientUnits="userSpaceOnUse">
<stop stop-color="#FFBE57"/>
<stop offset="1" stop-color="#F99441"/>
</linearGradient>
<linearGradient id="paint3_linear_78_894" x1="19.2616" y1="10.5645" x2="30.4043" y2="10.8882" gradientUnits="userSpaceOnUse">
<stop stop-color="#FFBE57"/>
<stop offset="1" stop-color="#F99441"/>
</linearGradient>
<linearGradient id="paint4_linear_78_894" x1="19.2616" y1="13.7903" x2="30.4043" y2="14.114" gradientUnits="userSpaceOnUse">
<stop stop-color="#FFBE57"/>
<stop offset="1" stop-color="#F99441"/>
</linearGradient>
<linearGradient id="paint5_linear_78_894" x1="19.2616" y1="17.0161" x2="30.4043" y2="17.3398" gradientUnits="userSpaceOnUse">
<stop stop-color="#FFBE57"/>
<stop offset="1" stop-color="#F99441"/>
</linearGradient>
<linearGradient id="paint6_linear_78_894" x1="-0.413162" y1="27.5" x2="48.9739" y2="27.7049" gradientUnits="userSpaceOnUse">
<stop stop-color="#FFBE57"/>
<stop offset="1" stop-color="#F99441"/>
</linearGradient>
<clipPath id="clip0_78_894">
<rect width="50" height="50" fill="white"/>
</clipPath>
</defs>
</svg>
